M48
;Layer_Color=9474304
;FILE_FORMAT=4:4
METRIC,LZ
;TYPE=PLATED
T1F00S00C0.3000
T2F00S00C0.3500
T5F00S00C1.0000
T6F00S00C1.6000
;TYPE=NON_PLATED
T8F00S00C1.0000
T9F00S00C1.6000
T10F00S00C3.2000
%
T01
X005345Y00292
X005275Y0031
X00531Y003355
X0054Y003375
X005875Y0039
X004625Y003385
X004385Y00335
X00375014Y0033721
X00361688Y00341688
X00315Y00196
X00141Y00194
X00152Y0016
X00163
X00174
X00145Y00285
X00104Y002085
X00108Y0016
X00097
X00119Y001625
X00117Y00545
X00109Y0055
X00101Y00555
X00125Y0054
X00133Y00535
X00141Y0053
X00375Y005825
X0038Y0059
X00385Y005975
X0039Y00605
X00395Y006125
X004Y0062
X00419Y006125
Y005825
X00448Y00594
X004655
X00483
X005005
X00518
Y006215
X005005
X00483
X004655
X00448
Y00649
X004655
X00483
X005005
X00518
Y006765
X005005
X00483
X004655
X00448
Y00704
X004655
X00483
X005005
X00518
X005045Y007555
X004895
X004745
X004595
X006015Y006995
X006675Y00725
X0068
X0058779Y005275
X00552Y00814
X005195
X00487
X004545
T02
X009225Y003
X009225Y00341
X009525
X008925
X009075Y003825
X00832Y003405
X00802
X00772
X0069Y003345
X007015Y00377
X00663
X006165
X00607Y003575
X00589Y003345
X005885Y002955
Y002555
X0055Y002645
X00525
X006185Y002335
X0069
X00688Y001735
Y00127
X007585
Y0007
X00829
X00829Y00127
X008995
X008995Y001805
Y002335
X00833
X007615
X0072Y00301
X00553Y003875
X005895Y001735
X005895Y00127
X00518
Y0007
X004475
Y00127
X003835
X00384Y00161
X00382Y00237
X00356
X00334Y002105
X00299Y00182
X00274
X002605Y00161
X00235Y001575
X00225
X002Y001575
X00207Y00194
X00239
X00266Y00218
X00286Y002385
X002505Y00245
X002135Y002495
X001965Y00233
X001765Y00295
X001325Y003135
X00141Y003875
X00177
X00193
X002305Y003595
X002605
X002905
X003205
X00377Y00378
X00412Y00372
X004375Y00385
X004575Y00372
X005075
X0051Y00265
X004975Y00218
X004715
X0044
X003875Y00337
X002865Y0014
X003185Y001075
X002295Y000905
Y00064
Y000235
X001825Y00062
X00189Y000905
X00143Y0004
X001025Y00062
X000745Y00064
Y000895
X00086Y001255
X000575Y00044
X000745Y000235
X000555Y002065
X000875Y002395
X000775Y003
X000825Y0036
Y00405
Y00463
Y005155
Y005605
X00061Y006225
X000925Y00685
X000965Y00789
X00069
X00117Y004905
Y00433
X00147Y00463
X001865Y004975
X001925Y005325
X001775
X002305Y00556
X002605
X002905
X003205
X003075Y00535
X003375
X00377Y00525
X004295Y005265
X0044Y0051
X004395Y00495
X00411
X004275Y004575
X00411Y00438
X0043Y004195
X00463Y00404
X00502
X0049Y004195
X005045Y00485
X004975Y0051
X004975Y00532
Y00548
X004725
X004525
X004225Y005475
X004095Y00635
X003795
X003495
X003475Y006525
X003375Y006705
X003175
Y007055
X003305Y007525
X003045
Y00785
X002785
X002525
X002075Y007725
X001975
X00176Y00789
X001485
X001245Y00706
X00155Y00685
X001895Y00706
Y00662
X00177Y006225
X001245
X002375Y00648
Y0067
Y00695
X002875Y006525
X003175Y00635
X002745Y006175
X0032Y00484
X003335
Y00431
X0032
X00295Y004165
X00377Y00403
Y004465
Y004685
X00462Y00485
X00482Y00495
X004975Y00765
X005155Y00774
X004435Y00765
Y00785
X004135Y00765
X00374Y00785
X00364
X003305
X001865Y00426
X005315Y0043
X00553Y004175
X00591Y00418
X006165Y00407
X00663
X007015
X00728Y0041
X00738
Y0042
X00728
X00748
Y004105
X00745Y00455
X0073
X007Y00478
X00675
X0065
X00642Y004325
X006075Y00515
X00597
X005925Y00551
X005835Y005625
X00575Y00585
X005655Y006225
X00565Y0064
X005475
X00535Y006275
X005925Y0064
X006Y006075
X00675Y005935
Y006235
X00723
X00753
X00783
X00813
X0083Y005985
X0084
X0085
X0086
X008635Y00584
X009075Y005295
Y0051
X0086Y00471
X0085
X0084
X0083
X00863Y004575
X009075Y00402
X00792Y0042
X00783Y005025
X00753
X00723
X007275Y005375
X007375
Y005475
X007475
Y00538
X007275Y005475
X0073Y005825
X00745
X00792Y005475
X00675Y005335
Y005635
X00553Y005305
X00537Y00531
X0054Y00518
X005215Y00495
X005515Y004875
X00521Y00404
X00576Y006785
X006175Y00679
X00595Y007325
Y00754
X006175Y00758
X006255Y00775
X005525Y00763
X00555Y0075
X00534Y00778
X00812762Y00779544
Y00749544
Y00719544
X00865Y00733
X00895
X007625Y00666
X009395Y006875
Y006975
X009495
X009595
Y00688
X009495Y006875
X0097Y00717
Y00747
Y00777
X00925Y00733
X00889Y00805
X00859
X00829
X006255Y00804
T05
X00305Y000317
Y000571
Y000825
X006625Y007796
X006879
X007133
X007387
X007641
X007895
Y00805
X007641
X007387
X007133
X006879
X006625
T06
X00544Y001925
X0072675
Y001575
X0076866
Y001925
X0081057
Y001575
X008525Y001925
X0050207
Y001575
X0046016
Y001925
X0041825
Y001575
X000975Y0076
X000725
X001475
X001725
X001225Y0081
T08
X001825Y0004
X001027
T09
X001225Y0076
X001725Y0081
X000725
T10
X0097Y0003
X0003
X0097Y0081
X0003
M30
