G04*
G04 #@! TF.GenerationSoftware,Altium Limited,Altium Designer,23.4.1 (23)*
G04*
G04 Layer_Physical_Order=1*
G04 Layer_Color=255*
%FSLAX44Y44*%
%MOMM*%
G71*
G04*
G04 #@! TF.SameCoordinates,0BEE9D39-8D09-447D-96B2-328BBDF68ADB*
G04*
G04*
G04 #@! TF.FilePolarity,Positive*
G04*
G01*
G75*
%ADD10C,0.5000*%
%ADD62C,0.3000*%
%ADD63R,0.9000X1.0000*%
%ADD64R,0.3000X2.6000*%
%ADD65R,1.0000X0.9000*%
%ADD66R,1.0000X0.9500*%
%ADD67R,0.6000X1.6000*%
%ADD68R,0.4500X1.5000*%
%ADD69R,1.2000X1.8000*%
%ADD70R,1.8000X1.2500*%
%ADD71R,2.4500X2.3500*%
%ADD72R,1.1500X1.8000*%
%ADD73R,1.8000X1.1500*%
%ADD74R,1.4000X1.1000*%
%ADD75R,0.6500X1.0500*%
%ADD76R,0.9500X1.0000*%
%ADD77R,0.5500X1.3000*%
%ADD78R,0.8500X0.3000*%
%ADD79R,1.5500X0.6000*%
%ADD80R,1.5000X0.3000*%
%ADD81R,0.3000X1.5000*%
%ADD82R,0.9500X1.4000*%
%ADD83R,1.6000X1.8500*%
%ADD84R,2.1000X5.8000*%
%ADD85R,0.4200X0.5500*%
%ADD86R,2.3500X1.5500*%
%ADD87R,0.7000X1.6000*%
%ADD88R,1.6000X1.4000*%
%ADD89R,1.2000X1.4000*%
%ADD90R,1.2000X2.2000*%
%ADD91R,1.0500X1.4000*%
%ADD92R,2.7000X1.1500*%
%ADD93C,0.1500*%
%ADD94C,0.4500*%
%ADD95C,1.7500*%
%ADD96C,1.8000*%
%ADD97C,0.9000*%
%ADD98C,0.6500*%
%ADD99C,0.4000*%
%ADD100C,0.7000*%
%ADD101C,0.7500*%
%ADD102C,0.9500*%
%ADD103C,1.2000*%
%ADD104C,0.8000*%
%ADD105C,0.1431*%
%ADD106C,2.0000*%
%ADD107O,1.5000X2.1000*%
%ADD108O,1.5000X3.0000*%
%ADD109C,1.7000*%
%ADD110R,1.7000X1.7000*%
%ADD111C,2.7000*%
G04:AMPARAMS|DCode=112|XSize=3.9mm|YSize=4.2mm|CornerRadius=1.95mm|HoleSize=0mm|Usage=FLASHONLY|Rotation=0.000|XOffset=0mm|YOffset=0mm|HoleType=Round|Shape=RoundedRectangle|*
%AMROUNDEDRECTD112*
21,1,3.9000,0.3000,0,0,0.0*
21,1,0.0000,4.2000,0,0,0.0*
1,1,3.9000,0.0000,-0.1500*
1,1,3.9000,0.0000,-0.1500*
1,1,3.9000,0.0000,0.1500*
1,1,3.9000,0.0000,0.1500*
%
%ADD112ROUNDEDRECTD112*%
%ADD113O,2.2000X3.0000*%
%ADD114O,3.0000X2.2000*%
%ADD115R,1.7000X1.7000*%
%ADD116O,4.3000X1.6000*%
%ADD117O,3.8000X1.6000*%
%ADD118O,1.6000X3.8000*%
%ADD119C,0.6000*%
%ADD120C,0.8000*%
G36*
X987500Y837000D02*
X988436D01*
X990271Y836635D01*
X992000Y835919D01*
X993556Y834879D01*
X994879Y833556D01*
X995919Y832000D01*
X996635Y830271D01*
X997000Y828436D01*
Y827500D01*
X997000D01*
X997000Y12500D01*
X997000Y11564D01*
X996635Y9729D01*
X995919Y8000D01*
X994879Y6444D01*
X993556Y5121D01*
X992000Y4081D01*
X990271Y3365D01*
X988436Y3000D01*
X987500Y3000D01*
X215597D01*
X214890Y4215D01*
X214895Y4270D01*
X215041Y5002D01*
Y85502D01*
X214886Y86282D01*
X214444Y86944D01*
X213782Y87386D01*
X213002Y87541D01*
X199002D01*
X198221Y87386D01*
X197560Y86944D01*
X197118Y86282D01*
X196963Y85502D01*
Y5002D01*
X197108Y4270D01*
X197114Y4215D01*
X196407Y3000D01*
X12500D01*
X11564Y3000D01*
X9729Y3365D01*
X8000Y4081D01*
X6444Y5121D01*
X5121Y6444D01*
X4081Y8000D01*
X3365Y9729D01*
X3000Y11564D01*
X3000Y12500D01*
Y827500D01*
X3000Y828436D01*
X3365Y830271D01*
X4081Y832000D01*
X5121Y833556D01*
X6444Y834879D01*
X8000Y835919D01*
X9729Y836635D01*
X11564Y837000D01*
X12500Y837000D01*
X12500Y837000D01*
X987500Y837000D01*
D02*
G37*
%LPC*%
G36*
X126500Y823112D02*
X124500D01*
Y812000D01*
X139349D01*
X139165Y813394D01*
X137856Y816556D01*
X135772Y819272D01*
X133056Y821356D01*
X129894Y822665D01*
X126500Y823112D01*
D02*
G37*
G36*
X120500D02*
X118500D01*
X115106Y822665D01*
X111944Y821356D01*
X109228Y819272D01*
X107144Y816556D01*
X105835Y813394D01*
X105651Y812000D01*
X120500D01*
Y823112D01*
D02*
G37*
G36*
X718498Y820354D02*
X708102D01*
X707850Y820304D01*
X705000D01*
X703927Y820090D01*
X703017Y819483D01*
X698517Y814983D01*
X697910Y814073D01*
X697696Y813000D01*
Y811572D01*
X696426Y811232D01*
X696302Y811447D01*
X694347Y813402D01*
X691953Y814784D01*
X689282Y815500D01*
X686518D01*
X683847Y814784D01*
X681453Y813402D01*
X679498Y811447D01*
X678116Y809053D01*
X677400Y806382D01*
Y803618D01*
X678116Y800947D01*
X679498Y798553D01*
X681453Y796598D01*
X681656Y796481D01*
X681327Y795254D01*
X669073D01*
X668744Y796481D01*
X668947Y796598D01*
X670902Y798553D01*
X672284Y800947D01*
X673000Y803618D01*
Y806382D01*
X672284Y809053D01*
X670902Y811447D01*
X668947Y813402D01*
X666553Y814784D01*
X663882Y815500D01*
X661118D01*
X658447Y814784D01*
X656053Y813402D01*
X654098Y811447D01*
X652716Y809053D01*
X652000Y806382D01*
Y803618D01*
X652244Y802709D01*
X638017Y788483D01*
X637410Y787573D01*
X637196Y786500D01*
Y673661D01*
X584074Y620539D01*
X582804Y621065D01*
Y664339D01*
X583661Y665196D01*
X585500D01*
Y661500D01*
X599500D01*
Y674500D01*
X595304D01*
Y675500D01*
X595090Y676573D01*
X594483Y677483D01*
X584139Y687827D01*
X584625Y689000D01*
X594250D01*
Y689696D01*
X595000D01*
X596073Y689910D01*
X596983Y690517D01*
X600965Y694500D01*
X602495D01*
X604332Y695261D01*
X605739Y696668D01*
X606500Y698505D01*
Y700495D01*
X605739Y702332D01*
X604332Y703739D01*
X602495Y704500D01*
X600505D01*
X599276Y703991D01*
X598523Y704977D01*
X602978Y709431D01*
X610500D01*
Y706250D01*
X624500D01*
Y719750D01*
X621069D01*
Y725500D01*
X624500D01*
Y738500D01*
X610500D01*
Y725500D01*
X613931D01*
Y719750D01*
X610500D01*
Y716569D01*
X601500D01*
X600134Y716297D01*
X598977Y715523D01*
X594522Y711069D01*
X588000D01*
X587655Y711000D01*
X581750D01*
Y700304D01*
X578661D01*
X561983Y716983D01*
X561073Y717590D01*
X560000Y717804D01*
X530661D01*
X528639Y719827D01*
X529125Y721000D01*
X533000D01*
Y735655D01*
X533069Y736000D01*
X535931D01*
X535999Y735655D01*
Y721000D01*
X548000D01*
Y735655D01*
X548069Y736000D01*
Y753522D01*
X551547Y757000D01*
X553694D01*
X555899Y757913D01*
X557587Y759601D01*
X558500Y761806D01*
Y764193D01*
X557587Y766399D01*
X555899Y768087D01*
X553694Y769000D01*
X551306D01*
X549101Y768087D01*
X547413Y766399D01*
X546500Y764193D01*
Y762047D01*
X544242Y759789D01*
X543069Y760275D01*
Y772500D01*
X542797Y773866D01*
X542023Y775023D01*
X540000Y777047D01*
Y779193D01*
X539087Y781399D01*
X537399Y783086D01*
X535193Y784000D01*
X532807D01*
X530601Y783086D01*
X528913Y781399D01*
X528000Y779193D01*
Y776806D01*
X528913Y774601D01*
X530601Y772913D01*
X532807Y772000D01*
X534953D01*
X535931Y771022D01*
Y751000D01*
X534303D01*
X533069Y751264D01*
Y760000D01*
X532797Y761366D01*
X532023Y762523D01*
X521500Y773047D01*
Y775193D01*
X520587Y777399D01*
X518899Y779087D01*
X516693Y780000D01*
X514306D01*
X512101Y779087D01*
X510414Y777399D01*
X509500Y775193D01*
Y772806D01*
X510414Y770601D01*
X511176Y769839D01*
X510650Y768569D01*
X502417D01*
X500899Y770087D01*
X498694Y771000D01*
X496306D01*
X494101Y770087D01*
X492413Y768399D01*
X491500Y766193D01*
Y763807D01*
X492413Y761601D01*
X494101Y759913D01*
X496306Y759000D01*
X498694D01*
X500899Y759913D01*
X502417Y761431D01*
X512022D01*
X520931Y752522D01*
Y751000D01*
X506000D01*
Y736000D01*
X503001D01*
Y751000D01*
X490999D01*
Y736000D01*
X488000D01*
Y751000D01*
X475999D01*
Y736000D01*
X473000D01*
Y751000D01*
X460999D01*
Y736000D01*
X458000D01*
Y751000D01*
X451000D01*
Y721000D01*
X451731D01*
X451839Y720460D01*
X452583D01*
X452630Y720225D01*
X453069Y719569D01*
X456125Y716512D01*
Y710488D01*
X453868Y708231D01*
X453429Y707574D01*
X453275Y706799D01*
Y591201D01*
X453429Y590426D01*
X453868Y589769D01*
X461625Y582012D01*
Y578488D01*
X461069Y577931D01*
X460630Y577275D01*
X460583Y577040D01*
X459839D01*
X459731Y576500D01*
X448999D01*
Y567345D01*
X448931Y567000D01*
X446001D01*
Y576500D01*
X445304D01*
Y577040D01*
X444560D01*
Y584500D01*
X444403Y585288D01*
X444000Y585891D01*
Y586965D01*
X442804Y588161D01*
Y679000D01*
X442590Y680073D01*
X441983Y680983D01*
X431933Y691033D01*
X431023Y691640D01*
X429950Y691854D01*
X426750D01*
Y694050D01*
X407250D01*
Y684050D01*
X426750D01*
Y686246D01*
X428789D01*
X437196Y677839D01*
Y673565D01*
X435926Y673039D01*
X430633Y678333D01*
X429723Y678940D01*
X428650Y679154D01*
X426750D01*
Y681350D01*
X407250D01*
Y671350D01*
X426750D01*
Y672489D01*
X428020Y673015D01*
X432196Y668839D01*
Y663565D01*
X430926Y663039D01*
X428333Y665633D01*
X427423Y666240D01*
X426750Y666374D01*
Y668650D01*
X407250D01*
Y658650D01*
X426750D01*
X427196Y657565D01*
Y657035D01*
X426750Y655950D01*
X407250D01*
Y645950D01*
X414196D01*
Y645500D01*
X414410Y644427D01*
X415017Y643517D01*
X422696Y635839D01*
Y582000D01*
X422910Y580927D01*
X423517Y580017D01*
X424696Y578839D01*
Y576500D01*
X418999D01*
Y567345D01*
X418931Y567000D01*
X416001D01*
Y576500D01*
X415304D01*
Y615000D01*
X415090Y616073D01*
X414483Y616983D01*
X409483Y621983D01*
X408573Y622590D01*
X407500Y622804D01*
X404251D01*
X404239Y622832D01*
X402832Y624239D01*
X400994Y625000D01*
X399005D01*
X397168Y624239D01*
X395761Y622832D01*
X395000Y620995D01*
Y619005D01*
X395186Y618556D01*
X394481Y617500D01*
X394005D01*
X392168Y616739D01*
X390761Y615332D01*
X390000Y613495D01*
Y611505D01*
X390186Y611056D01*
X389481Y610000D01*
X389005D01*
X387168Y609239D01*
X385761Y607832D01*
X385000Y605995D01*
Y604005D01*
X385186Y603556D01*
X384481Y602500D01*
X384005D01*
X382168Y601739D01*
X380761Y600332D01*
X380000Y598495D01*
Y596505D01*
X380186Y596056D01*
X379481Y595000D01*
X379005D01*
X377168Y594239D01*
X375761Y592832D01*
X375000Y590995D01*
Y589005D01*
X375186Y588556D01*
X374481Y587500D01*
X374005D01*
X372168Y586739D01*
X370761Y585332D01*
X370000Y583495D01*
Y581505D01*
X370761Y579668D01*
X372168Y578261D01*
X373605Y577666D01*
X374000Y576500D01*
X374000Y576500D01*
X374000Y576500D01*
Y557500D01*
X374696D01*
Y556000D01*
X374910Y554927D01*
X375517Y554017D01*
X421517Y508017D01*
X422427Y507410D01*
X423500Y507196D01*
X434667D01*
X434913Y506601D01*
X436601Y504913D01*
X438806Y504000D01*
X441194D01*
X443399Y504913D01*
X445087Y506601D01*
X446000Y508807D01*
Y511194D01*
X445087Y513399D01*
X443399Y515087D01*
X441194Y516000D01*
X438806D01*
X436601Y515087D01*
X434913Y513399D01*
X434667Y512804D01*
X424661D01*
X381235Y556230D01*
X381761Y557500D01*
X418931D01*
Y552417D01*
X417413Y550899D01*
X416500Y548694D01*
Y546307D01*
X417413Y544101D01*
X419101Y542413D01*
X421306Y541500D01*
X423694D01*
X425899Y542413D01*
X427587Y544101D01*
X428500Y546307D01*
Y548694D01*
X427587Y550899D01*
X426069Y552417D01*
Y557500D01*
X448932D01*
Y552917D01*
X447413Y551399D01*
X446500Y549193D01*
Y546806D01*
X447413Y544601D01*
X449101Y542913D01*
X451306Y542000D01*
X453694D01*
X455899Y542913D01*
X457161Y544176D01*
X458431Y543650D01*
Y489917D01*
X456913Y488399D01*
X456000Y486194D01*
Y483806D01*
X456913Y481601D01*
X458601Y479913D01*
X460807Y479000D01*
X463194D01*
X465399Y479913D01*
X467086Y481601D01*
X468000Y483806D01*
Y486194D01*
X467086Y488399D01*
X465569Y489917D01*
Y545737D01*
X466839Y545989D01*
X467413Y544601D01*
X469101Y542913D01*
X471306Y542000D01*
X473694D01*
X475899Y542913D01*
X477587Y544601D01*
X478500Y546806D01*
Y549193D01*
X477587Y551399D01*
X476069Y552917D01*
Y557500D01*
X483931D01*
Y551500D01*
X484203Y550134D01*
X484977Y548977D01*
X488477Y545477D01*
X489634Y544703D01*
X491000Y544431D01*
X492583D01*
X494101Y542913D01*
X496306Y542000D01*
X498694D01*
X500899Y542913D01*
X502587Y544601D01*
X503500Y546806D01*
Y549193D01*
X502587Y551399D01*
X500899Y553087D01*
X498694Y554000D01*
X496306D01*
X494101Y553087D01*
X492583Y551569D01*
X492478D01*
X491069Y552978D01*
Y557500D01*
X531001D01*
Y567000D01*
Y576500D01*
X520269D01*
X520161Y577040D01*
X519417D01*
X519370Y577275D01*
X518931Y577931D01*
X518375Y578488D01*
Y584469D01*
X518221Y585244D01*
X517782Y585900D01*
X512524Y591158D01*
Y708500D01*
X512370Y709275D01*
X511931Y709931D01*
X507875Y713988D01*
Y716512D01*
X510931Y719568D01*
X510931Y719569D01*
X511316Y720144D01*
X511941Y720219D01*
X511998Y720218D01*
X512647Y720137D01*
X513044Y719544D01*
X522000Y710587D01*
Y709535D01*
X525517Y706017D01*
X526427Y705410D01*
X527500Y705196D01*
X530900D01*
Y703250D01*
X539100D01*
Y712196D01*
X558225D01*
X558544Y711770D01*
X558000Y710683D01*
Y707500D01*
X557000D01*
Y706500D01*
X551250D01*
Y706069D01*
X550000D01*
X548634Y705797D01*
X547477Y705023D01*
X544796Y702343D01*
X544022Y701185D01*
X543751Y699819D01*
Y644736D01*
X542413Y643399D01*
X542388Y643336D01*
X541118Y643589D01*
Y645500D01*
X542000D01*
Y658500D01*
X528000D01*
Y645500D01*
X528882D01*
Y627500D01*
X529000Y626909D01*
Y626306D01*
X529231Y625750D01*
X529348Y625159D01*
X529683Y624658D01*
X529913Y624101D01*
X530340Y623675D01*
X530674Y623174D01*
X531175Y622840D01*
X531601Y622413D01*
X532158Y622183D01*
X532659Y621848D01*
X533250Y621731D01*
X533806Y621500D01*
X534409D01*
X535000Y621382D01*
X535591Y621500D01*
X536194D01*
X536750Y621731D01*
X537341Y621848D01*
X537842Y622183D01*
X538399Y622413D01*
X538825Y622840D01*
X539326Y623174D01*
X539660Y623675D01*
X540087Y624101D01*
X540317Y624658D01*
X540652Y625159D01*
X540769Y625750D01*
X541000Y626306D01*
Y626909D01*
X541118Y627500D01*
Y636411D01*
X542388Y636664D01*
X542413Y636601D01*
X544101Y634913D01*
X546306Y634000D01*
X548694D01*
X550899Y634913D01*
X551023Y635038D01*
X552196Y634552D01*
Y603661D01*
X535517Y586983D01*
X534910Y586073D01*
X534696Y585000D01*
Y576500D01*
X533999D01*
Y567000D01*
Y557500D01*
X556000D01*
Y576500D01*
X556000Y576500D01*
X556000D01*
X556522Y577556D01*
X607926Y628961D01*
X609196Y628435D01*
Y591161D01*
X602732Y584697D01*
X602000Y585000D01*
Y585000D01*
X588000D01*
Y581304D01*
X587500D01*
X586427Y581090D01*
X585517Y580483D01*
X554839Y549804D01*
X534500D01*
X533427Y549590D01*
X532517Y548983D01*
X499288Y515754D01*
X498694Y516000D01*
X496307D01*
X494101Y515087D01*
X492413Y513399D01*
X491500Y511194D01*
Y508807D01*
X492413Y506601D01*
X494101Y504913D01*
X496307Y504000D01*
X498694D01*
X500899Y504913D01*
X502587Y506601D01*
X503500Y508807D01*
Y511194D01*
X503254Y511788D01*
X535661Y544196D01*
X556000D01*
X557073Y544410D01*
X557983Y545017D01*
X561327Y548362D01*
X562500Y547875D01*
Y539000D01*
Y527843D01*
X561230Y527317D01*
X559000Y529547D01*
Y531693D01*
X558087Y533899D01*
X556399Y535587D01*
X554193Y536500D01*
X551806D01*
X549601Y535587D01*
X547914Y533899D01*
X547000Y531693D01*
Y529306D01*
X547914Y527101D01*
X549601Y525414D01*
X551806Y524500D01*
X553953D01*
X558477Y519977D01*
X559634Y519203D01*
X561000Y518931D01*
X562500D01*
Y514000D01*
Y504000D01*
Y494000D01*
Y488999D01*
X572000D01*
X581500D01*
Y494000D01*
Y504000D01*
Y514000D01*
Y524696D01*
X583539D01*
X583551Y524668D01*
X584958Y523261D01*
X586795Y522500D01*
X588785D01*
X590622Y523261D01*
X592029Y524668D01*
X592041Y524696D01*
X600500D01*
X601573Y524910D01*
X602483Y525517D01*
X616023Y539058D01*
X617196Y538572D01*
Y496161D01*
X606339Y485304D01*
X581500D01*
Y486001D01*
X572000D01*
X562500D01*
Y484000D01*
Y474000D01*
Y461069D01*
X547500D01*
X547500Y461069D01*
X540978D01*
X538569Y463478D01*
Y511522D01*
X539047Y512000D01*
X541194D01*
X543399Y512914D01*
X545087Y514601D01*
X546000Y516806D01*
Y519193D01*
X545087Y521399D01*
X543399Y523087D01*
X541194Y524000D01*
X538806D01*
X536601Y523087D01*
X534913Y521399D01*
X534000Y519193D01*
Y517047D01*
X532477Y515523D01*
X531703Y514366D01*
X531431Y513000D01*
Y462000D01*
X531703Y460634D01*
X532477Y459477D01*
X534711Y457242D01*
X534225Y456069D01*
X510978D01*
X508069Y458978D01*
Y480083D01*
X509587Y481601D01*
X510500Y483806D01*
Y486194D01*
X509587Y488399D01*
X507899Y490087D01*
X505694Y491000D01*
X503307D01*
X501101Y490087D01*
X499413Y488399D01*
X498500Y486194D01*
Y483806D01*
X499413Y481601D01*
X500931Y480083D01*
Y457500D01*
X501203Y456134D01*
X501977Y454977D01*
X506977Y449977D01*
X508134Y449203D01*
X509500Y448931D01*
X562500D01*
Y441069D01*
X557500D01*
X556134Y440797D01*
X554977Y440023D01*
X550477Y435523D01*
X549703Y434366D01*
X549431Y433000D01*
Y422417D01*
X547914Y420899D01*
X547000Y418694D01*
Y416307D01*
X547914Y414101D01*
X549601Y412413D01*
X551806Y411500D01*
X554193D01*
X556399Y412413D01*
X558087Y414101D01*
X559000Y416307D01*
Y418694D01*
X558087Y420899D01*
X556569Y422417D01*
Y431522D01*
X558978Y433932D01*
X562500D01*
Y424000D01*
Y414000D01*
Y404000D01*
Y391069D01*
X557917D01*
X556399Y392587D01*
X554193Y393500D01*
X551806D01*
X549601Y392587D01*
X547914Y390899D01*
X547000Y388694D01*
Y386307D01*
X547914Y384101D01*
X549601Y382413D01*
X551806Y381500D01*
X554193D01*
X556399Y382413D01*
X557917Y383932D01*
X562500D01*
Y379000D01*
Y373999D01*
X572000D01*
Y372500D01*
X573500D01*
Y369000D01*
X578375D01*
X578862Y367827D01*
X560517Y349483D01*
X559910Y348573D01*
X559696Y347500D01*
Y233661D01*
X558173Y232139D01*
X557000Y232625D01*
Y244500D01*
X554069D01*
Y250000D01*
X553797Y251366D01*
X553023Y252523D01*
X548149Y257398D01*
X548744Y258396D01*
X548843Y258500D01*
X551194D01*
X553399Y259414D01*
X555087Y261101D01*
X556000Y263307D01*
Y265693D01*
X555087Y267899D01*
X553399Y269587D01*
X551194Y270500D01*
X551242Y271750D01*
X552250D01*
Y286250D01*
X549804D01*
Y288839D01*
X554483Y293517D01*
X555090Y294427D01*
X555304Y295500D01*
Y339000D01*
X555090Y340073D01*
X554483Y340983D01*
X553139Y342327D01*
X553624Y343500D01*
X556000D01*
Y362500D01*
X533999D01*
Y353345D01*
X533931Y353000D01*
X531001D01*
Y362500D01*
X511069D01*
Y367083D01*
X512587Y368601D01*
X513500Y370807D01*
Y373194D01*
X512587Y375399D01*
X510899Y377087D01*
X508694Y378000D01*
X506306D01*
X504101Y377087D01*
X502413Y375399D01*
X501500Y373194D01*
Y370807D01*
X502413Y368601D01*
X503932Y367083D01*
Y362500D01*
X461069D01*
Y367083D01*
X462587Y368601D01*
X463500Y370807D01*
Y373194D01*
X462587Y375399D01*
X460899Y377087D01*
X458694Y378000D01*
X456306D01*
X454839Y377392D01*
X453569Y378213D01*
Y413522D01*
X455978Y415931D01*
X485083D01*
X486601Y414413D01*
X488806Y413500D01*
X491194D01*
X493399Y414413D01*
X495087Y416101D01*
X496000Y418307D01*
Y420694D01*
X495087Y422899D01*
X493399Y424587D01*
X491194Y425500D01*
X488806D01*
X486601Y424587D01*
X485083Y423069D01*
X454500D01*
X453134Y422797D01*
X451977Y422023D01*
X447477Y417523D01*
X446703Y416366D01*
X446431Y415000D01*
Y368500D01*
X446703Y367134D01*
X447477Y365977D01*
X448931Y364522D01*
Y362500D01*
X438999D01*
Y353000D01*
Y343500D01*
X439696D01*
Y340500D01*
X439910Y339427D01*
X440517Y338517D01*
X441446Y337589D01*
Y320411D01*
X440517Y319483D01*
X440516Y319481D01*
X440514Y319479D01*
X436574Y315526D01*
X435304Y316051D01*
Y343500D01*
X436001D01*
Y353000D01*
Y362500D01*
X406069D01*
Y366022D01*
X407781Y367734D01*
X408601Y366913D01*
X410807Y366000D01*
X413194D01*
X415399Y366913D01*
X417087Y368601D01*
X418000Y370807D01*
Y373194D01*
X417087Y375399D01*
X415399Y377087D01*
X413194Y378000D01*
X410807D01*
X408601Y377087D01*
X407083Y375569D01*
X407000D01*
X405634Y375297D01*
X404477Y374523D01*
X399977Y370023D01*
X399203Y368866D01*
X398931Y367500D01*
Y362500D01*
X374000D01*
Y355804D01*
X373000D01*
X371927Y355590D01*
X371017Y354983D01*
X362711Y346676D01*
X362683Y346688D01*
X360694D01*
X358856Y345927D01*
X357449Y344521D01*
X356688Y342683D01*
Y340694D01*
X357449Y338856D01*
X358856Y337449D01*
X360694Y336688D01*
X362683D01*
X364521Y337449D01*
X365927Y338856D01*
X366688Y340694D01*
Y342683D01*
X366677Y342711D01*
X372827Y348861D01*
X374000Y348375D01*
Y343500D01*
X374968D01*
X375552Y342230D01*
X375535Y342210D01*
X374019D01*
X372181Y341449D01*
X370775Y340042D01*
X370014Y338205D01*
Y336215D01*
X370775Y334378D01*
X372181Y332971D01*
X374019Y332210D01*
X376008D01*
X377846Y332971D01*
X379252Y334378D01*
X380014Y336215D01*
Y336480D01*
X380230Y336624D01*
X381500Y335946D01*
Y335807D01*
X382413Y333601D01*
X384101Y331913D01*
X384921Y331574D01*
X384669Y330304D01*
X211161D01*
X151804Y389661D01*
Y394500D01*
X174902D01*
X175155Y393230D01*
X173601Y392587D01*
X171913Y390899D01*
X171000Y388694D01*
Y386306D01*
X171913Y384101D01*
X173601Y382413D01*
X175807Y381500D01*
X178193D01*
X180399Y382413D01*
X182087Y384101D01*
X183000Y386306D01*
Y387732D01*
X183884Y388616D01*
X183884Y388616D01*
X184768Y389939D01*
X185078Y391500D01*
X185078Y391500D01*
Y394500D01*
X185750D01*
Y395000D01*
X188000D01*
Y403000D01*
Y411000D01*
X185750D01*
Y411500D01*
X175804D01*
Y441839D01*
X181161Y447196D01*
X203935D01*
X204461Y445926D01*
X195017Y436483D01*
X194410Y435573D01*
X194196Y434500D01*
Y411500D01*
X192250D01*
Y411000D01*
X190000D01*
Y403000D01*
Y395000D01*
X192250D01*
Y394500D01*
X226196D01*
Y386000D01*
X226410Y384927D01*
X227017Y384017D01*
X243017Y368017D01*
X243927Y367410D01*
X245000Y367196D01*
X295000D01*
X296073Y367410D01*
X296983Y368017D01*
X303661Y374696D01*
X347500D01*
X348500Y374000D01*
Y369000D01*
X357655D01*
X358000Y368931D01*
X370479D01*
X371845Y369203D01*
X373003Y369977D01*
X375255Y372229D01*
X375807Y372000D01*
X378194D01*
X380399Y372914D01*
X382087Y374601D01*
X383000Y376806D01*
Y379193D01*
X382087Y381399D01*
X380399Y383087D01*
X378194Y384000D01*
X375807D01*
X373601Y383087D01*
X371913Y381399D01*
X371000Y379193D01*
Y378068D01*
X369001Y376069D01*
X367500D01*
Y384000D01*
Y393931D01*
X370479D01*
X371845Y394203D01*
X373003Y394977D01*
X375255Y397229D01*
X375807Y397000D01*
X378194D01*
X380399Y397914D01*
X382087Y399601D01*
X383000Y401807D01*
Y404193D01*
X382087Y406399D01*
X380399Y408087D01*
X378194Y409000D01*
X375807D01*
X375768Y408984D01*
X374594Y408509D01*
X373998Y409625D01*
X374116Y409705D01*
X374523Y409977D01*
X380478Y415931D01*
X425083D01*
X426601Y414413D01*
X428806Y413500D01*
X431194D01*
X433399Y414413D01*
X435087Y416101D01*
X436000Y418307D01*
Y420694D01*
X435087Y422899D01*
X433399Y424587D01*
X431194Y425500D01*
X428806D01*
X426601Y424587D01*
X425083Y423069D01*
X379000D01*
X377634Y422797D01*
X376477Y422023D01*
X370522Y416069D01*
X367500D01*
Y426001D01*
X358000D01*
X348500D01*
Y425304D01*
X347500D01*
X347500Y425304D01*
X328500D01*
X328500Y425304D01*
X316161D01*
X309483Y431983D01*
X308573Y432590D01*
X307500Y432804D01*
X222500D01*
X221427Y432590D01*
X220517Y431983D01*
X211017Y422483D01*
X210410Y421573D01*
X210196Y420500D01*
Y411500D01*
X207804D01*
Y431339D01*
X213661Y437196D01*
X336339D01*
X343017Y430517D01*
X343927Y429910D01*
X345000Y429696D01*
X347500D01*
X348500Y429000D01*
Y428999D01*
X358000D01*
X367500D01*
Y429000D01*
Y439000D01*
Y448932D01*
X369501D01*
X371000Y447433D01*
Y445307D01*
X371913Y443101D01*
X373601Y441413D01*
X375807Y440500D01*
X378194D01*
X380399Y441413D01*
X382087Y443101D01*
X383000Y445307D01*
Y447693D01*
X382087Y449899D01*
X380399Y451586D01*
X378194Y452500D01*
X377036D01*
X376928Y452662D01*
X377607Y453932D01*
X422583D01*
X424101Y452413D01*
X426306Y451500D01*
X428694D01*
X430899Y452413D01*
X432587Y454101D01*
X433500Y456307D01*
Y458694D01*
X432587Y460899D01*
X430899Y462587D01*
X428694Y463500D01*
X426306D01*
X424101Y462587D01*
X422583Y461069D01*
X377607D01*
X376928Y462339D01*
X377035Y462500D01*
X378194D01*
X380399Y463413D01*
X382087Y465101D01*
X383000Y467307D01*
Y469693D01*
X382087Y471899D01*
X380399Y473587D01*
X378194Y474500D01*
X375807D01*
X373601Y473587D01*
X371913Y471899D01*
X371000Y469693D01*
Y467568D01*
X369501Y466069D01*
X367500D01*
Y479000D01*
Y486001D01*
X358000D01*
X348500D01*
Y485304D01*
X347500D01*
X347500Y485304D01*
X345000D01*
X343927Y485090D01*
X343017Y484483D01*
X336339Y477804D01*
X181161Y477804D01*
X177390Y481575D01*
X178200Y482561D01*
X178427Y482410D01*
X179500Y482196D01*
X307500D01*
X308573Y482410D01*
X309483Y483017D01*
X316161Y489696D01*
X347500D01*
X348500Y489000D01*
Y488999D01*
X358000D01*
X367500D01*
Y489000D01*
Y499000D01*
Y509000D01*
Y519000D01*
Y527657D01*
X368770Y528183D01*
X371000Y525953D01*
Y523807D01*
X371913Y521601D01*
X373601Y519913D01*
X375807Y519000D01*
X378194D01*
X380399Y519913D01*
X382087Y521601D01*
X383000Y523807D01*
Y526194D01*
X382087Y528399D01*
X380399Y530087D01*
X378194Y531000D01*
X376047D01*
X372023Y535023D01*
X370866Y535797D01*
X369500Y536069D01*
X367500D01*
Y551000D01*
X348500D01*
Y550304D01*
X347500D01*
X347500Y550304D01*
X250000D01*
X248927Y550090D01*
X248017Y549483D01*
X235017Y536483D01*
X234410Y535573D01*
X234196Y534500D01*
Y525500D01*
X194598D01*
X194345Y526770D01*
X195899Y527413D01*
X197586Y529101D01*
X198500Y531306D01*
Y533694D01*
X197586Y535899D01*
X195899Y537587D01*
X193694Y538500D01*
X191306D01*
X189101Y537587D01*
X187413Y535899D01*
X186500Y533694D01*
Y532989D01*
X185756Y532244D01*
X184761Y530756D01*
X184412Y529000D01*
Y526040D01*
X182500D01*
Y517000D01*
Y507960D01*
X186290D01*
Y508500D01*
X194196D01*
Y500500D01*
X194410Y499427D01*
X195017Y498517D01*
X204461Y489074D01*
X203935Y487804D01*
X180661D01*
X175804Y492661D01*
Y507960D01*
X179500D01*
Y517000D01*
Y526040D01*
X175710D01*
Y525500D01*
X145367D01*
X144841Y526770D01*
X145239Y527168D01*
X146000Y529005D01*
Y530995D01*
X145239Y532832D01*
X143832Y534239D01*
X141995Y535000D01*
X140005D01*
X139270Y534695D01*
X138000Y535544D01*
Y535995D01*
X137239Y537832D01*
X135832Y539239D01*
X133995Y540000D01*
X132005D01*
X131270Y539695D01*
X130000Y540544D01*
Y540995D01*
X129239Y542832D01*
X127832Y544239D01*
X125995Y545000D01*
X124005D01*
X123270Y544695D01*
X122000Y545544D01*
Y545995D01*
X121239Y547832D01*
X119832Y549239D01*
X117995Y550000D01*
X116005D01*
X115270Y549695D01*
X114000Y550544D01*
Y550995D01*
X113239Y552832D01*
X111832Y554239D01*
X109995Y555000D01*
X108005D01*
X107270Y554695D01*
X106000Y555544D01*
Y555995D01*
X105239Y557832D01*
X103832Y559239D01*
X101995Y560000D01*
X100005D01*
X98168Y559239D01*
X96761Y557832D01*
X96000Y555995D01*
Y554005D01*
X96761Y552168D01*
X98168Y550761D01*
X98196Y550749D01*
Y525500D01*
X96250D01*
Y508500D01*
X146196D01*
Y486000D01*
X146196Y486000D01*
X146410Y484927D01*
X147017Y484017D01*
X167722Y463313D01*
X167903Y462500D01*
X167722Y461687D01*
X155017Y448983D01*
X154410Y448073D01*
X154196Y447000D01*
Y411500D01*
X96250D01*
Y394500D01*
X98196D01*
Y387500D01*
X98410Y386427D01*
X99017Y385517D01*
X188722Y295813D01*
X188902Y295000D01*
X188722Y294187D01*
X112339Y217804D01*
X93000D01*
X91927Y217590D01*
X91017Y216983D01*
X79517Y205483D01*
X78910Y204573D01*
X78696Y203500D01*
Y200500D01*
X74500D01*
Y187500D01*
X88500D01*
Y200500D01*
X84304D01*
Y202339D01*
X94161Y212196D01*
X112439D01*
X112965Y210926D01*
X95017Y192979D01*
X94410Y192069D01*
X94196Y190996D01*
Y164251D01*
X94168Y164239D01*
X92761Y162832D01*
X92000Y160995D01*
Y159005D01*
X92761Y157168D01*
X92957Y156972D01*
Y155424D01*
X92533Y155000D01*
X91500Y155000D01*
X90467Y155000D01*
X89569Y155898D01*
Y161000D01*
X89297Y162366D01*
X88523Y163523D01*
X85069Y166978D01*
Y171500D01*
X88500D01*
Y184500D01*
X74500D01*
Y171500D01*
X77931D01*
Y165500D01*
X78203Y164134D01*
X78977Y162977D01*
X82431Y159522D01*
Y155000D01*
X80500D01*
Y135000D01*
X81922D01*
Y129907D01*
X80913Y128899D01*
X80000Y126693D01*
Y124306D01*
X80913Y122101D01*
X82601Y120413D01*
X84806Y119500D01*
X87193D01*
X89399Y120413D01*
X89786Y120800D01*
X90959Y120314D01*
Y76998D01*
X91114Y76218D01*
X91556Y75556D01*
X92218Y75114D01*
X92998Y74959D01*
X178998D01*
X179779Y75114D01*
X180440Y75556D01*
X180882Y76218D01*
X181037Y76998D01*
Y125998D01*
X180882Y126778D01*
X180440Y127440D01*
X179779Y127882D01*
X178998Y128037D01*
X92998D01*
X92218Y127882D01*
X91406Y128128D01*
X91087Y128899D01*
X90078Y129907D01*
Y134102D01*
X90976Y135000D01*
X91500D01*
X92770Y135000D01*
X101230D01*
X102500Y135000D01*
Y135000D01*
X102500D01*
Y135000D01*
X117500D01*
Y145000D01*
Y155000D01*
X111569D01*
Y156497D01*
X112239Y157168D01*
X113000Y159005D01*
Y160995D01*
X112239Y162832D01*
X110832Y164239D01*
X110804Y164251D01*
Y193339D01*
X125926Y208461D01*
X127196Y207935D01*
Y155000D01*
X125770D01*
X124500Y155000D01*
Y155000D01*
X124500D01*
Y155000D01*
X120500D01*
Y145000D01*
Y135000D01*
X123230D01*
X124500Y135000D01*
Y135000D01*
X124500D01*
Y135000D01*
X135500D01*
Y135000D01*
X136770Y135000D01*
X145230D01*
X146500Y135000D01*
Y135000D01*
X146500D01*
Y135000D01*
X156230D01*
X157500Y135000D01*
Y135000D01*
X157500D01*
Y135000D01*
X167230D01*
X168500Y135000D01*
Y135000D01*
X168500D01*
Y135000D01*
X179500D01*
Y155000D01*
X177569D01*
Y156497D01*
X178239Y157168D01*
X179000Y159005D01*
Y160995D01*
X178239Y162832D01*
X176832Y164239D01*
X176804Y164251D01*
Y229339D01*
X207161Y259696D01*
X238935D01*
X239461Y258426D01*
X228017Y246983D01*
X227410Y246073D01*
X227196Y245000D01*
Y239500D01*
X223500D01*
Y225500D01*
X236500D01*
Y239500D01*
X232804D01*
Y243839D01*
X243661Y254696D01*
X273935D01*
X274461Y253426D01*
X245517Y224483D01*
X244910Y223573D01*
X244696Y222500D01*
Y64500D01*
X241000D01*
Y50500D01*
X254000D01*
Y64500D01*
X250304D01*
Y221339D01*
X278661Y249696D01*
X327935D01*
X328461Y248426D01*
X305535Y225500D01*
X296000D01*
Y211500D01*
X309000D01*
Y221035D01*
X332661Y244696D01*
X431435D01*
X431961Y243426D01*
X357839Y169304D01*
X280000D01*
X278927Y169090D01*
X278017Y168483D01*
X258967Y149433D01*
X258360Y148523D01*
X258146Y147450D01*
Y134000D01*
X255950D01*
Y114000D01*
X265950D01*
Y134000D01*
X263754D01*
Y146289D01*
X281161Y163696D01*
X359000D01*
X360073Y163910D01*
X360983Y164517D01*
X414176Y217711D01*
X415446Y217185D01*
Y207746D01*
X413729Y207404D01*
X410908Y206236D01*
X408369Y204540D01*
X406210Y202381D01*
X404514Y199842D01*
X403346Y197021D01*
X402750Y194027D01*
Y190973D01*
X403346Y187979D01*
X404514Y185158D01*
X406210Y182619D01*
X408369Y180460D01*
X410908Y178764D01*
X413729Y177596D01*
X416723Y177000D01*
X419777D01*
X422771Y177596D01*
X425592Y178764D01*
X428131Y180460D01*
X430290Y182619D01*
X431986Y185158D01*
X433154Y187979D01*
X433750Y190973D01*
Y194027D01*
X433154Y197021D01*
X431986Y199842D01*
X430290Y202381D01*
X428131Y204540D01*
X425592Y206236D01*
X422771Y207404D01*
X421054Y207746D01*
Y217089D01*
X439483Y235517D01*
X439483Y235517D01*
X456086Y252121D01*
X457356Y251595D01*
Y207746D01*
X455639Y207404D01*
X452818Y206236D01*
X450279Y204540D01*
X448120Y202381D01*
X446424Y199842D01*
X445256Y197021D01*
X444660Y194027D01*
Y190973D01*
X445256Y187979D01*
X446424Y185158D01*
X448120Y182619D01*
X450279Y180460D01*
X452818Y178764D01*
X455639Y177596D01*
X458633Y177000D01*
X461687D01*
X464681Y177596D01*
X467502Y178764D01*
X470041Y180460D01*
X472200Y182619D01*
X473896Y185158D01*
X475064Y187979D01*
X475660Y190973D01*
Y194027D01*
X475064Y197021D01*
X473896Y199842D01*
X472200Y202381D01*
X470041Y204540D01*
X467502Y206236D01*
X464681Y207404D01*
X462964Y207746D01*
Y251499D01*
X483661Y272196D01*
X493935D01*
X494461Y270926D01*
X480017Y256483D01*
X479410Y255573D01*
X479196Y254500D01*
Y148161D01*
X467839Y136804D01*
X385025D01*
X367483Y154346D01*
X366573Y154954D01*
X365500Y155168D01*
X281364D01*
X280291Y154954D01*
X279381Y154346D01*
X271667Y146633D01*
X271060Y145723D01*
X270846Y144650D01*
Y134000D01*
X268650D01*
Y114000D01*
X278650D01*
Y134000D01*
X276454D01*
Y143489D01*
X282525Y149560D01*
X364339D01*
X381881Y132017D01*
X382791Y131410D01*
X383864Y131196D01*
X469000D01*
X470073Y131410D01*
X470983Y132017D01*
X483983Y145017D01*
X484590Y145927D01*
X484804Y147000D01*
Y253339D01*
X548426Y316961D01*
X549696Y316435D01*
Y296661D01*
X545017Y291983D01*
X544410Y291073D01*
X544196Y290000D01*
Y286250D01*
X541750D01*
Y271750D01*
X543431D01*
Y268757D01*
X543703Y267392D01*
X544321Y266467D01*
X544000Y265693D01*
Y263307D01*
X544913Y261101D01*
X545313Y260702D01*
X544687Y259531D01*
X544500Y259569D01*
X542750D01*
Y263250D01*
X532250D01*
Y248750D01*
X542750D01*
Y250907D01*
X544020Y251433D01*
X546931Y248522D01*
Y244500D01*
X544000D01*
Y230500D01*
X554875D01*
X555361Y229327D01*
X551339Y225304D01*
X532070D01*
X530997Y225090D01*
X530087Y224483D01*
X510868Y205263D01*
X509412Y206236D01*
X506591Y207404D01*
X503597Y208000D01*
X500543D01*
X497549Y207404D01*
X494728Y206236D01*
X492189Y204540D01*
X490030Y202381D01*
X488334Y199842D01*
X487166Y197021D01*
X486570Y194027D01*
Y190973D01*
X487166Y187979D01*
X488334Y185158D01*
X490030Y182619D01*
X492189Y180460D01*
X494728Y178764D01*
X497549Y177596D01*
X500543Y177000D01*
X503597D01*
X506591Y177596D01*
X509412Y178764D01*
X511951Y180460D01*
X514110Y182619D01*
X515806Y185158D01*
X516974Y187979D01*
X517570Y190973D01*
Y194027D01*
X516974Y197021D01*
X515806Y199842D01*
X514833Y201298D01*
X533231Y219696D01*
X552500D01*
X553573Y219910D01*
X554483Y220517D01*
X564187Y230222D01*
X565000Y230403D01*
X565813Y230222D01*
X590517Y205517D01*
X591427Y204909D01*
X592500Y204696D01*
X710589D01*
X713987Y201298D01*
X713014Y199842D01*
X711846Y197021D01*
X711250Y194027D01*
Y190973D01*
X711846Y187979D01*
X713014Y185158D01*
X714710Y182619D01*
X716869Y180460D01*
X719408Y178764D01*
X722229Y177596D01*
X725223Y177000D01*
X728277D01*
X731271Y177596D01*
X734092Y178764D01*
X736631Y180460D01*
X738790Y182619D01*
X740486Y185158D01*
X741654Y187979D01*
X742250Y190973D01*
Y194027D01*
X741654Y197021D01*
X740486Y199842D01*
X738790Y202381D01*
X736631Y204540D01*
X734092Y206236D01*
X731271Y207404D01*
X728277Y208000D01*
X725223D01*
X722229Y207404D01*
X719408Y206236D01*
X717952Y205263D01*
X714789Y208426D01*
X715315Y209696D01*
X747499D01*
X755897Y201298D01*
X754924Y199842D01*
X753756Y197021D01*
X753160Y194027D01*
Y190973D01*
X753756Y187979D01*
X754924Y185158D01*
X756620Y182619D01*
X758779Y180460D01*
X761318Y178764D01*
X764139Y177596D01*
X767133Y177000D01*
X770187D01*
X773181Y177596D01*
X776002Y178764D01*
X778541Y180460D01*
X780700Y182619D01*
X782396Y185158D01*
X783564Y187979D01*
X784160Y190973D01*
Y194027D01*
X783564Y197021D01*
X782396Y199842D01*
X780700Y202381D01*
X778541Y204540D01*
X776002Y206236D01*
X773181Y207404D01*
X770187Y208000D01*
X767133D01*
X764139Y207404D01*
X761318Y206236D01*
X759862Y205263D01*
X751699Y213426D01*
X752225Y214696D01*
X784409D01*
X797807Y201298D01*
X796834Y199842D01*
X795666Y197021D01*
X795070Y194027D01*
Y190973D01*
X795666Y187979D01*
X796834Y185158D01*
X798530Y182619D01*
X800689Y180460D01*
X803228Y178764D01*
X806049Y177596D01*
X809043Y177000D01*
X812097D01*
X815091Y177596D01*
X817912Y178764D01*
X820451Y180460D01*
X822610Y182619D01*
X824306Y185158D01*
X825474Y187979D01*
X826070Y190973D01*
Y194027D01*
X825474Y197021D01*
X824306Y199842D01*
X822610Y202381D01*
X820451Y204540D01*
X817912Y206236D01*
X815091Y207404D01*
X812097Y208000D01*
X809043D01*
X806049Y207404D01*
X803228Y206236D01*
X801772Y205263D01*
X787553Y219483D01*
X786643Y220090D01*
X785570Y220304D01*
X603661D01*
X580304Y243661D01*
Y338839D01*
X598922Y357457D01*
X600192Y356931D01*
Y347000D01*
X600250Y346558D01*
Y340000D01*
X601187D01*
Y337750D01*
X597100D01*
Y315250D01*
X599031D01*
Y294750D01*
X597100D01*
Y272250D01*
X617100D01*
Y294750D01*
X615169D01*
Y315250D01*
X617100D01*
Y337750D01*
X612913D01*
Y340000D01*
X613750D01*
Y346558D01*
X613808Y347000D01*
Y357500D01*
X613576Y359262D01*
X612896Y360904D01*
X611814Y362314D01*
X610404Y363396D01*
X608762Y364076D01*
X607000Y364308D01*
X605238Y364076D01*
X604074Y363594D01*
X602804Y364263D01*
Y395500D01*
X602590Y396573D01*
X601983Y397483D01*
X594983Y404483D01*
X594073Y405090D01*
X593000Y405304D01*
X581500D01*
Y419000D01*
Y429696D01*
X611339D01*
X639196Y401839D01*
Y354000D01*
X635500D01*
Y340000D01*
X648500D01*
Y354000D01*
X644804D01*
Y403000D01*
X644591Y404073D01*
X643983Y404983D01*
X614483Y434483D01*
X613573Y435090D01*
X612500Y435304D01*
X581500D01*
Y444000D01*
Y454000D01*
Y461001D01*
X572345D01*
X572000Y461069D01*
Y463999D01*
X581500D01*
Y464696D01*
X635839D01*
X679696Y420839D01*
Y372500D01*
X679910Y371427D01*
X680517Y370517D01*
X752017Y299017D01*
X752927Y298410D01*
X754000Y298196D01*
X863000D01*
Y294500D01*
X877000D01*
Y307500D01*
X863000D01*
Y303804D01*
X755161D01*
X685304Y373661D01*
Y422000D01*
X685090Y423073D01*
X684483Y423983D01*
X638983Y469483D01*
X638073Y470090D01*
X637000Y470304D01*
X581500D01*
Y474696D01*
X607500D01*
X608573Y474910D01*
X609483Y475517D01*
X625483Y491517D01*
X626090Y492427D01*
X626304Y493500D01*
Y535339D01*
X628965Y538000D01*
X638500D01*
Y547535D01*
X640827Y549861D01*
X642000Y549375D01*
Y546000D01*
X647000D01*
Y551500D01*
X643998D01*
X643720Y551784D01*
X643159Y552770D01*
X643304Y553500D01*
Y561000D01*
X647500D01*
Y567500D01*
Y574000D01*
X643304D01*
Y619339D01*
X754483Y730517D01*
X755090Y731427D01*
X755304Y732500D01*
Y741000D01*
X755090Y742073D01*
X754483Y742983D01*
X747983Y749483D01*
X747073Y750090D01*
X747000Y750105D01*
Y758535D01*
X753483Y765017D01*
X754090Y765927D01*
X754304Y767000D01*
Y773027D01*
X755574Y773368D01*
X755698Y773153D01*
X757653Y771198D01*
X760022Y769830D01*
Y720289D01*
X702616Y662884D01*
X701732Y661561D01*
X701422Y660000D01*
X701422Y660000D01*
Y554556D01*
X701422Y554556D01*
X701732Y552996D01*
X702616Y551673D01*
X709672Y544616D01*
X709672Y544616D01*
X710996Y543732D01*
X712556Y543422D01*
X720461D01*
Y534503D01*
X720616Y533722D01*
X720997Y532803D01*
X721439Y532142D01*
X721439Y532142D01*
X722142Y531439D01*
X722803Y530997D01*
X723722Y530616D01*
X724503Y530461D01*
X749511D01*
X750000Y530396D01*
X757000D01*
Y529000D01*
X782000D01*
Y543931D01*
X787083D01*
X788601Y542413D01*
X790807Y541500D01*
X793194D01*
X795399Y542413D01*
X795737Y542752D01*
X796910Y542266D01*
Y530500D01*
X797107Y529509D01*
X797635Y528719D01*
X797616Y528691D01*
X797461Y527910D01*
Y496261D01*
X797500Y496064D01*
Y495863D01*
X797788Y494414D01*
X797865Y494229D01*
X797904Y494032D01*
X798470Y492667D01*
X798581Y492500D01*
X798658Y492314D01*
X799479Y491086D01*
X799621Y490944D01*
X799732Y490777D01*
X800777Y489732D01*
X800944Y489621D01*
X801086Y489479D01*
X802315Y488658D01*
X802500Y488581D01*
X802667Y488470D01*
X804032Y487904D01*
X804229Y487865D01*
X804415Y487788D01*
X805863Y487500D01*
X806064D01*
X806261Y487461D01*
X807000D01*
X888500Y487461D01*
X891450Y487461D01*
X891936Y487437D01*
X892937Y487238D01*
X893834Y486866D01*
X894641Y486327D01*
X895327Y485641D01*
X895866Y484834D01*
X896238Y483937D01*
X896437Y482936D01*
X896461Y482450D01*
Y475250D01*
X885500D01*
Y467500D01*
X882500D01*
Y464500D01*
X867000D01*
Y463645D01*
X865730Y462864D01*
X864193Y463500D01*
X861806D01*
X859601Y462587D01*
X858515Y461500D01*
X850500D01*
Y461000D01*
X849250D01*
Y452000D01*
X847250D01*
Y461000D01*
X842750D01*
Y452000D01*
X840750D01*
Y461000D01*
X840006D01*
Y462000D01*
X839809Y462991D01*
X839248Y463831D01*
X838408Y464393D01*
X837417Y464590D01*
X799500D01*
X798509Y464393D01*
X797669Y463831D01*
X797107Y462991D01*
X796910Y462000D01*
Y425234D01*
X795737Y424748D01*
X795399Y425087D01*
X793194Y426000D01*
X790807D01*
X788601Y425087D01*
X787083Y423569D01*
X782000D01*
Y463500D01*
X757000D01*
Y427104D01*
X750500D01*
X750113Y427053D01*
X748843Y427213D01*
Y429750D01*
X753000D01*
Y445250D01*
X722000D01*
Y429750D01*
X727157D01*
Y427039D01*
X725003D01*
X724222Y426884D01*
X723304Y426503D01*
X722642Y426061D01*
X721939Y425358D01*
X721497Y424697D01*
X721116Y423778D01*
X720961Y422997D01*
Y407003D01*
X721116Y406222D01*
X721497Y405303D01*
X721939Y404642D01*
X721939Y404642D01*
X722642Y403939D01*
X723304Y403497D01*
X724222Y403116D01*
X725003Y402961D01*
X750011D01*
X750500Y402896D01*
X757000D01*
Y401500D01*
X782000D01*
Y416431D01*
X787083D01*
X788601Y414913D01*
X790807Y414000D01*
X793194D01*
X795399Y414913D01*
X795737Y415252D01*
X796910Y414766D01*
Y403000D01*
X797107Y402009D01*
X797635Y401219D01*
X797616Y401191D01*
X797461Y400410D01*
Y372500D01*
X797461Y371515D01*
X797500Y371318D01*
Y371117D01*
X797884Y369185D01*
X797961Y369000D01*
X798000Y368803D01*
X798754Y366983D01*
X798866Y366816D01*
X798942Y366630D01*
X800037Y364992D01*
X800179Y364850D01*
X800291Y364683D01*
X801683Y363290D01*
X801850Y363179D01*
X801992Y363037D01*
X803630Y361943D01*
X803816Y361866D01*
X803983Y361754D01*
X805803Y361000D01*
X806000Y360961D01*
X806185Y360884D01*
X808117Y360500D01*
X808318D01*
X808515Y360461D01*
X809500Y360461D01*
X957500Y360461D01*
X967500Y360461D01*
X967500Y360461D01*
X968485D01*
X968682Y360500D01*
X968883D01*
X970815Y360884D01*
X971000Y360961D01*
X971197Y361000D01*
X973017Y361754D01*
X973184Y361866D01*
X973370Y361943D01*
X975007Y363037D01*
X975150Y363179D01*
X975316Y363291D01*
X976709Y364683D01*
X976821Y364851D01*
X976963Y364992D01*
X978057Y366630D01*
X978134Y366816D01*
X978246Y366983D01*
X979000Y368803D01*
X979039Y369000D01*
X979116Y369185D01*
X979500Y371117D01*
Y371318D01*
X979539Y371515D01*
Y372500D01*
X979539Y697500D01*
Y698494D01*
X979384Y699275D01*
X979384Y699275D01*
X978623Y701113D01*
X978623Y701113D01*
X978181Y701774D01*
X976774Y703181D01*
X976113Y703623D01*
X974275Y704384D01*
X974275Y704384D01*
X973495Y704539D01*
X962498D01*
X962497Y704539D01*
X947875D01*
X943012Y704539D01*
X937575Y704605D01*
X937563Y704603D01*
X937551Y704605D01*
X936546D01*
X935766Y704450D01*
X933909Y703681D01*
X933248Y703239D01*
X931827Y701818D01*
X931385Y701157D01*
X930616Y699300D01*
X930461Y698520D01*
Y697515D01*
X930461Y640101D01*
X930404Y639525D01*
X929929Y638377D01*
X929123Y637571D01*
X927974Y637096D01*
X927400Y637039D01*
X925000Y637039D01*
X925000Y637039D01*
X924005Y637039D01*
X923225Y636884D01*
X923225Y636884D01*
X921387Y636123D01*
X920726Y635681D01*
X919319Y634274D01*
X918877Y633613D01*
X918116Y631775D01*
X918116Y631775D01*
X917961Y630994D01*
Y630770D01*
X916898Y629500D01*
X905500D01*
Y626069D01*
X899500D01*
Y629500D01*
X886500D01*
Y615500D01*
X899500D01*
Y618931D01*
X905500D01*
Y615500D01*
X917961D01*
Y594050D01*
X917934Y593515D01*
X917716Y592418D01*
X917307Y591430D01*
X916714Y590542D01*
X915958Y589786D01*
X915070Y589193D01*
X914082Y588784D01*
X912985Y588565D01*
X912450Y588539D01*
X898000D01*
Y592000D01*
X867000D01*
Y590419D01*
X865730Y589571D01*
X864694Y590000D01*
X862307D01*
X860215Y589133D01*
X859000Y589000D01*
X859000Y589000D01*
X859000Y589000D01*
X850500D01*
Y588500D01*
X849250D01*
Y579500D01*
X847250D01*
Y588500D01*
X842750D01*
Y579500D01*
X840750D01*
Y588500D01*
X840006D01*
Y589500D01*
X839809Y590491D01*
X839248Y591331D01*
X838408Y591893D01*
X837417Y592090D01*
X799500D01*
X798509Y591893D01*
X797669Y591331D01*
X797107Y590491D01*
X796910Y589500D01*
Y552734D01*
X795737Y552248D01*
X795399Y552587D01*
X793194Y553500D01*
X790807D01*
X788601Y552587D01*
X787083Y551069D01*
X782000D01*
Y591000D01*
X757000D01*
Y554604D01*
X750000D01*
X749613Y554553D01*
X748343Y554712D01*
Y557250D01*
X753000D01*
Y572750D01*
X722000D01*
Y557250D01*
X726657D01*
Y554539D01*
X724503D01*
X723722Y554384D01*
X722803Y554003D01*
X722142Y553561D01*
X721439Y552858D01*
X720997Y552197D01*
X720741Y551578D01*
X714246D01*
X709578Y556246D01*
Y658311D01*
X766984Y715716D01*
X766984Y715716D01*
X767868Y717039D01*
X768178Y718600D01*
Y769830D01*
X770547Y771198D01*
X772502Y773153D01*
X773884Y775547D01*
X774600Y778218D01*
Y780982D01*
X773884Y783653D01*
X772502Y786047D01*
X770547Y788002D01*
X768153Y789384D01*
X765482Y790100D01*
X762718D01*
X760047Y789384D01*
X757653Y788002D01*
X755698Y786047D01*
X755574Y785832D01*
X754304Y786172D01*
Y787500D01*
X754090Y788573D01*
X753483Y789483D01*
X748533Y794433D01*
X747623Y795040D01*
X746550Y795254D01*
X745273D01*
X744944Y796481D01*
X745147Y796598D01*
X747102Y798553D01*
X748484Y800947D01*
X749200Y803618D01*
Y806382D01*
X748484Y809053D01*
X747102Y811447D01*
X745147Y813402D01*
X742753Y814784D01*
X740082Y815500D01*
X737318D01*
X734647Y814784D01*
X733527Y814138D01*
X728183Y819483D01*
X727273Y820090D01*
X726200Y820304D01*
X718750D01*
X718498Y820354D01*
D02*
G37*
G36*
X572000Y816582D02*
X569520Y816255D01*
X567209Y815298D01*
X565224Y813775D01*
X563702Y811791D01*
X562903Y809863D01*
X436097D01*
X435298Y811791D01*
X433775Y813775D01*
X431791Y815298D01*
X429480Y816255D01*
X427000Y816582D01*
X424520Y816255D01*
X422209Y815298D01*
X420224Y813775D01*
X418702Y811791D01*
X417744Y809480D01*
X417418Y807000D01*
Y801000D01*
X417744Y798520D01*
X418702Y796209D01*
X420224Y794224D01*
X421137Y793524D01*
Y758976D01*
X420224Y758275D01*
X418702Y756291D01*
X417744Y753980D01*
X417418Y751500D01*
Y736500D01*
X417744Y734020D01*
X418702Y731709D01*
X420224Y729725D01*
X422209Y728202D01*
X424520Y727244D01*
X427000Y726918D01*
X429480Y727244D01*
X431791Y728202D01*
X433775Y729725D01*
X435298Y731709D01*
X436255Y734020D01*
X436582Y736500D01*
Y751500D01*
X436255Y753980D01*
X435298Y756291D01*
X433775Y758275D01*
X432863Y758976D01*
Y793524D01*
X433775Y794224D01*
X435298Y796209D01*
X436097Y798137D01*
X562903D01*
X563702Y796209D01*
X565224Y794224D01*
X566137Y793524D01*
Y758976D01*
X565224Y758275D01*
X563702Y756291D01*
X562744Y753980D01*
X562418Y751500D01*
Y736500D01*
X562744Y734020D01*
X563702Y731709D01*
X565224Y729725D01*
X567209Y728202D01*
X569520Y727244D01*
X572000Y726918D01*
X574480Y727244D01*
X576791Y728202D01*
X578775Y729725D01*
X580298Y731709D01*
X581255Y734020D01*
X581582Y736500D01*
Y751500D01*
X581255Y753980D01*
X580298Y756291D01*
X578775Y758275D01*
X577863Y758976D01*
Y768883D01*
X583750D01*
Y766000D01*
X598250D01*
Y784000D01*
X583750D01*
Y781117D01*
X577863D01*
Y793524D01*
X578775Y794224D01*
X580298Y796209D01*
X580991Y797883D01*
X583250D01*
Y795000D01*
X596750D01*
Y813000D01*
X583250D01*
Y810117D01*
X580991D01*
X580298Y811791D01*
X578775Y813775D01*
X576791Y815298D01*
X574480Y816255D01*
X572000Y816582D01*
D02*
G37*
G36*
X765600Y815469D02*
Y806500D01*
X774568D01*
X773884Y809053D01*
X772502Y811447D01*
X770547Y813402D01*
X768153Y814784D01*
X765600Y815469D01*
D02*
G37*
G36*
X762600D02*
X760047Y814784D01*
X757653Y813402D01*
X755698Y811447D01*
X754316Y809053D01*
X753632Y806500D01*
X762600D01*
Y815469D01*
D02*
G37*
G36*
X616250Y812500D02*
X611000D01*
Y805000D01*
X616250D01*
Y812500D01*
D02*
G37*
G36*
X609000D02*
X603750D01*
Y805000D01*
X609000D01*
Y812500D01*
D02*
G37*
G36*
X173817Y820000D02*
X171183D01*
X168640Y819318D01*
X166360Y818002D01*
X164498Y816140D01*
X163181Y813860D01*
X162500Y811317D01*
Y808683D01*
X163181Y806140D01*
X164498Y803860D01*
X166360Y801998D01*
X168640Y800682D01*
X171183Y800000D01*
X173817D01*
X176360Y800682D01*
X178640Y801998D01*
X180502Y803860D01*
X181819Y806140D01*
X182500Y808683D01*
Y811317D01*
X181819Y813860D01*
X180502Y816140D01*
X178640Y818002D01*
X176360Y819318D01*
X173817Y820000D01*
D02*
G37*
G36*
X73816D02*
X71184D01*
X68640Y819318D01*
X66360Y818002D01*
X64498Y816140D01*
X63182Y813860D01*
X62500Y811317D01*
Y808683D01*
X63182Y806140D01*
X64498Y803860D01*
X66360Y801998D01*
X68640Y800682D01*
X71184Y800000D01*
X73816D01*
X76360Y800682D01*
X78640Y801998D01*
X80502Y803860D01*
X81819Y806140D01*
X82500Y808683D01*
Y811317D01*
X81819Y813860D01*
X80502Y816140D01*
X78640Y818002D01*
X76360Y819318D01*
X73816Y820000D01*
D02*
G37*
G36*
X139349Y808000D02*
X124500D01*
Y796888D01*
X126500D01*
X129894Y797335D01*
X133056Y798644D01*
X135772Y800728D01*
X137856Y803444D01*
X139165Y806606D01*
X139349Y808000D01*
D02*
G37*
G36*
X120500D02*
X105651D01*
X105835Y806606D01*
X107144Y803444D01*
X109228Y800728D01*
X111944Y798644D01*
X115106Y797335D01*
X118500Y796888D01*
X120500D01*
Y808000D01*
D02*
G37*
G36*
X616250Y803000D02*
X611000D01*
Y795500D01*
X616250D01*
Y803000D01*
D02*
G37*
G36*
X609000D02*
X603750D01*
Y795500D01*
X609000D01*
Y803000D01*
D02*
G37*
G36*
X774568Y803500D02*
X765600D01*
Y794532D01*
X768153Y795216D01*
X770547Y796598D01*
X772502Y798553D01*
X773884Y800947D01*
X774568Y803500D01*
D02*
G37*
G36*
X762600D02*
X753632D01*
X754316Y800947D01*
X755698Y798553D01*
X757653Y796598D01*
X760047Y795216D01*
X762600Y794532D01*
Y803500D01*
D02*
G37*
G36*
X790882Y815500D02*
X788118D01*
X785447Y814784D01*
X783053Y813402D01*
X781098Y811447D01*
X779716Y809053D01*
X779000Y806382D01*
Y803618D01*
X779716Y800947D01*
X781098Y798553D01*
X783053Y796598D01*
X785447Y795216D01*
X788118Y794500D01*
X790882D01*
X793553Y795216D01*
X795947Y796598D01*
X797902Y798553D01*
X799284Y800947D01*
X800000Y803618D01*
Y806382D01*
X799284Y809053D01*
X797902Y811447D01*
X795947Y813402D01*
X793553Y814784D01*
X790882Y815500D01*
D02*
G37*
G36*
X971773Y828000D02*
X968227D01*
X964750Y827308D01*
X961474Y825951D01*
X958526Y823981D01*
X956019Y821474D01*
X954049Y818526D01*
X952692Y815250D01*
X952000Y811773D01*
Y808227D01*
X952692Y804750D01*
X954049Y801474D01*
X956019Y798526D01*
X958526Y796019D01*
X961474Y794049D01*
X964750Y792692D01*
X968227Y792000D01*
X971773D01*
X975250Y792692D01*
X978526Y794049D01*
X981474Y796019D01*
X983981Y798526D01*
X985951Y801474D01*
X987308Y804750D01*
X988000Y808227D01*
Y811773D01*
X987308Y815250D01*
X985951Y818526D01*
X983981Y821474D01*
X981474Y823981D01*
X978526Y825951D01*
X975250Y827308D01*
X971773Y828000D01*
D02*
G37*
G36*
X31773D02*
X28227D01*
X24750Y827308D01*
X21474Y825951D01*
X18526Y823981D01*
X16019Y821474D01*
X14049Y818526D01*
X12692Y815250D01*
X12000Y811773D01*
Y808227D01*
X12692Y804750D01*
X14049Y801474D01*
X16019Y798526D01*
X18526Y796019D01*
X21474Y794049D01*
X24750Y792692D01*
X28227Y792000D01*
X31773D01*
X35250Y792692D01*
X38526Y794049D01*
X41474Y796019D01*
X43981Y798526D01*
X45951Y801474D01*
X47308Y804750D01*
X48000Y808227D01*
Y811773D01*
X47308Y815250D01*
X45951Y818526D01*
X43981Y821474D01*
X41474Y823981D01*
X38526Y825951D01*
X35250Y827308D01*
X31773Y828000D01*
D02*
G37*
G36*
X615750Y783500D02*
X610000D01*
Y776000D01*
X615750D01*
Y783500D01*
D02*
G37*
G36*
X608000D02*
X602250D01*
Y776000D01*
X608000D01*
Y783500D01*
D02*
G37*
G36*
X172500Y777112D02*
X169106Y776665D01*
X165944Y775356D01*
X163228Y773272D01*
X161145Y770556D01*
X160635Y769326D01*
X159365D01*
X158855Y770556D01*
X156772Y773272D01*
X154056Y775356D01*
X150894Y776665D01*
X147500Y777112D01*
X144106Y776665D01*
X140944Y775356D01*
X138228Y773272D01*
X136145Y770556D01*
X134835Y767394D01*
X134388Y764000D01*
Y756000D01*
X134835Y752606D01*
X136145Y749444D01*
X138228Y746728D01*
X140944Y744644D01*
X144106Y743335D01*
X147500Y742888D01*
X150894Y743335D01*
X154056Y744644D01*
X156772Y746728D01*
X158855Y749444D01*
X159365Y750674D01*
X160635D01*
X161145Y749444D01*
X163228Y746728D01*
X164642Y745644D01*
X164725Y744376D01*
X150674Y730326D01*
X149348Y728341D01*
X148883Y726000D01*
Y719750D01*
X140750D01*
Y692250D01*
X169250D01*
Y719750D01*
X161117D01*
Y723466D01*
X176826Y739174D01*
X178152Y741159D01*
X178617Y743500D01*
Y744463D01*
X179056Y744644D01*
X181772Y746728D01*
X183855Y749444D01*
X185165Y752606D01*
X185612Y756000D01*
Y764000D01*
X185165Y767394D01*
X183855Y770556D01*
X181772Y773272D01*
X179056Y775356D01*
X175894Y776665D01*
X172500Y777112D01*
D02*
G37*
G36*
X97500D02*
X94106Y776665D01*
X90944Y775356D01*
X88228Y773272D01*
X86145Y770556D01*
X85635Y769326D01*
X84365D01*
X83855Y770556D01*
X81772Y773272D01*
X79056Y775356D01*
X75894Y776665D01*
X72500Y777112D01*
X69106Y776665D01*
X65944Y775356D01*
X63228Y773272D01*
X61144Y770556D01*
X59835Y767394D01*
X59388Y764000D01*
Y756000D01*
X59835Y752606D01*
X61144Y749444D01*
X63228Y746728D01*
X65944Y744644D01*
X66716Y744325D01*
X66848Y743659D01*
X68174Y741674D01*
X86383Y723466D01*
Y719750D01*
X78250D01*
Y692250D01*
X106750D01*
Y719750D01*
X98617D01*
Y726000D01*
X98152Y728341D01*
X96826Y730326D01*
X81689Y745463D01*
X81772Y746728D01*
X83855Y749444D01*
X84365Y750674D01*
X85635D01*
X86145Y749444D01*
X88228Y746728D01*
X90944Y744644D01*
X94106Y743335D01*
X97500Y742888D01*
X100894Y743335D01*
X104056Y744644D01*
X106772Y746728D01*
X108855Y749444D01*
X110165Y752606D01*
X110612Y756000D01*
Y764000D01*
X110165Y767394D01*
X108855Y770556D01*
X106772Y773272D01*
X104056Y775356D01*
X100894Y776665D01*
X97500Y777112D01*
D02*
G37*
G36*
X790882Y790100D02*
X788118D01*
X785447Y789384D01*
X783053Y788002D01*
X781098Y786047D01*
X779716Y783653D01*
X779000Y780982D01*
Y778218D01*
X779716Y775547D01*
X781098Y773153D01*
X783053Y771198D01*
X785447Y769816D01*
X788118Y769100D01*
X790882D01*
X793553Y769816D01*
X795947Y771198D01*
X797902Y773153D01*
X799284Y775547D01*
X800000Y778218D01*
Y780982D01*
X799284Y783653D01*
X797902Y786047D01*
X795947Y788002D01*
X793553Y789384D01*
X790882Y790100D01*
D02*
G37*
G36*
X906000Y773086D02*
X899000D01*
Y767000D01*
X915167D01*
X914735Y768043D01*
X913132Y770132D01*
X911043Y771735D01*
X908611Y772743D01*
X906000Y773086D01*
D02*
G37*
G36*
X891000D02*
X884000D01*
X881389Y772743D01*
X878957Y771735D01*
X876868Y770132D01*
X875265Y768043D01*
X874833Y767000D01*
X891000D01*
Y773086D01*
D02*
G37*
G36*
X615750Y774000D02*
X610000D01*
Y766500D01*
X615750D01*
Y774000D01*
D02*
G37*
G36*
X608000D02*
X602250D01*
Y766500D01*
X608000D01*
Y774000D01*
D02*
G37*
G36*
X376997Y792039D02*
X361003D01*
X360222Y791884D01*
X360222Y791884D01*
X359304Y791503D01*
X359304Y791503D01*
X358642Y791061D01*
X358642Y791061D01*
X357939Y790358D01*
X357497Y789697D01*
X357116Y788778D01*
X356961Y787997D01*
Y782003D01*
X357116Y781222D01*
X357497Y780303D01*
X357939Y779642D01*
X357939Y779642D01*
X358642Y778939D01*
X359304Y778497D01*
X360222Y778116D01*
X361003Y777961D01*
X363137D01*
Y776000D01*
X361000D01*
Y754000D01*
X377000D01*
Y776000D01*
X374863D01*
Y777961D01*
X376997D01*
X377778Y778116D01*
X378697Y778497D01*
X379358Y778939D01*
X379358Y778939D01*
X380061Y779642D01*
X380503Y780303D01*
X380503Y780304D01*
X380884Y781222D01*
X381039Y782003D01*
Y787997D01*
X380884Y788778D01*
X380884Y788778D01*
X380503Y789696D01*
X380503Y789697D01*
X380061Y790358D01*
X380061Y790358D01*
X379358Y791061D01*
X378697Y791503D01*
X377778Y791884D01*
X377778Y791884D01*
X376997Y792039D01*
D02*
G37*
G36*
X239000Y760750D02*
X229500D01*
Y754000D01*
X239000D01*
Y760750D01*
D02*
G37*
G36*
X226500D02*
X217000D01*
Y754000D01*
X226500D01*
Y760750D01*
D02*
G37*
G36*
X915167Y759000D02*
X899000D01*
Y752914D01*
X906000D01*
X908611Y753257D01*
X911043Y754265D01*
X913132Y755868D01*
X914735Y757957D01*
X915167Y759000D01*
D02*
G37*
G36*
X891000D02*
X874833D01*
X875265Y757957D01*
X876868Y755868D01*
X878957Y754265D01*
X881389Y753257D01*
X884000Y752914D01*
X891000D01*
Y759000D01*
D02*
G37*
G36*
X123816Y770000D02*
X121184D01*
X118640Y769318D01*
X116360Y768002D01*
X114498Y766140D01*
X113181Y763860D01*
X112500Y761317D01*
Y758683D01*
X113181Y756140D01*
X114498Y753860D01*
X116360Y751998D01*
X118640Y750682D01*
X121184Y750000D01*
X123816D01*
X126360Y750682D01*
X128640Y751998D01*
X130502Y753860D01*
X131819Y756140D01*
X132500Y758683D01*
Y761317D01*
X131819Y763860D01*
X130502Y766140D01*
X128640Y768002D01*
X126360Y769318D01*
X123816Y770000D01*
D02*
G37*
G36*
X283500Y755250D02*
X274000D01*
Y749000D01*
X283500D01*
Y755250D01*
D02*
G37*
G36*
X271000D02*
X261500D01*
Y749000D01*
X271000D01*
Y755250D01*
D02*
G37*
G36*
X239000Y751000D02*
X229500D01*
Y744250D01*
X239000D01*
Y751000D01*
D02*
G37*
G36*
X226500D02*
X217000D01*
Y744250D01*
X226500D01*
Y751000D01*
D02*
G37*
G36*
X337000Y746500D02*
X331500D01*
Y741500D01*
X337000D01*
Y746500D01*
D02*
G37*
G36*
X329500D02*
X324000D01*
Y741500D01*
X329500D01*
Y746500D01*
D02*
G37*
G36*
X311000D02*
X305500D01*
Y741500D01*
X311000D01*
Y746500D01*
D02*
G37*
G36*
X303500D02*
X298000D01*
Y741500D01*
X303500D01*
Y746500D01*
D02*
G37*
G36*
X617500Y764556D02*
X615803Y764333D01*
X614222Y763678D01*
X612864Y762636D01*
X611822Y761278D01*
X611167Y759697D01*
X610944Y758000D01*
Y754500D01*
X610500D01*
Y741500D01*
X617074D01*
X617500Y741444D01*
X617926Y741500D01*
X624500D01*
Y754500D01*
X624056D01*
Y758000D01*
X623833Y759697D01*
X623178Y761278D01*
X622136Y762636D01*
X620778Y763678D01*
X619197Y764333D01*
X617500Y764556D01*
D02*
G37*
G36*
X386750Y748500D02*
X381000D01*
Y741000D01*
X386750D01*
Y748500D01*
D02*
G37*
G36*
X379000D02*
X373250D01*
Y741000D01*
X379000D01*
Y748500D01*
D02*
G37*
G36*
X283500Y746000D02*
X274000D01*
Y739750D01*
X283500D01*
Y746000D01*
D02*
G37*
G36*
X271000D02*
X261500D01*
Y739750D01*
X271000D01*
Y746000D01*
D02*
G37*
G36*
X852000Y753167D02*
Y737000D01*
X858086D01*
Y744000D01*
X857743Y746610D01*
X856735Y749043D01*
X855132Y751132D01*
X853043Y752735D01*
X852000Y753167D01*
D02*
G37*
G36*
X844000Y753167D02*
X842957Y752735D01*
X840868Y751132D01*
X839265Y749043D01*
X838257Y746610D01*
X837914Y744000D01*
Y737000D01*
X844000D01*
Y753167D01*
D02*
G37*
G36*
X337000Y739500D02*
X331500D01*
Y734500D01*
X337000D01*
Y739500D01*
D02*
G37*
G36*
X329500D02*
X324000D01*
Y734500D01*
X329500D01*
Y739500D01*
D02*
G37*
G36*
X311000Y739500D02*
X305500D01*
Y734500D01*
X311000D01*
Y739500D01*
D02*
G37*
G36*
X303500D02*
X298000D01*
Y734500D01*
X303500D01*
Y739500D01*
D02*
G37*
G36*
X386750Y739000D02*
X381000D01*
Y731500D01*
X386750D01*
Y739000D01*
D02*
G37*
G36*
X379000D02*
X373250D01*
Y731500D01*
X379000D01*
Y739000D01*
D02*
G37*
G36*
X383000Y723250D02*
X373500D01*
Y716500D01*
X383000D01*
Y723250D01*
D02*
G37*
G36*
X370500D02*
X361000D01*
Y716500D01*
X370500D01*
Y723250D01*
D02*
G37*
G36*
X858086Y729000D02*
X852000D01*
Y712833D01*
X853043Y713265D01*
X855132Y714868D01*
X856735Y716957D01*
X857743Y719389D01*
X858086Y722000D01*
Y729000D01*
D02*
G37*
G36*
X844000D02*
X837914D01*
Y722000D01*
X838257Y719389D01*
X839265Y716957D01*
X840868Y714868D01*
X842957Y713265D01*
X844000Y712833D01*
Y729000D01*
D02*
G37*
G36*
X556000Y710500D02*
X551250D01*
Y708500D01*
X556000D01*
Y710500D01*
D02*
G37*
G36*
X383000Y713500D02*
X373500D01*
Y706750D01*
X383000D01*
Y713500D01*
D02*
G37*
G36*
X370500D02*
X361000D01*
Y706750D01*
X370500D01*
Y713500D01*
D02*
G37*
G36*
X624000Y703250D02*
X618500D01*
Y698000D01*
X624000D01*
Y703250D01*
D02*
G37*
G36*
X616500D02*
X611000D01*
Y698000D01*
X616500D01*
Y703250D01*
D02*
G37*
G36*
X311500Y731000D02*
X297500D01*
Y718000D01*
X300931D01*
Y697250D01*
X293500D01*
Y692569D01*
X282000D01*
X280770Y692324D01*
X280394Y692408D01*
X279500Y692886D01*
Y702000D01*
X276069D01*
Y709750D01*
X283500D01*
Y725250D01*
X261500D01*
Y709750D01*
X268931D01*
Y702000D01*
X265500D01*
Y699069D01*
X259500D01*
Y702000D01*
X245500D01*
Y689000D01*
X259500D01*
Y691931D01*
X265500D01*
Y689000D01*
X275294D01*
X275780Y687827D01*
X273953Y686000D01*
X265500D01*
Y673000D01*
X279500D01*
Y681453D01*
X283478Y685431D01*
X293500D01*
Y680750D01*
X315500D01*
Y697250D01*
X308069D01*
Y718000D01*
X311500D01*
Y731000D01*
D02*
G37*
G36*
X624000Y696000D02*
X618500D01*
Y690750D01*
X624000D01*
Y696000D01*
D02*
G37*
G36*
X616500D02*
X611000D01*
Y690750D01*
X616500D01*
Y696000D01*
D02*
G37*
G36*
X337500Y731000D02*
X323500D01*
Y718000D01*
X326931D01*
Y697250D01*
X319500D01*
Y680750D01*
X341500D01*
Y685481D01*
X353250D01*
Y684050D01*
X372750D01*
Y694050D01*
X353250D01*
Y692619D01*
X341500D01*
Y697250D01*
X334069D01*
Y718000D01*
X337500D01*
Y731000D01*
D02*
G37*
G36*
X372250Y680850D02*
X364000D01*
Y677350D01*
X372250D01*
Y680850D01*
D02*
G37*
G36*
X362000D02*
X353750D01*
Y677350D01*
X362000D01*
Y680850D01*
D02*
G37*
G36*
X210497Y779539D02*
X194503D01*
X193722Y779384D01*
X193722Y779384D01*
X192804Y779003D01*
X192803Y779003D01*
X192142Y778561D01*
X192142Y778561D01*
X191439Y777858D01*
X190997Y777197D01*
X190616Y776278D01*
X190461Y775497D01*
Y769503D01*
X190616Y768722D01*
X190997Y767803D01*
X191439Y767142D01*
X191439Y767142D01*
X192142Y766439D01*
X192803Y765997D01*
X193722Y765616D01*
X194503Y765461D01*
X196137D01*
Y760750D01*
X191000D01*
Y744250D01*
X197667D01*
Y708000D01*
X197997Y706342D01*
X198936Y704936D01*
X200917Y702955D01*
Y692000D01*
X201000Y691581D01*
Y682500D01*
X205044D01*
X205530Y681327D01*
X202772Y678569D01*
X125000D01*
X123634Y678297D01*
X122477Y677523D01*
X102703Y657750D01*
X78250D01*
Y630250D01*
X106750D01*
Y651703D01*
X126478Y671431D01*
X204250D01*
X205616Y671703D01*
X206773Y672477D01*
X214129Y679832D01*
X214715Y679920D01*
X215680Y679796D01*
X215727Y679727D01*
X218477Y676977D01*
X219634Y676203D01*
X221000Y675931D01*
X245500D01*
Y673000D01*
X259500D01*
Y686000D01*
X245500D01*
Y683069D01*
X229000D01*
Y688431D01*
X234500D01*
X235866Y688703D01*
X236310Y689000D01*
X238694D01*
X240899Y689913D01*
X242587Y691601D01*
X243500Y693807D01*
Y696193D01*
X242587Y698399D01*
X240899Y700087D01*
X238694Y701000D01*
X236306D01*
X234101Y700087D01*
X232414Y698399D01*
X231500Y696193D01*
Y695569D01*
X229000D01*
Y701500D01*
X224206D01*
X223720Y702673D01*
X230523Y709477D01*
X231297Y710634D01*
X231569Y712000D01*
Y713000D01*
X234500D01*
Y727000D01*
X221500D01*
Y713000D01*
X222294D01*
X222780Y711827D01*
X216589Y705635D01*
X215319Y706161D01*
Y713000D01*
X218500D01*
Y727000D01*
X206333D01*
Y744250D01*
X213000D01*
Y760750D01*
X207863D01*
Y765461D01*
X210497D01*
X211278Y765616D01*
X212197Y765997D01*
X212858Y766439D01*
X212858Y766439D01*
X213561Y767142D01*
X214003Y767803D01*
X214003Y767804D01*
X214384Y768722D01*
X214539Y769503D01*
Y775497D01*
X214384Y776278D01*
X214384Y776278D01*
X214003Y777196D01*
X214003Y777197D01*
X213561Y777858D01*
X213561Y777858D01*
X212858Y778561D01*
X212197Y779003D01*
X211278Y779384D01*
X211278Y779384D01*
X210497Y779539D01*
D02*
G37*
G36*
X372250Y675350D02*
X364000D01*
Y671850D01*
X372250D01*
Y675350D01*
D02*
G37*
G36*
X362000D02*
X353750D01*
Y671850D01*
X362000D01*
Y675350D01*
D02*
G37*
G36*
X406000Y776000D02*
X390000D01*
Y754000D01*
X393412D01*
Y749000D01*
X390750D01*
Y731000D01*
X392912D01*
Y723250D01*
X387000D01*
Y706750D01*
X392912D01*
Y678901D01*
X382249Y668238D01*
X372750D01*
Y668650D01*
X353250D01*
Y658650D01*
X372750D01*
Y659062D01*
X384150D01*
X385906Y659411D01*
X387394Y660406D01*
X400744Y673756D01*
X401739Y675244D01*
X402088Y677000D01*
Y706750D01*
X409000D01*
Y723250D01*
X402088D01*
Y731000D01*
X405250D01*
Y749000D01*
X402588D01*
Y754000D01*
X406000D01*
Y776000D01*
D02*
G37*
G36*
X539100Y696750D02*
X530900D01*
Y687250D01*
X531431D01*
Y674500D01*
X528000D01*
Y661500D01*
X542000D01*
Y674500D01*
X538569D01*
Y687250D01*
X539100D01*
Y696750D01*
D02*
G37*
G36*
X279500Y667000D02*
X265500D01*
Y654000D01*
X273953D01*
X275780Y652173D01*
X275294Y651000D01*
X265500D01*
Y648069D01*
X259500D01*
Y651000D01*
X245500D01*
Y638000D01*
X259500D01*
Y640931D01*
X265500D01*
Y638000D01*
X279500D01*
Y638294D01*
X280673Y638780D01*
X286431Y633022D01*
Y628500D01*
X282250D01*
Y606500D01*
X297750D01*
Y628500D01*
X293569D01*
Y634500D01*
X293297Y635866D01*
X292523Y637023D01*
X282523Y647023D01*
X282363Y647131D01*
X282518Y648550D01*
X282971Y648544D01*
X284101Y647413D01*
X286306Y646500D01*
X288694D01*
X290899Y647413D01*
X292230Y648745D01*
X293500Y648481D01*
Y644250D01*
X315500D01*
Y660750D01*
X293500D01*
Y656519D01*
X292230Y656255D01*
X290899Y657587D01*
X288694Y658500D01*
X286306D01*
X284101Y657587D01*
X282583Y656069D01*
X281978D01*
X279500Y658547D01*
Y667000D01*
D02*
G37*
G36*
X908500Y711086D02*
X881500D01*
X878889Y710743D01*
X876457Y709735D01*
X874368Y708132D01*
X872765Y706043D01*
X871757Y703611D01*
X871414Y701000D01*
X871757Y698390D01*
X872765Y695957D01*
X874368Y693868D01*
X876457Y692265D01*
X878889Y691257D01*
X881500Y690914D01*
X883905D01*
Y686500D01*
X884283Y683628D01*
X885391Y680953D01*
X887155Y678655D01*
X894905Y670904D01*
Y667250D01*
X892250D01*
Y647750D01*
X919750D01*
Y667250D01*
X917095D01*
Y675500D01*
X916717Y678372D01*
X915609Y681048D01*
X913845Y683345D01*
X907450Y689740D01*
X907936Y690914D01*
X908500D01*
X911111Y691257D01*
X913543Y692265D01*
X915632Y693868D01*
X917235Y695957D01*
X918243Y698390D01*
X918586Y701000D01*
X918243Y703611D01*
X917235Y706043D01*
X915632Y708132D01*
X913543Y709735D01*
X911111Y710743D01*
X908500Y711086D01*
D02*
G37*
G36*
X259500Y667000D02*
X245500D01*
Y664069D01*
X215000D01*
X213634Y663797D01*
X212477Y663023D01*
X209227Y659773D01*
X208453Y658616D01*
X208231Y657500D01*
X201000D01*
Y651569D01*
X190000D01*
X188634Y651297D01*
X187477Y650523D01*
X184522Y647569D01*
X169250D01*
Y657750D01*
X140750D01*
Y630250D01*
X169250D01*
Y640432D01*
X186000D01*
X187366Y640703D01*
X188523Y641477D01*
X191478Y644431D01*
X201000D01*
Y639047D01*
X200522Y638569D01*
X196250D01*
X194884Y638297D01*
X193727Y637523D01*
X189477Y633273D01*
X188703Y632116D01*
X188431Y630750D01*
Y629500D01*
X185500D01*
Y615500D01*
X198500D01*
Y629500D01*
X197806D01*
X197281Y630697D01*
X197871Y631431D01*
X202000D01*
X203366Y631703D01*
X203377Y631711D01*
X204520Y630947D01*
X204431Y630500D01*
Y629500D01*
X201500D01*
Y615500D01*
X214500D01*
Y629500D01*
X213706D01*
X213220Y630673D01*
X214273Y631727D01*
X214403Y631921D01*
X214978Y632054D01*
X215971Y631982D01*
X219977Y627977D01*
X221134Y627203D01*
X222055Y627020D01*
X221930Y625750D01*
X221000D01*
Y609250D01*
X243000D01*
Y625750D01*
X235569D01*
Y627000D01*
X235297Y628366D01*
X234523Y629523D01*
X231023Y633023D01*
X229866Y633797D01*
X228500Y634069D01*
X223978D01*
X221819Y636228D01*
Y638500D01*
X222500D01*
Y639000D01*
X222500D01*
Y648000D01*
X224750D01*
Y650250D01*
X228500D01*
Y656932D01*
X245500D01*
Y654000D01*
X259500D01*
Y667000D01*
D02*
G37*
G36*
X341500Y660750D02*
X319500D01*
Y644250D01*
X341500D01*
Y648481D01*
X342770Y648745D01*
X344101Y647413D01*
X346306Y646500D01*
X348694D01*
X350821Y647381D01*
X353250D01*
Y645950D01*
X372750D01*
Y655950D01*
X353250D01*
X353250Y655950D01*
X352143Y656343D01*
X350899Y657587D01*
X348694Y658500D01*
X346306D01*
X344101Y657587D01*
X342770Y656255D01*
X341500Y656519D01*
Y660750D01*
D02*
G37*
G36*
X228500Y645750D02*
X227000D01*
Y639000D01*
X228500D01*
Y645750D01*
D02*
G37*
G36*
X599500Y658500D02*
X585500D01*
Y645500D01*
X586637D01*
Y641525D01*
X586500Y641193D01*
Y638806D01*
X587413Y636601D01*
X589101Y634913D01*
X591306Y634000D01*
X593694D01*
X595899Y634913D01*
X597587Y636601D01*
X598500Y638806D01*
Y641193D01*
X598363Y641525D01*
Y645500D01*
X599500D01*
Y658500D01*
D02*
G37*
G36*
X883000Y629000D02*
X878000D01*
Y623500D01*
X883000D01*
Y629000D01*
D02*
G37*
G36*
X876000D02*
X871000D01*
Y623500D01*
X876000D01*
Y629000D01*
D02*
G37*
G36*
X327750Y628500D02*
X321500D01*
Y619000D01*
X327750D01*
Y628500D01*
D02*
G37*
G36*
X318500D02*
X312250D01*
Y619000D01*
X318500D01*
Y628500D01*
D02*
G37*
G36*
X269000Y625750D02*
X259500D01*
Y619000D01*
X269000D01*
Y625750D01*
D02*
G37*
G36*
X256500D02*
X247000D01*
Y619000D01*
X256500D01*
Y625750D01*
D02*
G37*
G36*
X883000Y621500D02*
X878000D01*
Y616000D01*
X883000D01*
Y621500D01*
D02*
G37*
G36*
X876000D02*
X871000D01*
Y616000D01*
X876000D01*
Y621500D01*
D02*
G37*
G36*
X269000Y616000D02*
X259500D01*
Y609250D01*
X269000D01*
Y616000D01*
D02*
G37*
G36*
X256500D02*
X247000D01*
Y609250D01*
X256500D01*
Y616000D01*
D02*
G37*
G36*
X327750Y616000D02*
X321500D01*
Y606500D01*
X327750D01*
Y616000D01*
D02*
G37*
G36*
X318500D02*
X312250D01*
Y606500D01*
X318500D01*
Y616000D01*
D02*
G37*
G36*
X898000Y602750D02*
X885500D01*
Y598000D01*
X898000D01*
Y602750D01*
D02*
G37*
G36*
X879500D02*
X867000D01*
Y598000D01*
X879500D01*
Y602750D01*
D02*
G37*
G36*
X753000D02*
X740500D01*
Y598000D01*
X753000D01*
Y602750D01*
D02*
G37*
G36*
X734500D02*
X722000D01*
Y598000D01*
X734500D01*
Y602750D01*
D02*
G37*
G36*
X753000Y592000D02*
X740500D01*
Y587250D01*
X753000D01*
Y592000D01*
D02*
G37*
G36*
X734500D02*
X722000D01*
Y587250D01*
X734500D01*
Y592000D01*
D02*
G37*
G36*
X654500Y574000D02*
X649500D01*
Y568500D01*
X654500D01*
Y574000D01*
D02*
G37*
G36*
Y566500D02*
X649500D01*
Y561000D01*
X654500D01*
Y566500D01*
D02*
G37*
G36*
X654000Y551500D02*
X649000D01*
Y546000D01*
X654000D01*
Y551500D01*
D02*
G37*
G36*
Y544000D02*
X649000D01*
Y538500D01*
X654000D01*
Y544000D01*
D02*
G37*
G36*
X647000D02*
X642000D01*
Y538500D01*
X647000D01*
Y544000D01*
D02*
G37*
G36*
X879500Y475250D02*
X867000D01*
Y470500D01*
X879500D01*
Y475250D01*
D02*
G37*
G36*
X753000D02*
X740500D01*
Y470500D01*
X753000D01*
Y475250D01*
D02*
G37*
G36*
X734500D02*
X722000D01*
Y470500D01*
X734500D01*
Y475250D01*
D02*
G37*
G36*
X753000Y464500D02*
X740500D01*
Y459750D01*
X753000D01*
Y464500D01*
D02*
G37*
G36*
X734500D02*
X722000D01*
Y459750D01*
X734500D01*
Y464500D01*
D02*
G37*
G36*
X570500Y371000D02*
X562500D01*
Y369000D01*
X570500D01*
Y371000D01*
D02*
G37*
G36*
X629250Y353500D02*
X624000D01*
Y348000D01*
X629250D01*
Y353500D01*
D02*
G37*
G36*
X622000D02*
X616750D01*
Y348000D01*
X622000D01*
Y353500D01*
D02*
G37*
G36*
X629250Y346000D02*
X624000D01*
Y340500D01*
X629250D01*
Y346000D01*
D02*
G37*
G36*
X622000D02*
X616750D01*
Y340500D01*
X622000D01*
Y346000D01*
D02*
G37*
G36*
X963500Y322000D02*
X956000D01*
Y316000D01*
X963500D01*
Y322000D01*
D02*
G37*
G36*
X118500D02*
X111000D01*
Y316000D01*
X118500D01*
Y322000D01*
D02*
G37*
G36*
X53500D02*
X46000D01*
Y316000D01*
X53500D01*
Y322000D01*
D02*
G37*
G36*
X898500D02*
X891000D01*
Y316000D01*
X898500D01*
Y322000D01*
D02*
G37*
G36*
X954000D02*
X946500D01*
Y316000D01*
X954000D01*
Y322000D01*
D02*
G37*
G36*
X109000D02*
X101500D01*
Y316000D01*
X109000D01*
Y322000D01*
D02*
G37*
G36*
X44000D02*
X36500D01*
Y316000D01*
X44000D01*
Y322000D01*
D02*
G37*
G36*
X889000D02*
X881500D01*
Y316000D01*
X889000D01*
Y322000D01*
D02*
G37*
G36*
X664500Y354000D02*
X651500D01*
Y340000D01*
X654432D01*
Y337750D01*
X647900D01*
Y315250D01*
X667900D01*
Y337750D01*
X661569D01*
Y340000D01*
X664500D01*
Y354000D01*
D02*
G37*
G36*
X963500Y314000D02*
X956000D01*
Y308000D01*
X963500D01*
Y314000D01*
D02*
G37*
G36*
X954000D02*
X946500D01*
Y308000D01*
X954000D01*
Y314000D01*
D02*
G37*
G36*
X898500D02*
X891000D01*
Y308000D01*
X898500D01*
Y314000D01*
D02*
G37*
G36*
X889000D02*
X881500D01*
Y308000D01*
X889000D01*
Y314000D01*
D02*
G37*
G36*
X118500D02*
X111000D01*
Y308000D01*
X118500D01*
Y314000D01*
D02*
G37*
G36*
X109000D02*
X101500D01*
Y308000D01*
X109000D01*
Y314000D01*
D02*
G37*
G36*
X53500D02*
X46000D01*
Y308000D01*
X53500D01*
Y314000D01*
D02*
G37*
G36*
X44000D02*
X36500D01*
Y308000D01*
X44000D01*
Y314000D01*
D02*
G37*
G36*
X132500Y320056D02*
X130803Y319833D01*
X129222Y319178D01*
X127864Y318136D01*
X126822Y316778D01*
X126167Y315197D01*
X125944Y313500D01*
Y307500D01*
X125500D01*
Y294500D01*
X132074D01*
X132500Y294444D01*
X132926Y294500D01*
X139500D01*
Y307500D01*
X139056D01*
Y313500D01*
X138833Y315197D01*
X138178Y316778D01*
X137136Y318136D01*
X135778Y319178D01*
X134197Y319833D01*
X132500Y320056D01*
D02*
G37*
G36*
X964000Y292500D02*
X946000D01*
Y288569D01*
X899000D01*
Y292500D01*
X881000D01*
Y288569D01*
X877000D01*
Y291500D01*
X863000D01*
Y278500D01*
X877000D01*
Y281431D01*
X881000D01*
Y277500D01*
X899000D01*
Y281431D01*
X946000D01*
Y277500D01*
X964000D01*
Y292500D01*
D02*
G37*
G36*
X119000D02*
X101000D01*
Y288569D01*
X54000D01*
Y292500D01*
X36000D01*
Y277500D01*
X54000D01*
Y281431D01*
X101000D01*
Y277500D01*
X119000D01*
Y281431D01*
X125500D01*
Y278500D01*
X139500D01*
Y279647D01*
X145000D01*
X147048Y280055D01*
X148785Y281215D01*
X149945Y282952D01*
X150353Y285000D01*
X149945Y287048D01*
X148785Y288785D01*
X147048Y289945D01*
X145000Y290353D01*
X139500D01*
Y291500D01*
X125500D01*
Y288569D01*
X119000D01*
Y292500D01*
D02*
G37*
G36*
X667900Y294750D02*
X660400D01*
Y286000D01*
X667900D01*
Y294750D01*
D02*
G37*
G36*
X655400D02*
X647900D01*
Y286000D01*
X655400D01*
Y294750D01*
D02*
G37*
G36*
X532750Y285750D02*
X529000D01*
Y280000D01*
X532750D01*
Y285750D01*
D02*
G37*
G36*
X527000D02*
X523250D01*
Y280000D01*
X527000D01*
Y285750D01*
D02*
G37*
G36*
X667900Y281000D02*
X660400D01*
Y272250D01*
X667900D01*
Y281000D01*
D02*
G37*
G36*
X655400D02*
X647900D01*
Y272250D01*
X655400D01*
Y281000D01*
D02*
G37*
G36*
X532750Y278000D02*
X529000D01*
Y272250D01*
X532750D01*
Y278000D01*
D02*
G37*
G36*
X527000D02*
X523250D01*
Y272250D01*
X527000D01*
Y278000D01*
D02*
G37*
G36*
X510000Y271556D02*
X508303Y271333D01*
X506722Y270678D01*
X505364Y269636D01*
X504322Y268278D01*
X503667Y266697D01*
X503444Y265000D01*
Y260000D01*
X503000D01*
Y247000D01*
X509574D01*
X510000Y246944D01*
X510426Y247000D01*
X517000D01*
Y260000D01*
X516556D01*
Y265000D01*
X516333Y266697D01*
X515678Y268278D01*
X514636Y269636D01*
X513278Y270678D01*
X511697Y271333D01*
X510000Y271556D01*
D02*
G37*
G36*
X541000Y244500D02*
X528000D01*
Y241069D01*
X517000D01*
Y244000D01*
X503000D01*
Y231000D01*
X517000D01*
Y233931D01*
X528000D01*
Y230500D01*
X541000D01*
Y244500D01*
D02*
G37*
G36*
X265950Y206000D02*
X262450D01*
Y197500D01*
X265950D01*
Y206000D01*
D02*
G37*
G36*
X259450D02*
X255950D01*
Y197500D01*
X259450D01*
Y206000D01*
D02*
G37*
G36*
X854500Y207906D02*
Y194500D01*
X867906D01*
X867404Y197021D01*
X866236Y199842D01*
X864540Y202381D01*
X862381Y204540D01*
X859842Y206236D01*
X857021Y207404D01*
X854500Y207906D01*
D02*
G37*
G36*
X850500D02*
X847979Y207404D01*
X845158Y206236D01*
X842619Y204540D01*
X840460Y202381D01*
X838764Y199842D01*
X837596Y197021D01*
X837094Y194500D01*
X850500D01*
Y207906D01*
D02*
G37*
G36*
X546000D02*
Y194500D01*
X559406D01*
X558904Y197021D01*
X557736Y199842D01*
X556040Y202381D01*
X553881Y204540D01*
X551342Y206236D01*
X548521Y207404D01*
X546000Y207906D01*
D02*
G37*
G36*
X542000D02*
X539479Y207404D01*
X536658Y206236D01*
X534119Y204540D01*
X531960Y202381D01*
X530264Y199842D01*
X529096Y197021D01*
X528594Y194500D01*
X542000D01*
Y207906D01*
D02*
G37*
G36*
X304050Y206000D02*
X294050D01*
Y186000D01*
X294050Y186000D01*
X293697Y184876D01*
X293000Y183193D01*
Y180807D01*
X293913Y178601D01*
X295601Y176913D01*
X297806Y176000D01*
X300194D01*
X302399Y176913D01*
X304087Y178601D01*
X305000Y180807D01*
Y183193D01*
X304349Y184766D01*
X304050Y186000D01*
X304050D01*
X304050Y186000D01*
Y193196D01*
X310749D01*
X310761Y193168D01*
X312168Y191761D01*
X314005Y191000D01*
X315995D01*
X317832Y191761D01*
X319239Y193168D01*
X320000Y195005D01*
Y196995D01*
X319239Y198832D01*
X317832Y200239D01*
X315995Y201000D01*
X314005D01*
X312168Y200239D01*
X310761Y198832D01*
X310749Y198804D01*
X304050D01*
Y206000D01*
D02*
G37*
G36*
X293000Y225500D02*
X280000D01*
Y211500D01*
X282781D01*
Y206000D01*
X281350D01*
Y186000D01*
X291350D01*
Y206000D01*
X289919D01*
Y211500D01*
X293000D01*
Y225500D01*
D02*
G37*
G36*
X265950Y194500D02*
X262450D01*
Y186000D01*
X265950D01*
Y194500D01*
D02*
G37*
G36*
X259450D02*
X255950D01*
Y186000D01*
X259450D01*
Y194500D01*
D02*
G37*
G36*
X867906Y190500D02*
X854500D01*
Y177094D01*
X857021Y177596D01*
X859842Y178764D01*
X862381Y180460D01*
X864540Y182619D01*
X866236Y185158D01*
X867404Y187979D01*
X867906Y190500D01*
D02*
G37*
G36*
X850500D02*
X837094D01*
X837596Y187979D01*
X838764Y185158D01*
X840460Y182619D01*
X842619Y180460D01*
X845158Y178764D01*
X847979Y177596D01*
X850500Y177094D01*
Y190500D01*
D02*
G37*
G36*
X559406D02*
X546000D01*
Y177094D01*
X548521Y177596D01*
X551342Y178764D01*
X553881Y180460D01*
X556040Y182619D01*
X557736Y185158D01*
X558904Y187979D01*
X559406Y190500D01*
D02*
G37*
G36*
X542000D02*
X528594D01*
X529096Y187979D01*
X530264Y185158D01*
X531960Y182619D01*
X534119Y180460D01*
X536658Y178764D01*
X539479Y177596D01*
X542000Y177094D01*
Y190500D01*
D02*
G37*
G36*
X278650Y206000D02*
X268650D01*
Y186000D01*
X268650Y186000D01*
X268650D01*
X268638Y184735D01*
X268000Y183193D01*
Y180807D01*
X268913Y178601D01*
X270601Y176913D01*
X272806Y176000D01*
X275194D01*
X277399Y176913D01*
X279087Y178601D01*
X280000Y180807D01*
Y183193D01*
X279087Y185399D01*
X278896Y185590D01*
X278650Y186000D01*
Y206000D01*
D02*
G37*
G36*
X220500Y239500D02*
X207500D01*
Y225500D01*
X210696D01*
Y219000D01*
X207000D01*
Y214804D01*
X205000D01*
X203927Y214590D01*
X203017Y213983D01*
X198017Y208983D01*
X197410Y208073D01*
X197196Y207000D01*
Y175000D01*
X197410Y173927D01*
X198017Y173017D01*
X202103Y168932D01*
X203012Y168324D01*
X204085Y168111D01*
X205250D01*
Y163665D01*
X215750D01*
Y178165D01*
X205250D01*
Y175511D01*
X203980Y174985D01*
X202804Y176161D01*
Y188051D01*
X204074Y188718D01*
X205807Y188000D01*
X208193D01*
X208525Y188137D01*
X214750D01*
Y186665D01*
X224661D01*
X225250Y186665D01*
X225931Y185677D01*
Y178165D01*
X224250D01*
Y164539D01*
X222003D01*
X221222Y164384D01*
X220303Y164003D01*
X219642Y163561D01*
X218939Y162858D01*
X218497Y162197D01*
X218116Y161278D01*
X217961Y160497D01*
Y154503D01*
X218116Y153722D01*
X218497Y152803D01*
X218939Y152142D01*
X218939Y152142D01*
X219642Y151439D01*
X220303Y150997D01*
X221222Y150616D01*
X222003Y150461D01*
X237997D01*
X238778Y150616D01*
X239697Y150997D01*
X240358Y151439D01*
X240358Y151439D01*
X241061Y152142D01*
X241503Y152803D01*
X241884Y153722D01*
X241884Y153722D01*
X242039Y154503D01*
Y160497D01*
X241884Y161278D01*
X241503Y162197D01*
X241061Y162858D01*
X240358Y163561D01*
X239697Y164003D01*
X239696Y164003D01*
X238778Y164384D01*
X237997Y164539D01*
X234750D01*
Y178165D01*
X233069D01*
Y205000D01*
X236000D01*
Y219000D01*
X223000D01*
Y205000D01*
X225931D01*
Y202153D01*
X225250Y201165D01*
X224661Y201165D01*
X214750D01*
Y199863D01*
X208525D01*
X208193Y200000D01*
X205807D01*
X204074Y199282D01*
X202804Y199949D01*
Y205839D01*
X205730Y208765D01*
X207000Y208239D01*
Y205000D01*
X220000D01*
Y219000D01*
X216304D01*
Y225500D01*
X220500D01*
Y239500D01*
D02*
G37*
G36*
X812097Y173000D02*
X809043D01*
X806049Y172404D01*
X803228Y171236D01*
X800689Y169540D01*
X798530Y167381D01*
X796834Y164842D01*
X795666Y162021D01*
X795070Y159027D01*
Y155973D01*
X795666Y152979D01*
X796834Y150158D01*
X798530Y147619D01*
X800689Y145460D01*
X803228Y143764D01*
X806049Y142596D01*
X809043Y142000D01*
X812097D01*
X815091Y142596D01*
X817912Y143764D01*
X820451Y145460D01*
X822610Y147619D01*
X824306Y150158D01*
X825474Y152979D01*
X826070Y155973D01*
Y159027D01*
X825474Y162021D01*
X824306Y164842D01*
X822610Y167381D01*
X820451Y169540D01*
X817912Y171236D01*
X815091Y172404D01*
X812097Y173000D01*
D02*
G37*
G36*
X770187D02*
X767133D01*
X764139Y172404D01*
X761318Y171236D01*
X758779Y169540D01*
X756620Y167381D01*
X754924Y164842D01*
X753756Y162021D01*
X753160Y159027D01*
Y155973D01*
X753756Y152979D01*
X754924Y150158D01*
X756620Y147619D01*
X758779Y145460D01*
X761318Y143764D01*
X764139Y142596D01*
X767133Y142000D01*
X770187D01*
X773181Y142596D01*
X776002Y143764D01*
X778541Y145460D01*
X780700Y147619D01*
X782396Y150158D01*
X783564Y152979D01*
X784160Y155973D01*
Y159027D01*
X783564Y162021D01*
X782396Y164842D01*
X780700Y167381D01*
X778541Y169540D01*
X776002Y171236D01*
X773181Y172404D01*
X770187Y173000D01*
D02*
G37*
G36*
X728277D02*
X725223D01*
X722229Y172404D01*
X719408Y171236D01*
X716869Y169540D01*
X714710Y167381D01*
X713014Y164842D01*
X711846Y162021D01*
X711250Y159027D01*
Y155973D01*
X711846Y152979D01*
X713014Y150158D01*
X714710Y147619D01*
X716869Y145460D01*
X719408Y143764D01*
X722229Y142596D01*
X725223Y142000D01*
X728277D01*
X731271Y142596D01*
X734092Y143764D01*
X736631Y145460D01*
X738790Y147619D01*
X740486Y150158D01*
X741654Y152979D01*
X742250Y155973D01*
Y159027D01*
X741654Y162021D01*
X740486Y164842D01*
X738790Y167381D01*
X736631Y169540D01*
X734092Y171236D01*
X731271Y172404D01*
X728277Y173000D01*
D02*
G37*
G36*
X503597D02*
X500543D01*
X497549Y172404D01*
X494728Y171236D01*
X492189Y169540D01*
X490030Y167381D01*
X488334Y164842D01*
X487166Y162021D01*
X486570Y159027D01*
Y155973D01*
X487166Y152979D01*
X488334Y150158D01*
X490030Y147619D01*
X492189Y145460D01*
X494728Y143764D01*
X497549Y142596D01*
X500543Y142000D01*
X503597D01*
X506591Y142596D01*
X509412Y143764D01*
X511951Y145460D01*
X514110Y147619D01*
X515806Y150158D01*
X516974Y152979D01*
X517570Y155973D01*
Y159027D01*
X516974Y162021D01*
X515806Y164842D01*
X514110Y167381D01*
X511951Y169540D01*
X509412Y171236D01*
X506591Y172404D01*
X503597Y173000D01*
D02*
G37*
G36*
X461687D02*
X458633D01*
X455639Y172404D01*
X452818Y171236D01*
X450279Y169540D01*
X448120Y167381D01*
X446424Y164842D01*
X445256Y162021D01*
X444660Y159027D01*
Y155973D01*
X445256Y152979D01*
X446424Y150158D01*
X448120Y147619D01*
X450279Y145460D01*
X452818Y143764D01*
X455639Y142596D01*
X458633Y142000D01*
X461687D01*
X464681Y142596D01*
X467502Y143764D01*
X470041Y145460D01*
X472200Y147619D01*
X473896Y150158D01*
X475064Y152979D01*
X475660Y155973D01*
Y159027D01*
X475064Y162021D01*
X473896Y164842D01*
X472200Y167381D01*
X470041Y169540D01*
X467502Y171236D01*
X464681Y172404D01*
X461687Y173000D01*
D02*
G37*
G36*
X419777D02*
X416723D01*
X413729Y172404D01*
X410908Y171236D01*
X408369Y169540D01*
X406210Y167381D01*
X404514Y164842D01*
X403346Y162021D01*
X402750Y159027D01*
Y155973D01*
X403346Y152979D01*
X404514Y150158D01*
X406210Y147619D01*
X408369Y145460D01*
X410908Y143764D01*
X413729Y142596D01*
X416723Y142000D01*
X419777D01*
X422771Y142596D01*
X425592Y143764D01*
X428131Y145460D01*
X430290Y147619D01*
X431986Y150158D01*
X433154Y152979D01*
X433750Y155973D01*
Y159027D01*
X433154Y162021D01*
X431986Y164842D01*
X430290Y167381D01*
X428131Y169540D01*
X425592Y171236D01*
X422771Y172404D01*
X419777Y173000D01*
D02*
G37*
G36*
X325500Y146250D02*
X320000D01*
Y141000D01*
X325500D01*
Y146250D01*
D02*
G37*
G36*
X318000D02*
X312500D01*
Y141000D01*
X318000D01*
Y146250D01*
D02*
G37*
G36*
X325500Y139000D02*
X320000D01*
Y133750D01*
X325500D01*
Y139000D01*
D02*
G37*
G36*
X318000D02*
X312500D01*
Y133750D01*
X318000D01*
Y139000D01*
D02*
G37*
G36*
X287694Y146000D02*
X285306D01*
X283101Y145087D01*
X281413Y143399D01*
X280500Y141194D01*
Y138806D01*
X281413Y136601D01*
X282347Y135668D01*
Y134000D01*
X281350D01*
Y114000D01*
X291350D01*
Y134000D01*
X290503D01*
Y135518D01*
X291586Y136601D01*
X292500Y138806D01*
Y141194D01*
X291586Y143399D01*
X289899Y145087D01*
X287694Y146000D01*
D02*
G37*
G36*
X205002Y142041D02*
X185002D01*
X184221Y141886D01*
X183560Y141444D01*
X183118Y140782D01*
X182963Y140002D01*
Y109002D01*
X183118Y108222D01*
X183560Y107560D01*
X184221Y107118D01*
X185002Y106963D01*
X205002D01*
X205782Y107118D01*
X206444Y107560D01*
X206886Y108222D01*
X207041Y109002D01*
Y140002D01*
X206886Y140782D01*
X206444Y141444D01*
X205782Y141886D01*
X205002Y142041D01*
D02*
G37*
G36*
X304050Y134000D02*
X294050D01*
Y114000D01*
X304050D01*
Y119922D01*
X312000D01*
Y117250D01*
X314672D01*
Y112157D01*
X313413Y110899D01*
X312500Y108694D01*
Y106306D01*
X313413Y104101D01*
X315101Y102414D01*
X317306Y101500D01*
X319694D01*
X321899Y102414D01*
X323587Y104101D01*
X324500Y106306D01*
Y108694D01*
X323587Y110899D01*
X322828Y111657D01*
Y117250D01*
X326000D01*
Y130750D01*
X312000D01*
Y128078D01*
X304050D01*
Y134000D01*
D02*
G37*
G36*
X307000Y92835D02*
Y84500D01*
X315334D01*
X314784Y86553D01*
X313402Y88947D01*
X311447Y90902D01*
X309053Y92284D01*
X307000Y92835D01*
D02*
G37*
G36*
X303000D02*
X300947Y92284D01*
X298553Y90902D01*
X296598Y88947D01*
X295216Y86553D01*
X294666Y84500D01*
X303000D01*
Y92835D01*
D02*
G37*
G36*
Y80500D02*
X294666D01*
X295216Y78447D01*
X296598Y76053D01*
X298553Y74098D01*
X300947Y72716D01*
X303000Y72165D01*
Y80500D01*
D02*
G37*
G36*
X315334D02*
X307000D01*
Y72165D01*
X309053Y72716D01*
X311447Y74098D01*
X313402Y76053D01*
X314784Y78447D01*
X315334Y80500D01*
D02*
G37*
G36*
X306382Y67600D02*
X303618D01*
X300947Y66884D01*
X298553Y65502D01*
X296598Y63547D01*
X295216Y61153D01*
X294988Y60304D01*
X270000D01*
Y64500D01*
X257000D01*
Y50500D01*
X270000D01*
Y54696D01*
X294774D01*
X295216Y53047D01*
X296598Y50653D01*
X298553Y48698D01*
X300947Y47316D01*
X303618Y46600D01*
X306382D01*
X309053Y47316D01*
X311447Y48698D01*
X313402Y50653D01*
X314784Y53047D01*
X315500Y55718D01*
Y58482D01*
X314784Y61153D01*
X313402Y63547D01*
X311447Y65502D01*
X309053Y66884D01*
X306382Y67600D01*
D02*
G37*
G36*
X892500Y93104D02*
X888285Y92689D01*
X884232Y91460D01*
X880498Y89463D01*
X877224Y86776D01*
X874537Y83503D01*
X872541Y79767D01*
X871311Y75715D01*
X870896Y71500D01*
Y68500D01*
X871311Y64285D01*
X872541Y60233D01*
X874537Y56498D01*
X877224Y53224D01*
X880498Y50537D01*
X884232Y48541D01*
X888285Y47311D01*
X892500Y46896D01*
X896715Y47311D01*
X900768Y48541D01*
X904502Y50537D01*
X907776Y53224D01*
X910463Y56498D01*
X912459Y60233D01*
X913689Y64285D01*
X914104Y68500D01*
Y71500D01*
X913689Y75715D01*
X912459Y79767D01*
X910463Y83503D01*
X907776Y86776D01*
X904502Y89463D01*
X900768Y91460D01*
X896715Y92689D01*
X892500Y93104D01*
D02*
G37*
G36*
X687500D02*
X683285Y92689D01*
X679232Y91460D01*
X675498Y89463D01*
X672224Y86776D01*
X669537Y83503D01*
X667541Y79767D01*
X666311Y75715D01*
X665896Y71500D01*
Y68500D01*
X666311Y64285D01*
X667541Y60233D01*
X669537Y56498D01*
X672224Y53224D01*
X675498Y50537D01*
X679232Y48541D01*
X683285Y47311D01*
X687500Y46896D01*
X691715Y47311D01*
X695768Y48541D01*
X699502Y50537D01*
X702776Y53224D01*
X705463Y56498D01*
X707459Y60233D01*
X708689Y64285D01*
X709104Y68500D01*
Y71500D01*
X708689Y75715D01*
X707459Y79767D01*
X705463Y83503D01*
X702776Y86776D01*
X699502Y89463D01*
X695768Y91460D01*
X691715Y92689D01*
X687500Y93104D01*
D02*
G37*
G36*
X584000D02*
X579785Y92689D01*
X575732Y91460D01*
X571997Y89463D01*
X568724Y86776D01*
X566037Y83503D01*
X564040Y79767D01*
X562811Y75715D01*
X562396Y71500D01*
Y68500D01*
X562811Y64285D01*
X564040Y60233D01*
X566037Y56498D01*
X568724Y53224D01*
X571997Y50537D01*
X575732Y48541D01*
X579785Y47311D01*
X584000Y46896D01*
X588215Y47311D01*
X592267Y48541D01*
X596003Y50537D01*
X599276Y53224D01*
X601963Y56498D01*
X603960Y60233D01*
X605189Y64285D01*
X605604Y68500D01*
Y71500D01*
X605189Y75715D01*
X603960Y79767D01*
X601963Y83503D01*
X599276Y86776D01*
X596003Y89463D01*
X592267Y91460D01*
X588215Y92689D01*
X584000Y93104D01*
D02*
G37*
G36*
X379000D02*
X374785Y92689D01*
X370732Y91460D01*
X366997Y89463D01*
X363724Y86776D01*
X361037Y83503D01*
X359040Y79767D01*
X357811Y75715D01*
X357396Y71500D01*
Y68500D01*
X357811Y64285D01*
X359040Y60233D01*
X361037Y56498D01*
X363724Y53224D01*
X366997Y50537D01*
X370732Y48541D01*
X374785Y47311D01*
X379000Y46896D01*
X383215Y47311D01*
X387267Y48541D01*
X391003Y50537D01*
X394276Y53224D01*
X396963Y56498D01*
X398960Y60233D01*
X400189Y64285D01*
X400604Y68500D01*
Y71500D01*
X400189Y75715D01*
X398960Y79767D01*
X396963Y83503D01*
X394276Y86776D01*
X391003Y89463D01*
X387267Y91460D01*
X383215Y92689D01*
X379000Y93104D01*
D02*
G37*
G36*
X183422Y47000D02*
X181578D01*
X179798Y46523D01*
X178202Y45601D01*
X176899Y44298D01*
X175977Y42702D01*
X175500Y40922D01*
Y39078D01*
X175977Y37298D01*
X176899Y35702D01*
X178202Y34399D01*
X179798Y33477D01*
X181578Y33000D01*
X183422D01*
X185202Y33477D01*
X186798Y34399D01*
X188101Y35702D01*
X189023Y37298D01*
X189500Y39078D01*
Y40922D01*
X189023Y42702D01*
X188101Y44298D01*
X186798Y45601D01*
X185202Y46523D01*
X183422Y47000D01*
D02*
G37*
G36*
X103622D02*
X101778D01*
X99998Y46523D01*
X98402Y45601D01*
X97099Y44298D01*
X96177Y42702D01*
X95700Y40922D01*
Y39078D01*
X96177Y37298D01*
X97099Y35702D01*
X98402Y34399D01*
X99998Y33477D01*
X101778Y33000D01*
X103622D01*
X105402Y33477D01*
X106998Y34399D01*
X108301Y35702D01*
X109223Y37298D01*
X109700Y39078D01*
Y40922D01*
X109223Y42702D01*
X108301Y44298D01*
X106998Y45601D01*
X105402Y46523D01*
X103622Y47000D01*
D02*
G37*
G36*
X315500Y42200D02*
X294500D01*
Y21200D01*
X315500D01*
Y42200D01*
D02*
G37*
G36*
X971773Y48000D02*
X968227D01*
X964750Y47308D01*
X961474Y45951D01*
X958526Y43981D01*
X956019Y41474D01*
X954049Y38526D01*
X952692Y35250D01*
X952000Y31773D01*
Y28227D01*
X952692Y24750D01*
X954049Y21474D01*
X956019Y18526D01*
X958526Y16019D01*
X961474Y14049D01*
X964750Y12692D01*
X968227Y12000D01*
X971773D01*
X975250Y12692D01*
X978526Y14049D01*
X981474Y16019D01*
X983981Y18526D01*
X985951Y21474D01*
X987308Y24750D01*
X988000Y28227D01*
Y31773D01*
X987308Y35250D01*
X985951Y38526D01*
X983981Y41474D01*
X981474Y43981D01*
X978526Y45951D01*
X975250Y47308D01*
X971773Y48000D01*
D02*
G37*
G36*
X31773D02*
X28227D01*
X24750Y47308D01*
X21474Y45951D01*
X18526Y43981D01*
X16019Y41474D01*
X14049Y38526D01*
X12692Y35250D01*
X12000Y31773D01*
Y28227D01*
X12692Y24750D01*
X14049Y21474D01*
X16019Y18526D01*
X18526Y16019D01*
X21474Y14049D01*
X24750Y12692D01*
X28227Y12000D01*
X31773D01*
X35250Y12692D01*
X38526Y14049D01*
X41474Y16019D01*
X43981Y18526D01*
X45951Y21474D01*
X47308Y24750D01*
X48000Y28227D01*
Y31773D01*
X47308Y35250D01*
X45951Y38526D01*
X43981Y41474D01*
X41474Y43981D01*
X38526Y45951D01*
X35250Y47308D01*
X31773Y48000D01*
D02*
G37*
%LPD*%
G36*
X943000Y702500D02*
X947875Y702500D01*
X962497D01*
X962497Y702500D01*
X962500D01*
X973495D01*
X975332Y701739D01*
X976739Y700332D01*
X977500Y698494D01*
Y697500D01*
X977500Y372500D01*
Y371515D01*
X977116Y369583D01*
X976362Y367763D01*
X975267Y366125D01*
X973875Y364733D01*
X972237Y363638D01*
X970417Y362884D01*
X968485Y362500D01*
X967500D01*
Y362500D01*
X957500Y362500D01*
X809500Y362500D01*
X808515Y362500D01*
X806583Y362884D01*
X804763Y363638D01*
X803125Y364732D01*
X801732Y366125D01*
X800638Y367763D01*
X799884Y369583D01*
X799500Y371515D01*
X799500Y372500D01*
Y400410D01*
X821500D01*
X822491Y400607D01*
X823331Y401169D01*
X823893Y402009D01*
X824090Y403000D01*
Y441410D01*
X837500D01*
X838491Y441607D01*
X839331Y442169D01*
X839553Y442500D01*
X859000D01*
Y451355D01*
X860270Y452136D01*
X861806Y451500D01*
X864193D01*
X866399Y452413D01*
X868087Y454101D01*
X869000Y456306D01*
Y458694D01*
X869000Y458694D01*
X869705Y459750D01*
X898000D01*
Y462000D01*
X898500D01*
Y482500D01*
X898466Y483186D01*
X898199Y484532D01*
X897673Y485800D01*
X896911Y486941D01*
X895941Y487911D01*
X894800Y488673D01*
X893532Y489199D01*
X892186Y489466D01*
X891500Y489500D01*
X888500Y489500D01*
X807000Y489500D01*
X806261D01*
X804812Y489788D01*
X803447Y490354D01*
X802219Y491174D01*
X801174Y492219D01*
X800354Y493447D01*
X799788Y494812D01*
X799500Y496261D01*
Y527910D01*
X821500Y527910D01*
X822491Y528107D01*
X823331Y528669D01*
X823893Y529509D01*
X824090Y530500D01*
Y568910D01*
X837500D01*
X838491Y569107D01*
X839331Y569669D01*
X839553Y570000D01*
X859000D01*
Y578355D01*
X860270Y578844D01*
X862307Y578000D01*
X864694D01*
X866899Y578913D01*
X868587Y580601D01*
X869500Y582807D01*
Y585193D01*
X869396Y585444D01*
X870102Y586500D01*
X912500D01*
X913235Y586536D01*
X914677Y586823D01*
X916036Y587386D01*
X917258Y588202D01*
X918298Y589242D01*
X919114Y590465D01*
X919677Y591823D01*
X919964Y593265D01*
X920000Y594000D01*
Y630000D01*
X920000Y630994D01*
X920761Y632832D01*
X922168Y634239D01*
X924005Y635000D01*
X925000Y635000D01*
X925000Y635000D01*
X927500Y635000D01*
X928475Y635096D01*
X930278Y635843D01*
X931657Y637222D01*
X932404Y639025D01*
X932500Y640000D01*
X932500Y640000D01*
X932500Y697515D01*
Y698520D01*
X933269Y700376D01*
X934690Y701797D01*
X936546Y702566D01*
X937551D01*
X943000Y702500D01*
D02*
G37*
G36*
X588362Y675673D02*
X587876Y674500D01*
X585500D01*
Y670804D01*
X582500D01*
X581427Y670590D01*
X580517Y669983D01*
X578017Y667483D01*
X577410Y666573D01*
X577196Y665500D01*
Y621161D01*
X559074Y603039D01*
X557804Y603565D01*
Y638628D01*
X559000Y638806D01*
X559913Y636601D01*
X561601Y634913D01*
X563806Y634000D01*
X566194D01*
X568399Y634913D01*
X570087Y636601D01*
X571000Y638806D01*
Y641193D01*
X570863Y641525D01*
Y645500D01*
X572000D01*
Y658500D01*
X558000Y658500D01*
X557804Y659689D01*
Y660311D01*
X558000Y661500D01*
X572000D01*
Y674500D01*
X567804D01*
Y678000D01*
X567590Y679073D01*
X566983Y679983D01*
X559804Y687161D01*
Y689000D01*
X563250D01*
Y694696D01*
X569339D01*
X588362Y675673D01*
D02*
G37*
G36*
X497657Y720185D02*
X498069Y719569D01*
X501125Y716512D01*
Y712031D01*
X501279Y711256D01*
X501718Y710600D01*
X505775Y706543D01*
Y589201D01*
X505929Y588426D01*
X506368Y587769D01*
X511625Y582512D01*
Y578488D01*
X511069Y577931D01*
X510630Y577275D01*
X510583Y577040D01*
X509839D01*
X509731Y576500D01*
X500269D01*
X500161Y577040D01*
X499417D01*
X499370Y577275D01*
X498931Y577931D01*
X498375Y578488D01*
Y583969D01*
X498220Y584744D01*
X497782Y585401D01*
X494980Y588202D01*
Y706279D01*
X495024Y706500D01*
Y710850D01*
X494870Y711625D01*
X494431Y712282D01*
X492875Y713839D01*
Y716512D01*
X495931Y719568D01*
X495931Y719569D01*
X496343Y720185D01*
X496598Y720225D01*
X497402D01*
X497657Y720185D01*
D02*
G37*
G36*
X482657D02*
X483069Y719569D01*
X486125Y716512D01*
Y711881D01*
X486279Y711107D01*
X486718Y710450D01*
X488275Y708893D01*
Y707221D01*
X488231Y707000D01*
Y586245D01*
X488385Y585470D01*
X488824Y584813D01*
X491625Y582012D01*
Y578488D01*
X491069Y577931D01*
X490630Y577275D01*
X490583Y577040D01*
X489839D01*
X489731Y576500D01*
X485269D01*
X485161Y577040D01*
X484417D01*
X484370Y577275D01*
X483931Y577931D01*
X483375Y578488D01*
Y583969D01*
X483221Y584744D01*
X482782Y585400D01*
X477875Y590308D01*
Y716512D01*
X480931Y719568D01*
X480931Y719569D01*
X481343Y720185D01*
X481599Y720225D01*
X482401D01*
X482657Y720185D01*
D02*
G37*
G36*
X467657D02*
X468069Y719569D01*
X471125Y716512D01*
Y588350D01*
X471279Y587576D01*
X471718Y586919D01*
X476625Y582012D01*
Y578488D01*
X476069Y577931D01*
X475630Y577275D01*
X475583Y577040D01*
X474839D01*
X474731Y576500D01*
X470269D01*
X470161Y577040D01*
X469417D01*
X469370Y577275D01*
X468931Y577931D01*
X468375Y578488D01*
Y583969D01*
X468221Y584744D01*
X467782Y585400D01*
X460024Y593158D01*
Y704842D01*
X461591Y706409D01*
X461591Y706409D01*
X462282Y707100D01*
X462720Y707756D01*
X462875Y708531D01*
Y716512D01*
X465931Y719568D01*
X465931Y719569D01*
X466343Y720185D01*
X466599Y720225D01*
X467402D01*
X467657Y720185D01*
D02*
G37*
G36*
X576277Y563258D02*
X577412Y562651D01*
X577383Y562500D01*
X577500Y561909D01*
Y561306D01*
X577731Y560750D01*
X577848Y560159D01*
X578183Y559658D01*
X578413Y559101D01*
X578839Y558675D01*
X579174Y558174D01*
X579675Y557840D01*
X580101Y557413D01*
X580658Y557183D01*
X581159Y556848D01*
X581750Y556731D01*
X582307Y556500D01*
X582909D01*
X583500Y556382D01*
X588000D01*
Y556000D01*
X602000D01*
X602696Y555018D01*
Y550161D01*
X597839Y545304D01*
X581500D01*
Y546001D01*
X572000D01*
Y547500D01*
X570500D01*
Y551000D01*
X565625D01*
X565139Y552173D01*
X576230Y563265D01*
X576277Y563258D01*
D02*
G37*
G36*
X751416Y552119D02*
X752119Y551416D01*
X752500Y550497D01*
Y550000D01*
Y535000D01*
Y534503D01*
X752119Y533584D01*
X751416Y532881D01*
X750497Y532500D01*
X724503D01*
X723584Y532881D01*
X722881Y533584D01*
X722500Y534503D01*
Y535000D01*
Y550000D01*
Y550497D01*
X722881Y551416D01*
X723584Y552119D01*
X724503Y552500D01*
X750497D01*
X751416Y552119D01*
D02*
G37*
G36*
X837417Y579500D02*
X837500Y579081D01*
Y571500D01*
X821500D01*
Y530500D01*
X799500Y530500D01*
Y589500D01*
X837417D01*
Y579500D01*
D02*
G37*
G36*
X348500Y539000D02*
Y538999D01*
X358000D01*
Y536069D01*
X357655Y536001D01*
X348500D01*
Y530304D01*
X301161D01*
X293039Y538426D01*
X293565Y539696D01*
X347500D01*
X348500Y539000D01*
D02*
G37*
G36*
X308017Y415517D02*
X308927Y414910D01*
X310000Y414696D01*
X347500D01*
X348500Y414000D01*
Y410304D01*
X347500D01*
X347500Y410304D01*
X282500D01*
X281427Y410090D01*
X280517Y409483D01*
X276839Y405804D01*
X273750D01*
Y411500D01*
X223804D01*
Y417339D01*
X228661Y422196D01*
X301339D01*
X308017Y415517D01*
D02*
G37*
G36*
X751916Y424619D02*
X752619Y423916D01*
X753000Y422997D01*
Y422500D01*
Y407500D01*
Y407003D01*
X752619Y406084D01*
X751916Y405381D01*
X750997Y405000D01*
X725003D01*
X724084Y405381D01*
X723381Y406084D01*
X723000Y407003D01*
Y407500D01*
Y422500D01*
Y422997D01*
X723381Y423916D01*
X724084Y424619D01*
X725003Y425000D01*
X750997D01*
X751916Y424619D01*
D02*
G37*
G36*
X837417Y452000D02*
X837500Y451581D01*
Y444000D01*
X821500D01*
Y403000D01*
X799500D01*
Y462000D01*
X837417D01*
Y452000D01*
D02*
G37*
G36*
X592196Y391339D02*
Y381065D01*
X590926Y380539D01*
X586983Y384483D01*
X586073Y385090D01*
X585000Y385304D01*
X581500D01*
Y391001D01*
X572345D01*
X572000Y391069D01*
Y393999D01*
X581500D01*
Y394696D01*
X588839D01*
X592196Y391339D01*
D02*
G37*
G36*
X463999Y343500D02*
X464696D01*
Y341500D01*
X464910Y340427D01*
X465517Y339517D01*
X469265Y335770D01*
X468739Y334500D01*
X466500D01*
Y320500D01*
X474875D01*
X475361Y319327D01*
X473839Y317804D01*
X462500D01*
X461427Y317590D01*
X461074Y317355D01*
X459804Y318027D01*
Y320500D01*
X463500D01*
Y334500D01*
X450500D01*
X450304Y335689D01*
Y342500D01*
X450304Y342500D01*
Y343500D01*
X461001D01*
Y352655D01*
X461069Y353000D01*
X463999D01*
Y343500D01*
D02*
G37*
G36*
X533931Y340812D02*
X534203Y339446D01*
X534977Y338288D01*
X535000Y338265D01*
Y336505D01*
X535761Y334668D01*
X537168Y333261D01*
X539005Y332500D01*
X540995D01*
X542832Y333261D01*
X543426Y333855D01*
X544696Y333329D01*
Y321161D01*
X524074Y300539D01*
X522804Y301065D01*
Y333970D01*
X529086Y340252D01*
X529483Y340517D01*
X530090Y341427D01*
X530304Y342500D01*
Y343500D01*
X533931D01*
Y340812D01*
D02*
G37*
%LPC*%
G36*
X962750Y667250D02*
X952000D01*
Y660500D01*
X962750D01*
Y667250D01*
D02*
G37*
G36*
X946000D02*
X935250D01*
Y660500D01*
X946000D01*
Y667250D01*
D02*
G37*
G36*
X962750Y654500D02*
X952000D01*
Y647750D01*
X962750D01*
Y654500D01*
D02*
G37*
G36*
X946000D02*
X935250D01*
Y647750D01*
X946000D01*
Y654500D01*
D02*
G37*
G36*
X934500Y629500D02*
X930000D01*
Y624500D01*
X934500D01*
Y629500D01*
D02*
G37*
G36*
X926000D02*
X921500D01*
Y624500D01*
X926000D01*
Y629500D01*
D02*
G37*
G36*
X934500Y620500D02*
X930000D01*
Y615500D01*
X934500D01*
Y620500D01*
D02*
G37*
G36*
X926000D02*
X921500D01*
Y615500D01*
X926000D01*
Y620500D01*
D02*
G37*
G36*
X898000Y572750D02*
X886500D01*
Y569000D01*
X898000D01*
Y572750D01*
D02*
G37*
G36*
X878500D02*
X867000D01*
Y569000D01*
X878500D01*
Y572750D01*
D02*
G37*
G36*
X898000Y561000D02*
X886500D01*
Y557250D01*
X898000D01*
Y561000D01*
D02*
G37*
G36*
X878500D02*
X867000D01*
Y557250D01*
X878500D01*
Y561000D01*
D02*
G37*
G36*
X846250Y554569D02*
X843750D01*
X842384Y554297D01*
X841227Y553523D01*
X839227Y551523D01*
X838453Y550366D01*
X838181Y549000D01*
Y545000D01*
X837250D01*
Y535500D01*
Y526000D01*
X844681D01*
Y517000D01*
X842000D01*
Y503000D01*
X855000D01*
Y506431D01*
X870250D01*
Y503000D01*
X883750D01*
Y517000D01*
X870250D01*
Y513569D01*
X855000D01*
Y517000D01*
X851819D01*
Y526000D01*
X859000D01*
Y531931D01*
X867522D01*
X868000Y531453D01*
Y523000D01*
X882000D01*
Y536000D01*
X873547D01*
X871817Y537730D01*
X872195Y538888D01*
X872282Y539000D01*
X882000D01*
Y541931D01*
X888000D01*
Y538750D01*
X902000D01*
Y552250D01*
X888000D01*
Y549069D01*
X882000D01*
Y552000D01*
X868000D01*
Y539069D01*
X859000D01*
Y545000D01*
X851819D01*
Y549000D01*
X851547Y550366D01*
X850773Y551523D01*
X848773Y553523D01*
X847616Y554297D01*
X846250Y554569D01*
D02*
G37*
G36*
X833250Y545000D02*
X831000D01*
Y537500D01*
X833250D01*
Y545000D01*
D02*
G37*
G36*
Y533500D02*
X831000D01*
Y526000D01*
X833250D01*
Y533500D01*
D02*
G37*
G36*
X902000Y536250D02*
X888000D01*
Y522750D01*
X902000D01*
Y523382D01*
X907500D01*
X908091Y523500D01*
X908693D01*
X909250Y523731D01*
X909841Y523848D01*
X910342Y524183D01*
X910899Y524413D01*
X911325Y524840D01*
X911826Y525174D01*
X912160Y525675D01*
X912587Y526101D01*
X912817Y526658D01*
X913152Y527159D01*
X913269Y527750D01*
X913500Y528307D01*
Y528909D01*
X913617Y529500D01*
X913500Y530091D01*
Y530694D01*
X913269Y531250D01*
X913152Y531841D01*
X912817Y532342D01*
X912587Y532899D01*
X912160Y533325D01*
X911826Y533826D01*
X911325Y534160D01*
X910899Y534587D01*
X910342Y534817D01*
X909841Y535152D01*
X909250Y535269D01*
X908693Y535500D01*
X908091D01*
X907500Y535617D01*
X902000D01*
Y536250D01*
D02*
G37*
G36*
X839000Y517000D02*
X834500D01*
Y512000D01*
X839000D01*
Y517000D01*
D02*
G37*
G36*
X830500D02*
X826000D01*
Y512000D01*
X830500D01*
Y517000D01*
D02*
G37*
G36*
X899750Y517000D02*
X886250D01*
Y503000D01*
X899750D01*
Y503882D01*
X907500D01*
X908091Y504000D01*
X908693D01*
X909250Y504231D01*
X909841Y504348D01*
X910342Y504683D01*
X910899Y504913D01*
X911325Y505340D01*
X911826Y505674D01*
X912160Y506175D01*
X912587Y506601D01*
X912817Y507158D01*
X913152Y507659D01*
X913269Y508250D01*
X913500Y508807D01*
Y509409D01*
X913617Y510000D01*
X913500Y510591D01*
Y511194D01*
X913269Y511750D01*
X913152Y512341D01*
X912817Y512842D01*
X912587Y513399D01*
X912160Y513825D01*
X911826Y514326D01*
X911325Y514660D01*
X910899Y515087D01*
X910342Y515317D01*
X909841Y515652D01*
X909250Y515770D01*
X908693Y516000D01*
X908091D01*
X907500Y516118D01*
X899750D01*
Y517000D01*
D02*
G37*
G36*
X839000Y508000D02*
X834500D01*
Y503000D01*
X839000D01*
Y508000D01*
D02*
G37*
G36*
X830500D02*
X826000D01*
Y503000D01*
X830500D01*
Y508000D01*
D02*
G37*
G36*
X898000Y445250D02*
X886500D01*
Y441500D01*
X898000D01*
Y445250D01*
D02*
G37*
G36*
X878500D02*
X867000D01*
Y441500D01*
X878500D01*
Y445250D01*
D02*
G37*
G36*
X898000Y433500D02*
X886500D01*
Y429750D01*
X898000D01*
Y433500D01*
D02*
G37*
G36*
X878500D02*
X867000D01*
Y429750D01*
X878500D01*
Y433500D01*
D02*
G37*
G36*
X846250Y427069D02*
X843750D01*
X842384Y426797D01*
X841227Y426023D01*
X839227Y424023D01*
X838453Y422866D01*
X838181Y421500D01*
Y417500D01*
X837250D01*
Y408000D01*
Y398500D01*
X844681D01*
Y389500D01*
X841500D01*
Y375500D01*
X854500D01*
Y378931D01*
X870250D01*
Y375500D01*
X883750D01*
Y389500D01*
X870250D01*
Y386069D01*
X854500D01*
Y389500D01*
X851819D01*
Y398500D01*
X859000D01*
Y404431D01*
X867522D01*
X868000Y403953D01*
Y395500D01*
X882000D01*
Y408500D01*
X873547D01*
X871817Y410230D01*
X872195Y411388D01*
X872282Y411500D01*
X882000D01*
Y414431D01*
X888000D01*
Y411250D01*
X902000D01*
Y424750D01*
X888000D01*
Y421569D01*
X882000D01*
Y424500D01*
X868000D01*
Y411569D01*
X859000D01*
Y417500D01*
X851819D01*
Y421500D01*
X851547Y422866D01*
X850773Y424023D01*
X848773Y426023D01*
X847616Y426797D01*
X846250Y427069D01*
D02*
G37*
G36*
X833250Y417500D02*
X831000D01*
Y410000D01*
X833250D01*
Y417500D01*
D02*
G37*
G36*
Y406000D02*
X831000D01*
Y398500D01*
X833250D01*
Y406000D01*
D02*
G37*
G36*
X902000Y408750D02*
X888000D01*
Y395250D01*
X902000D01*
Y395882D01*
X907500D01*
X908091Y396000D01*
X908693D01*
X909250Y396231D01*
X909841Y396348D01*
X910342Y396683D01*
X910899Y396913D01*
X911325Y397340D01*
X911826Y397674D01*
X912160Y398175D01*
X912587Y398601D01*
X912817Y399158D01*
X913152Y399659D01*
X913269Y400250D01*
X913500Y400807D01*
Y401409D01*
X913617Y402000D01*
X913500Y402591D01*
Y403194D01*
X913269Y403750D01*
X913152Y404341D01*
X912817Y404842D01*
X912587Y405399D01*
X912160Y405825D01*
X911826Y406326D01*
X911325Y406660D01*
X910899Y407087D01*
X910342Y407317D01*
X909841Y407652D01*
X909250Y407769D01*
X908693Y408000D01*
X908091D01*
X907500Y408117D01*
X902000D01*
Y408750D01*
D02*
G37*
G36*
X838500Y389500D02*
X834000D01*
Y384500D01*
X838500D01*
Y389500D01*
D02*
G37*
G36*
X830000D02*
X825500D01*
Y384500D01*
X830000D01*
Y389500D01*
D02*
G37*
G36*
X899750D02*
X886250D01*
Y375500D01*
X899750D01*
Y376382D01*
X907500D01*
X908091Y376500D01*
X908693D01*
X909250Y376731D01*
X909841Y376848D01*
X910342Y377183D01*
X910899Y377413D01*
X911325Y377840D01*
X911826Y378174D01*
X912160Y378675D01*
X912587Y379101D01*
X912817Y379658D01*
X913152Y380159D01*
X913269Y380750D01*
X913500Y381306D01*
Y381909D01*
X913617Y382500D01*
X913500Y383091D01*
Y383694D01*
X913269Y384250D01*
X913152Y384841D01*
X912817Y385342D01*
X912587Y385899D01*
X912160Y386325D01*
X911826Y386826D01*
X911325Y387160D01*
X910899Y387587D01*
X910342Y387817D01*
X909841Y388152D01*
X909250Y388269D01*
X908693Y388500D01*
X908091D01*
X907500Y388618D01*
X899750D01*
Y389500D01*
D02*
G37*
G36*
X838500Y380500D02*
X834000D01*
Y375500D01*
X838500D01*
Y380500D01*
D02*
G37*
G36*
X830000D02*
X825500D01*
Y375500D01*
X830000D01*
Y380500D01*
D02*
G37*
G36*
X581500Y551000D02*
X573500D01*
Y549000D01*
X581500D01*
Y551000D01*
D02*
G37*
%LPD*%
G36*
X377916Y789619D02*
X378619Y788916D01*
X379000Y787997D01*
Y787500D01*
Y782500D01*
Y782003D01*
X378619Y781084D01*
X377916Y780381D01*
X376997Y780000D01*
X361003D01*
X360084Y780381D01*
X359381Y781084D01*
X359000Y782003D01*
Y782500D01*
Y784500D01*
Y787500D01*
Y787997D01*
X359381Y788916D01*
X360084Y789619D01*
X361003Y790000D01*
X376997D01*
X377916Y789619D01*
D02*
G37*
G36*
X211416Y777119D02*
X212119Y776416D01*
X212500Y775497D01*
Y775000D01*
Y770000D01*
Y769503D01*
X212119Y768584D01*
X211416Y767881D01*
X210497Y767500D01*
X194503D01*
X193584Y767881D01*
X192881Y768584D01*
X192500Y769503D01*
Y770000D01*
Y772000D01*
Y775000D01*
Y775497D01*
X192881Y776416D01*
X193584Y777119D01*
X194503Y777500D01*
X210497D01*
X211416Y777119D01*
D02*
G37*
G36*
X238916Y162119D02*
X239619Y161416D01*
X240000Y160497D01*
Y160000D01*
Y155000D01*
Y154503D01*
X239619Y153584D01*
X238916Y152881D01*
X237997Y152500D01*
X222003D01*
X221084Y152881D01*
X220381Y153584D01*
X220000Y154503D01*
Y155000D01*
Y160000D01*
Y160497D01*
X220381Y161416D01*
X221084Y162119D01*
X222003Y162500D01*
X237997D01*
X238916Y162119D01*
D02*
G37*
D10*
X229500Y162000D02*
Y170915D01*
X189000Y391500D02*
X193000Y387500D01*
X398000Y740000D02*
Y765000D01*
X397500Y739500D02*
X398000Y740000D01*
X397500Y727500D02*
Y739500D01*
Y715500D02*
Y727500D01*
X363000Y663650D02*
X384150D01*
X397500Y677000D01*
Y714500D01*
X398000Y715000D01*
X397500Y715500D02*
X398000Y715000D01*
X189000Y391500D02*
Y403000D01*
X181000Y517000D02*
Y529000D01*
X189000Y517000D02*
Y529000D01*
X177500Y532500D02*
X181000Y529000D01*
X189000Y529000D02*
X192500Y532500D01*
D62*
X347500Y652500D02*
G03*
X349050Y650950I1550J0D01*
G01*
X232000Y617500D02*
Y627000D01*
X218250Y634750D02*
Y648000D01*
X228500Y630500D02*
X232000Y627000D01*
X218250Y634750D02*
X222500Y630500D01*
X228500D01*
X515500Y774000D02*
X529500Y760000D01*
Y751264D02*
Y760000D01*
X544500Y755000D02*
X552500Y763000D01*
X544500Y736000D02*
Y755000D01*
X539500Y736000D02*
Y772500D01*
X534000Y778000D02*
X539500Y772500D01*
X513500Y765000D02*
X524500Y754000D01*
X497500Y765000D02*
X513500D01*
X841750Y535500D02*
Y549000D01*
X848250Y535500D02*
Y549000D01*
X841750D02*
X843750Y551000D01*
X846250D01*
X848250Y549000D01*
X846250Y423500D02*
X848250Y421500D01*
X843750Y423500D02*
X846250D01*
X841750Y421500D02*
X843750Y423500D01*
X848250Y408000D02*
Y421500D01*
X841750Y408000D02*
Y421500D01*
X462500Y403500D02*
X463000Y404000D01*
X462500Y404500D02*
X463000Y404000D01*
X462500Y377607D02*
Y403500D01*
Y377607D02*
X465000Y375107D01*
X535000Y462000D02*
Y513000D01*
X540000Y518000D01*
X562000Y547000D02*
X562500Y547500D01*
X572000D01*
X557500Y462500D02*
X557500Y462500D01*
X572000D01*
X509500Y452500D02*
X565121D01*
X547500Y457500D02*
X572000D01*
X539500Y457500D02*
X547500D01*
X504500D02*
Y485000D01*
X547500Y457500D02*
X547500Y457500D01*
X557500Y437500D02*
X572000D01*
X553000Y433000D02*
X557500Y437500D01*
X553000Y417500D02*
Y433000D01*
X558500Y393000D02*
X559000Y392500D01*
X572000D01*
X553000Y387500D02*
X572000D01*
X532500Y340500D02*
X532500Y340500D01*
Y353000D01*
X465000Y368893D02*
Y375107D01*
X384500Y522000D02*
Y528107D01*
X380107Y532500D02*
X384500Y528107D01*
X462500Y353000D02*
Y366393D01*
X371269Y536770D02*
X375539Y532500D01*
X369730Y536770D02*
X371269D01*
X462500Y366393D02*
X465000Y368893D01*
X375539Y532500D02*
X380107D01*
X457500Y372000D02*
X457500Y372000D01*
X369500Y532500D02*
X377000Y525000D01*
X358000Y532500D02*
X369500D01*
X369000Y537500D02*
X369730Y536770D01*
X358000Y537500D02*
X369000D01*
X417500Y556500D02*
X417500Y556500D01*
Y567000D01*
X447500Y556500D02*
Y567000D01*
X447500Y567000D01*
X534500Y736000D02*
Y754500D01*
X848500Y510000D02*
X877000D01*
X848250Y510250D02*
Y535500D01*
Y510250D02*
X848500Y510000D01*
X561000Y522500D02*
X572000D01*
X553000Y530500D02*
X561000Y522500D01*
X912000Y622500D02*
X912000Y622500D01*
X893000Y622500D02*
X912000D01*
X565121Y452500D02*
X565121Y452500D01*
X504500Y457500D02*
X509500Y452500D01*
X565121Y452500D02*
X572000D01*
X457500Y553607D02*
X462000Y549107D01*
Y485000D02*
Y549107D01*
X110000Y285000D02*
X132500D01*
X45000D02*
X110000D01*
X372000Y412500D02*
X379000Y419500D01*
X430000D01*
X358000Y412500D02*
X372000D01*
X450000Y368500D02*
Y415000D01*
X454500Y419500D02*
X490000D01*
X450000Y415000D02*
X454500Y419500D01*
X457500Y353000D02*
Y372000D01*
X450000Y368500D02*
X452500Y366000D01*
Y353000D02*
Y366000D01*
X407000Y372000D02*
X412000D01*
X402500Y367500D02*
X407000Y372000D01*
X402500Y353000D02*
Y367500D01*
X507500Y353000D02*
Y372000D01*
X507500Y372000D02*
X507500Y372000D01*
X358000Y372500D02*
X370479D01*
X375979Y378000D01*
X377000D01*
X370979Y462500D02*
X376979Y468500D01*
X377000D01*
X358000Y462500D02*
X370979D01*
X358000Y452500D02*
X370979D01*
X376979Y446500D02*
X377000D01*
X370979Y452500D02*
X376979Y446500D01*
X358000Y397500D02*
X370479D01*
X375979Y403000D01*
X377000D01*
X358000Y457500D02*
X427500D01*
X457500Y553607D02*
Y567000D01*
X535000Y462000D02*
X539500Y457500D01*
X487500Y551500D02*
Y567000D01*
X491000Y548000D02*
X497500D01*
X487500Y551500D02*
X491000Y548000D01*
X472500Y548000D02*
Y567000D01*
X472500Y548000D02*
X472500Y548000D01*
X452500D02*
Y567000D01*
X452500Y548000D02*
X452500Y548000D01*
X422500Y547500D02*
Y567000D01*
X547000Y268757D02*
X550000Y265757D01*
X547000Y268757D02*
Y279000D01*
X550000Y264500D02*
Y265757D01*
X658000Y326600D02*
Y347000D01*
X657900Y326500D02*
X658000Y326600D01*
X510000Y237500D02*
X534500D01*
X550500D02*
X550500Y237500D01*
Y250000D01*
X544500Y256000D02*
X550500Y250000D01*
X537500Y256000D02*
X544500D01*
X86000Y145000D02*
Y161000D01*
X81500Y165500D02*
Y178000D01*
Y165500D02*
X86000Y161000D01*
X174000Y145000D02*
Y160000D01*
X163000Y145000D02*
Y160000D01*
X152000Y145000D02*
Y160000D01*
X108000Y145000D02*
Y160000D01*
X97000Y145000D02*
Y160000D01*
X870000Y285000D02*
X890000D01*
X870000Y285000D02*
X870000Y285000D01*
X890000D02*
X955000D01*
X286350Y219500D02*
X287000D01*
X286350Y196000D02*
Y219500D01*
X540000Y337500D02*
Y338312D01*
X537500Y340812D02*
X540000Y338312D01*
X537500Y340812D02*
Y353000D01*
X229500Y170915D02*
Y212000D01*
X387500Y337000D02*
Y353000D01*
X204250Y675000D02*
X211750Y682500D01*
X125000Y675000D02*
X204250D01*
X94000Y644000D02*
X125000Y675000D01*
X192000Y622500D02*
Y630750D01*
X196250Y635000D01*
X202000D01*
X205250Y638250D01*
Y648000D01*
X190000D02*
X205250D01*
X186000Y644000D02*
X190000Y648000D01*
X155000Y644000D02*
X186000D01*
X855000Y584000D02*
X863500D01*
X856000Y457500D02*
X863000D01*
X524500Y736000D02*
Y754000D01*
X529500Y751264D02*
X529500Y751264D01*
X529500Y736000D02*
Y751264D01*
X863000Y456500D02*
Y457500D01*
X228000Y712000D02*
Y720000D01*
X211750Y719750D02*
X212000Y720000D01*
X218250Y702250D02*
X228000Y712000D01*
X211750Y692000D02*
Y719750D01*
X218250Y692000D02*
Y702250D01*
X92500Y644000D02*
X94000D01*
X775000Y547500D02*
X792000D01*
X769500Y420000D02*
X792000D01*
X875000Y418000D02*
X895000D01*
X850000Y382500D02*
X877000D01*
X848250Y387250D02*
Y408000D01*
X854750D02*
X869000D01*
X875000Y402000D01*
Y545500D02*
X895000D01*
X869000Y535500D02*
X875000Y529500D01*
X854750Y535500D02*
X869000D01*
X272500Y695500D02*
Y717500D01*
Y660500D02*
X280500Y652500D01*
X282000Y689000D02*
X304500D01*
X272500Y679500D02*
X282000Y689000D01*
X280000Y644500D02*
X290000Y634500D01*
X272500Y644500D02*
X280000D01*
X280500Y652500D02*
X287500D01*
X304500Y724000D02*
X305000Y724500D01*
X330550Y689050D02*
X363000D01*
X330000Y724500D02*
X330500Y724000D01*
Y689000D02*
Y724000D01*
X304500Y689000D02*
Y724000D01*
X290000Y617500D02*
Y634500D01*
X287500Y652500D02*
X304500D01*
X330500D02*
X347500D01*
X617500Y713000D02*
Y732000D01*
X596000Y707500D02*
X601500Y713000D01*
X617500D01*
X588000Y702500D02*
Y707500D01*
X596000D01*
X550000Y702500D02*
X557000D01*
X547319Y699819D02*
X550000Y702500D01*
X535000Y668000D02*
Y692000D01*
X547319Y640181D02*
Y699819D01*
X349050Y650950D02*
X363000D01*
X224750Y692000D02*
X234500D01*
X252500Y695500D02*
X272500D01*
X234500Y692000D02*
X237500Y695000D01*
X221000Y679500D02*
X252500D01*
X218250Y682250D02*
Y692000D01*
Y682250D02*
X221000Y679500D01*
X252500D02*
X252500Y679500D01*
X211750Y682500D02*
Y692000D01*
X208000Y630500D02*
X211750Y634250D01*
X208000Y622500D02*
Y630500D01*
X252500Y644500D02*
X272500D01*
X211750Y634250D02*
Y648000D01*
X215000Y660500D02*
X252500D01*
X211750Y657250D02*
X215000Y660500D01*
X211750Y648000D02*
Y657250D01*
D63*
X229500Y212000D02*
D03*
X213500D02*
D03*
X550500Y237500D02*
D03*
X534500D02*
D03*
X263500Y57500D02*
D03*
X247500D02*
D03*
X228000Y720000D02*
D03*
X212000D02*
D03*
X208000Y622500D02*
D03*
X192000D02*
D03*
X214000Y232500D02*
D03*
X230000D02*
D03*
X658000Y347000D02*
D03*
X642000D02*
D03*
X302500Y218500D02*
D03*
X286500D02*
D03*
X648500Y567500D02*
D03*
X632500D02*
D03*
X648000Y545000D02*
D03*
X632000D02*
D03*
X457000Y327500D02*
D03*
X473000D02*
D03*
X832000Y382500D02*
D03*
X848000D02*
D03*
X832500Y510000D02*
D03*
X848500D02*
D03*
X912000Y622500D02*
D03*
X928000D02*
D03*
X877000Y622500D02*
D03*
X893000D02*
D03*
D64*
X454500Y736000D02*
D03*
X544500D02*
D03*
X539500D02*
D03*
X534500D02*
D03*
X529500D02*
D03*
X524500D02*
D03*
X519500D02*
D03*
X514500D02*
D03*
X509500D02*
D03*
X504500D02*
D03*
X499500D02*
D03*
X494500D02*
D03*
X489500D02*
D03*
X484500D02*
D03*
X479500D02*
D03*
X474500D02*
D03*
X469500D02*
D03*
X464500D02*
D03*
X459500D02*
D03*
D65*
X565000Y668000D02*
D03*
Y652000D02*
D03*
X740000Y739500D02*
D03*
Y755500D02*
D03*
X715000Y739500D02*
D03*
Y755500D02*
D03*
X252500Y695500D02*
D03*
Y679500D02*
D03*
Y660500D02*
D03*
Y644500D02*
D03*
X870000Y301000D02*
D03*
Y285000D02*
D03*
X132500Y301000D02*
D03*
Y285000D02*
D03*
X690000Y755500D02*
D03*
Y739500D02*
D03*
X662500Y755500D02*
D03*
Y739500D02*
D03*
X595000Y578500D02*
D03*
Y562500D02*
D03*
X81500Y194000D02*
D03*
Y178000D02*
D03*
X304500Y724500D02*
D03*
Y740500D02*
D03*
X330500Y724500D02*
D03*
Y740500D02*
D03*
X592500Y652000D02*
D03*
Y668000D02*
D03*
X617500Y748000D02*
D03*
Y732000D02*
D03*
X272500Y695500D02*
D03*
Y679500D02*
D03*
X535000Y668000D02*
D03*
Y652000D02*
D03*
X272500Y644500D02*
D03*
Y660500D02*
D03*
X875000Y418000D02*
D03*
Y402000D02*
D03*
Y545500D02*
D03*
Y529500D02*
D03*
X510000Y237500D02*
D03*
Y253500D02*
D03*
D66*
X319000Y140000D02*
D03*
Y124000D02*
D03*
X617500Y697000D02*
D03*
Y713000D02*
D03*
X895000Y418000D02*
D03*
Y402000D02*
D03*
Y545500D02*
D03*
Y529500D02*
D03*
D67*
X299050Y196000D02*
D03*
X286350D02*
D03*
X273650D02*
D03*
X260950D02*
D03*
Y124000D02*
D03*
X273650D02*
D03*
X286350D02*
D03*
X299050D02*
D03*
D68*
X205250Y692000D02*
D03*
X211750D02*
D03*
X218250D02*
D03*
X224750D02*
D03*
Y648000D02*
D03*
X218250D02*
D03*
X211750D02*
D03*
X205250D02*
D03*
X835250Y408000D02*
D03*
X841750D02*
D03*
X848250D02*
D03*
X854750D02*
D03*
Y452000D02*
D03*
X848250D02*
D03*
X841750D02*
D03*
X835250D02*
D03*
X835250Y535500D02*
D03*
X841750D02*
D03*
X848250D02*
D03*
X854750D02*
D03*
Y579500D02*
D03*
X848250D02*
D03*
X841750D02*
D03*
X835250D02*
D03*
D69*
X369000Y765000D02*
D03*
X398000D02*
D03*
D70*
X258000Y617500D02*
D03*
X232000D02*
D03*
X202000Y752500D02*
D03*
X228000D02*
D03*
X330500Y689000D02*
D03*
X304500D02*
D03*
X330500Y652500D02*
D03*
X304500D02*
D03*
X398000Y715000D02*
D03*
X372000D02*
D03*
D71*
X92500Y706000D02*
D03*
Y644000D02*
D03*
X155000Y706000D02*
D03*
Y644000D02*
D03*
D72*
X320000Y617500D02*
D03*
X290000D02*
D03*
D73*
X272500Y717500D02*
D03*
Y747500D02*
D03*
D74*
X955000Y285000D02*
D03*
X890000D02*
D03*
X955000Y315000D02*
D03*
X890000D02*
D03*
X45000D02*
D03*
X110000D02*
D03*
X45000Y285000D02*
D03*
X110000D02*
D03*
D75*
X537500Y256000D02*
D03*
X528000Y279000D02*
D03*
X547000D02*
D03*
X220000Y193915D02*
D03*
X229500Y170915D02*
D03*
X210500D02*
D03*
D76*
X607000Y347000D02*
D03*
X623000D02*
D03*
X877000Y382500D02*
D03*
X893000D02*
D03*
X877000Y510000D02*
D03*
X893000D02*
D03*
D77*
X101000Y403000D02*
D03*
X109000D02*
D03*
X117000D02*
D03*
X125000D02*
D03*
X133000D02*
D03*
X141000D02*
D03*
X149000D02*
D03*
X157000D02*
D03*
X165000D02*
D03*
X173000D02*
D03*
X181000D02*
D03*
X189000D02*
D03*
X197000D02*
D03*
X205000D02*
D03*
X213000D02*
D03*
X221000D02*
D03*
X229000D02*
D03*
X237000D02*
D03*
X245000D02*
D03*
X253000D02*
D03*
X261000D02*
D03*
X269000D02*
D03*
Y517000D02*
D03*
X261000D02*
D03*
X253000D02*
D03*
X245000D02*
D03*
X237000D02*
D03*
X229000D02*
D03*
X221000D02*
D03*
X213000D02*
D03*
X205000D02*
D03*
X197000D02*
D03*
X189000D02*
D03*
X181000D02*
D03*
X173000D02*
D03*
X165000D02*
D03*
X157000D02*
D03*
X149000D02*
D03*
X141000D02*
D03*
X133000D02*
D03*
X125000D02*
D03*
X117000D02*
D03*
X109000D02*
D03*
X101000D02*
D03*
D78*
X588000Y707500D02*
D03*
Y702500D02*
D03*
Y697500D02*
D03*
Y692500D02*
D03*
X557000D02*
D03*
Y697500D02*
D03*
Y702500D02*
D03*
Y707500D02*
D03*
D79*
X417000Y650950D02*
D03*
X363000Y689050D02*
D03*
Y676350D02*
D03*
Y663650D02*
D03*
Y650950D02*
D03*
X417000Y689050D02*
D03*
Y676350D02*
D03*
Y663650D02*
D03*
D80*
X358000Y547500D02*
D03*
Y542500D02*
D03*
Y537500D02*
D03*
Y532500D02*
D03*
Y527500D02*
D03*
Y522500D02*
D03*
Y517500D02*
D03*
Y512500D02*
D03*
Y507500D02*
D03*
Y502500D02*
D03*
Y497500D02*
D03*
Y492500D02*
D03*
Y487500D02*
D03*
Y482500D02*
D03*
Y477500D02*
D03*
Y472500D02*
D03*
Y467500D02*
D03*
Y462500D02*
D03*
Y457500D02*
D03*
Y452500D02*
D03*
Y447500D02*
D03*
Y442500D02*
D03*
Y437500D02*
D03*
Y432500D02*
D03*
Y427500D02*
D03*
Y422500D02*
D03*
Y417500D02*
D03*
Y412500D02*
D03*
Y407500D02*
D03*
Y402500D02*
D03*
Y397500D02*
D03*
Y392500D02*
D03*
Y387500D02*
D03*
Y382500D02*
D03*
Y377500D02*
D03*
Y372500D02*
D03*
X572000D02*
D03*
Y377500D02*
D03*
Y382500D02*
D03*
Y387500D02*
D03*
Y392500D02*
D03*
Y397500D02*
D03*
Y402500D02*
D03*
Y407500D02*
D03*
Y412500D02*
D03*
Y417500D02*
D03*
Y422500D02*
D03*
Y427500D02*
D03*
Y432500D02*
D03*
Y437500D02*
D03*
Y442500D02*
D03*
Y447500D02*
D03*
Y452500D02*
D03*
Y457500D02*
D03*
Y462500D02*
D03*
Y467500D02*
D03*
Y472500D02*
D03*
Y477500D02*
D03*
Y482500D02*
D03*
Y487500D02*
D03*
Y492500D02*
D03*
Y497500D02*
D03*
Y502500D02*
D03*
Y507500D02*
D03*
Y512500D02*
D03*
Y517500D02*
D03*
Y522500D02*
D03*
Y527500D02*
D03*
Y532500D02*
D03*
Y537500D02*
D03*
Y542500D02*
D03*
Y547500D02*
D03*
D81*
X377500Y353000D02*
D03*
X382500D02*
D03*
X387500D02*
D03*
X392500D02*
D03*
X397500D02*
D03*
X402500D02*
D03*
X407500D02*
D03*
X412500D02*
D03*
X417500D02*
D03*
X422500D02*
D03*
X427500D02*
D03*
X432500D02*
D03*
X437500D02*
D03*
X442500D02*
D03*
X447500D02*
D03*
X452500D02*
D03*
X457500D02*
D03*
X462500D02*
D03*
X467500D02*
D03*
X472500D02*
D03*
X477500D02*
D03*
X482500D02*
D03*
X487500D02*
D03*
X492500D02*
D03*
X497500D02*
D03*
X502500D02*
D03*
X507500D02*
D03*
X512500D02*
D03*
X517500D02*
D03*
X522500D02*
D03*
X527500D02*
D03*
X532500D02*
D03*
X537500D02*
D03*
X542500D02*
D03*
X547500D02*
D03*
X552500D02*
D03*
Y567000D02*
D03*
X547500D02*
D03*
X542500D02*
D03*
X537500D02*
D03*
X532500D02*
D03*
X527500D02*
D03*
X522500D02*
D03*
X517500D02*
D03*
X512500D02*
D03*
X507500D02*
D03*
X502500D02*
D03*
X497500D02*
D03*
X492500D02*
D03*
X487500D02*
D03*
X482500D02*
D03*
X477500D02*
D03*
X472500D02*
D03*
X467500D02*
D03*
X462500D02*
D03*
X457500D02*
D03*
X452500D02*
D03*
X447500D02*
D03*
X442500D02*
D03*
X437500D02*
D03*
X432500D02*
D03*
X427500D02*
D03*
X422500D02*
D03*
X417500D02*
D03*
X412500D02*
D03*
X407500D02*
D03*
X402500D02*
D03*
X397500D02*
D03*
X392500D02*
D03*
X387500D02*
D03*
X382500D02*
D03*
X377500D02*
D03*
D82*
X610000Y804000D02*
D03*
X590000D02*
D03*
D83*
X607100Y283500D02*
D03*
X657900D02*
D03*
Y326500D02*
D03*
X607100D02*
D03*
D84*
X769500Y432500D02*
D03*
X810500D02*
D03*
X769500Y560000D02*
D03*
X810500D02*
D03*
D85*
X535000Y692000D02*
D03*
Y708000D02*
D03*
D86*
X949000Y657500D02*
D03*
X906000D02*
D03*
D87*
X174000Y145000D02*
D03*
X163000D02*
D03*
X152000D02*
D03*
X141000D02*
D03*
X130000D02*
D03*
X119000D02*
D03*
X108000D02*
D03*
X97000D02*
D03*
X86000D02*
D03*
D88*
X220500Y140000D02*
D03*
D89*
X74500D02*
D03*
D90*
X229500Y44000D02*
D03*
X74500D02*
D03*
D91*
X591000Y775000D02*
D03*
X609000D02*
D03*
X398000Y740000D02*
D03*
X380000D02*
D03*
D92*
X882500Y467500D02*
D03*
Y437500D02*
D03*
X737500Y467500D02*
D03*
Y437500D02*
D03*
X882500Y595000D02*
D03*
Y565000D02*
D03*
X737500Y595000D02*
D03*
Y565000D02*
D03*
D93*
X97000Y160000D02*
Y190996D01*
X116004Y210000D01*
X469000Y134000D02*
X482000Y147000D01*
X383864Y134000D02*
X469000D01*
X482000Y147000D02*
Y254500D01*
X365500Y152364D02*
X383864Y134000D01*
X620000Y495000D02*
Y563000D01*
X624500Y567500D02*
X632500D01*
X620000Y563000D02*
X624500Y567500D01*
X273650Y124000D02*
Y144650D01*
X281364Y152364D02*
X365500D01*
X273650Y144650D02*
X281364Y152364D01*
X260950Y124000D02*
Y147450D01*
X280000Y166500D02*
X359000D01*
X260950Y147450D02*
X280000Y166500D01*
X359000D02*
X435000Y242500D01*
X179500Y485000D02*
X307500D01*
X173000Y491500D02*
Y517000D01*
Y491500D02*
X179500Y485000D01*
X149000Y486000D02*
X170000Y465000D01*
X337500Y465000D01*
X149000Y486000D02*
Y517000D01*
X175000Y470000D02*
X337500D01*
X157000Y488000D02*
Y517000D01*
Y488000D02*
X175000Y470000D01*
X180000Y475000D02*
X337500Y475000D01*
X165000Y490000D02*
Y517000D01*
Y490000D02*
X180000Y475000D01*
X556000Y547000D02*
X587500Y578500D01*
X497500Y510000D02*
X534500Y547000D01*
X556000D01*
X645000Y773000D02*
Y785500D01*
X651950Y792450D01*
X645000Y773000D02*
X653500Y764500D01*
X547500Y580000D02*
X640000Y672500D01*
Y786500D01*
X658500Y805000D01*
X647500Y672500D02*
Y740000D01*
X610000Y635000D02*
X647500Y672500D01*
Y740000D02*
X655000Y747500D01*
X547500Y567000D02*
Y580000D01*
X587500Y578500D02*
X595000D01*
X482000Y254500D02*
X547500Y320000D01*
X206000Y262500D02*
X425000Y262500D01*
X174000Y160000D02*
Y230500D01*
X425000Y262500D02*
X467500Y305000D01*
X174000Y230500D02*
X206000Y262500D01*
X163000Y160000D02*
Y227000D01*
X203500Y267500D01*
X422500Y267500D02*
X465000Y310000D01*
X203500Y267500D02*
X422500Y267500D01*
X754000Y301000D02*
X870000D01*
X572000Y467500D02*
X637000D01*
X682500Y422000D01*
Y372500D02*
Y422000D01*
Y372500D02*
X754000Y301000D01*
X612500Y432500D02*
X642000Y403000D01*
Y347000D02*
Y403000D01*
X642500Y347000D02*
X643000Y347500D01*
X711750Y207500D02*
X726750Y192500D01*
X592500Y207500D02*
X711750D01*
X567500Y232500D02*
X592500Y207500D01*
X785570Y217500D02*
X810570Y192500D01*
X602500Y217500D02*
X785570D01*
X577500Y242500D02*
X602500Y217500D01*
X597500Y212500D02*
X748660D01*
X572500Y237500D02*
X597500Y212500D01*
X748660D02*
X768660Y192500D01*
X577500Y242500D02*
Y340000D01*
X567500Y232500D02*
Y345000D01*
X572500Y237500D02*
Y342500D01*
X562500Y232500D02*
Y347500D01*
X585000Y370000D01*
X552500Y222500D02*
X562500Y232500D01*
X600000Y362500D02*
Y395500D01*
X577500Y340000D02*
X600000Y362500D01*
X590000Y397500D02*
X595000Y392500D01*
X572500Y342500D02*
X595000Y365000D01*
Y392500D01*
X593000Y402500D02*
X600000Y395500D01*
X567500Y345000D02*
X590000Y367500D01*
Y377500D01*
X532070Y222500D02*
X552500D01*
X502070Y192500D02*
X532070Y222500D01*
X585000Y370000D02*
Y375000D01*
X582500Y377500D02*
X585000Y375000D01*
X572000Y377500D02*
X582500D01*
X585000Y382500D02*
X590000Y377500D01*
X572000Y382500D02*
X585000D01*
X572000Y397500D02*
X590000D01*
X572000Y402500D02*
X593000D01*
X547500Y320000D02*
Y338132D01*
X482500Y275000D02*
X495000D01*
X480000Y280000D02*
X492500D01*
X520000Y300000D02*
Y335132D01*
X490000Y285000D02*
X510000Y305000D01*
X515000Y302500D02*
Y335000D01*
X495000Y275000D02*
X520000Y300000D01*
X492500Y280000D02*
X515000Y302500D01*
X477500Y285000D02*
X490000D01*
X510000Y305000D02*
Y335000D01*
X487500Y290000D02*
X505000Y307500D01*
Y335000D01*
X475000Y290000D02*
X487500D01*
X460160Y252660D02*
X482500Y275000D01*
X542500Y343132D02*
Y344000D01*
X487500Y312500D02*
X490000Y315000D01*
X435000Y242500D02*
X435000D01*
X472500Y295000D02*
X485000D01*
X470000Y300000D02*
X482500D01*
X490000Y315000D02*
Y335000D01*
X485000Y317500D02*
Y335000D01*
X542500Y344000D02*
Y353000D01*
X485000Y295000D02*
X500000Y310000D01*
X465000D02*
X477500D01*
X487500Y312500D02*
Y312500D01*
X495000D02*
Y335000D01*
X542500Y343132D02*
X547500Y338132D01*
X480000Y305000D02*
X487500Y312500D01*
X432500Y247500D02*
X475000Y290000D01*
X467500Y305000D02*
X480000D01*
X482500Y300000D02*
X495000Y312500D01*
X477500Y310000D02*
X485000Y317500D01*
X500000Y310000D02*
Y335000D01*
X418250Y218250D02*
X437500Y237500D01*
X542500Y344000D02*
X542500Y344000D01*
X331500Y247500D02*
X432500D01*
X437500Y237500D02*
X437500D01*
X435000Y242500D02*
X477500Y285000D01*
X437500Y237500D02*
X480000Y280000D01*
X302500Y218500D02*
X331500Y247500D01*
X247500Y57500D02*
Y222500D01*
X277500Y252500D01*
X430000D01*
X472500Y295000D01*
X230000Y232500D02*
Y245000D01*
X242500Y257500D02*
X427500D01*
X230000Y245000D02*
X242500Y257500D01*
X427500D02*
X470000Y300000D01*
X81500Y194000D02*
Y203500D01*
X93000Y215000D01*
X152000Y160000D02*
Y223500D01*
X201000Y272500D01*
X130000Y145000D02*
Y209000D01*
X198500Y277500D01*
X101000Y387500D02*
X191000Y297500D01*
X113500Y215000D02*
X191000Y292500D01*
X193500Y287496D02*
X412594Y287496D01*
X116004Y210000D02*
X193500Y287496D01*
X191000Y292500D02*
X410000D01*
X412594Y287496D02*
X442500Y317500D01*
X191000Y297500D02*
X407500D01*
X108000Y194500D02*
X196000Y282500D01*
X407500Y297500D02*
X427500Y317500D01*
X410000Y292500D02*
X432500Y315000D01*
X93000Y215000D02*
X113500D01*
X196000Y282500D02*
X415000Y282500D01*
X108000Y160000D02*
Y194500D01*
X109000Y387000D02*
X193500Y302500D01*
X405000D01*
X422500Y320000D01*
X196000Y307500D02*
X402500D01*
X117000Y386500D02*
X196000Y307500D01*
X402500D02*
X417500Y322500D01*
X101000Y387500D02*
Y403000D01*
X201000Y272500D02*
X420000Y272500D01*
X462500Y315000D01*
X198500Y277500D02*
X417500D01*
X457000Y317000D01*
X460160Y192500D02*
Y252660D01*
X213500Y212000D02*
Y232500D01*
X299050Y196000D02*
X315000D01*
X263000Y57500D02*
X304600D01*
X305000Y57100D01*
X547500Y344000D02*
X552500Y339000D01*
Y295500D02*
Y339000D01*
X547000Y290000D02*
X552500Y295500D01*
X418250Y192500D02*
Y218250D01*
X520000Y335132D02*
X527368Y342500D01*
X515000Y335000D02*
X522500Y342500D01*
X221000Y418500D02*
X227500Y425000D01*
X221000Y403000D02*
Y418500D01*
X227500Y425000D02*
X302500D01*
X213000Y420500D02*
X222500Y430000D01*
X213000Y403000D02*
Y420500D01*
X222500Y430000D02*
X307500D01*
X180000Y450000D02*
X337500D01*
X173000Y403000D02*
Y443000D01*
X180000Y450000D01*
X175000Y455000D02*
X340000D01*
X165000Y403000D02*
Y445000D01*
X175000Y455000D01*
X157000Y403000D02*
Y447000D01*
X170000Y460000D02*
X340000D01*
X157000Y447000D02*
X170000Y460000D01*
X510000Y335000D02*
X517500Y342500D01*
Y353000D01*
X522500Y342500D02*
Y353000D01*
X512500Y342500D02*
Y353000D01*
X505000Y335000D02*
X512500Y342500D01*
X527500D02*
Y353000D01*
X547500Y344000D02*
Y353000D01*
X487500Y342500D02*
X495000Y335000D01*
X482500Y342500D02*
X490000Y335000D01*
X492500Y342500D02*
Y353000D01*
Y342500D02*
X500000Y335000D01*
X487500Y342500D02*
Y353000D01*
X477500Y342500D02*
X485000Y335000D01*
X462500Y315000D02*
X475000D01*
X457000Y317000D02*
Y327500D01*
X475000Y315000D02*
X480500Y320500D01*
Y334500D01*
X467500Y341500D02*
X473000Y336000D01*
Y327500D02*
Y336000D01*
X200000Y207000D02*
X205000Y212000D01*
X200000Y175000D02*
Y207000D01*
X205000Y212000D02*
X213500D01*
X200000Y175000D02*
X204085Y170915D01*
X210500D01*
X415000Y282500D02*
X447500Y315000D01*
X442500Y340500D02*
X444250Y338750D01*
X442500Y317500D02*
X444250Y319250D01*
Y338750D01*
X447500Y342500D02*
Y353000D01*
X447500Y315000D02*
Y342500D01*
X447500Y342500D01*
X432500Y315000D02*
Y353000D01*
X198500Y312500D02*
X400000D01*
X201000Y317500D02*
X397500D01*
X109000Y387000D02*
Y403000D01*
X133000Y385500D02*
X201000Y317500D01*
X125000Y386000D02*
X198500Y312500D01*
X117000Y386500D02*
Y403000D01*
X125000Y386000D02*
Y403000D01*
X133000Y385500D02*
Y403000D01*
X206000Y322500D02*
X392500D01*
X141000Y387500D02*
X206000Y322500D01*
X149000Y388500D02*
Y403000D01*
X210000Y327500D02*
X390000D01*
X149000Y388500D02*
X210000Y327500D01*
X390000D02*
X395000Y332500D01*
X392500Y322500D02*
X400000Y330000D01*
X141000Y387500D02*
Y403000D01*
X141000Y403000D01*
X482500Y342500D02*
Y353000D01*
X477500Y342500D02*
Y353000D01*
X472500Y342500D02*
Y353000D01*
Y342500D02*
X480500Y334500D01*
X328500Y422500D02*
X347500D01*
X328500Y422500D02*
X328500Y422500D01*
X400000Y330000D02*
Y340000D01*
X397500Y342500D02*
X400000Y340000D01*
X395000Y332500D02*
Y340020D01*
X392500Y342520D02*
X395000Y340020D01*
X442500Y340500D02*
Y353000D01*
X417500Y322500D02*
Y342500D01*
X400000Y312500D02*
X412500Y325000D01*
X397500Y317500D02*
X407500Y327500D01*
Y342500D01*
X392500Y342520D02*
Y353000D01*
X375014Y337210D02*
X375710D01*
X382500Y344000D01*
X361688Y341688D02*
X373000Y353000D01*
X427500Y317500D02*
Y353000D01*
X422500Y320000D02*
Y353000D01*
X417500Y342500D02*
Y353000D01*
X417500Y342500D02*
X417500Y342500D01*
X412500Y325000D02*
Y353000D01*
X407500Y342500D02*
Y353000D01*
X407500Y342500D02*
X407500Y342500D01*
X397500Y342500D02*
X397500Y342500D01*
Y353000D01*
X302500Y377500D02*
X347500D01*
X297500Y382500D02*
X347500D01*
X292500Y387500D02*
X347500D01*
X295000Y370000D02*
X302500Y377500D01*
X245000Y370000D02*
X295000D01*
X290000Y375000D02*
X297500Y382500D01*
X250000Y375000D02*
X290000D01*
X285000Y380000D02*
X292500Y387500D01*
X255000Y380000D02*
X285000D01*
X229000Y386000D02*
X245000Y370000D01*
X229000Y386000D02*
Y403000D01*
X237000Y388000D02*
X250000Y375000D01*
X237000Y388000D02*
Y403000D01*
X245000Y390000D02*
X255000Y380000D01*
X245000Y390000D02*
Y403000D01*
X253000Y392127D02*
X260063Y385064D01*
X253000Y392127D02*
Y403000D01*
X260063Y385064D02*
X280014D01*
X287450Y392500D01*
X347500D01*
X278000Y403000D02*
X282500Y407500D01*
X347500D01*
X269000Y403000D02*
X278000D01*
X287500Y402500D02*
X347500D01*
X275000Y390000D02*
X287500Y402500D01*
X265000Y390000D02*
X275000D01*
X261000Y394000D02*
X265000Y390000D01*
X261000Y394000D02*
Y403000D01*
X337500Y440000D02*
X345000Y432500D01*
X212500Y440000D02*
X337500D01*
X205000Y432500D02*
X212500Y440000D01*
X337500Y475000D02*
X345000Y482500D01*
X337500Y470000D02*
X345000Y477500D01*
X337500Y465000D02*
X345000Y472500D01*
X207500Y445000D02*
X337500D01*
X197000Y434500D02*
X207500Y445000D01*
X337500D02*
X345000Y437500D01*
X337500Y450000D02*
X345000Y442500D01*
X340000Y460000D02*
X347500Y467500D01*
X340000Y455000D02*
X347500Y447500D01*
X197000Y403000D02*
Y434500D01*
X205000Y403000D02*
X205000Y403000D01*
X205000Y403000D02*
Y432500D01*
X302500Y425000D02*
X310000Y417500D01*
X347500D01*
X307500Y430000D02*
X315000Y422500D01*
X328500D01*
X345000Y442500D02*
X347500D01*
X345000Y437500D02*
X347500D01*
X345000Y432500D02*
X347500D01*
X307500Y485000D02*
X315000Y492500D01*
X347500D01*
X310000Y497500D02*
X347500D01*
X302500Y490000D02*
X310000Y497500D01*
X207500Y490000D02*
X302500D01*
X305000Y502500D02*
X347500D01*
X297500Y495000D02*
X305000Y502500D01*
X212500Y495000D02*
X297500D01*
X300000Y507500D02*
X347500D01*
X292500Y500000D02*
X300000Y507500D01*
X217500Y500000D02*
X292500D01*
X197000Y500500D02*
X207500Y490000D01*
X197000Y500500D02*
Y517000D01*
X205000Y502500D02*
X212500Y495000D01*
X205000Y502500D02*
Y517000D01*
X213000Y504500D02*
X217500Y500000D01*
X213000Y504500D02*
Y517000D01*
X287500Y505000D02*
X295000Y512500D01*
X223000Y505000D02*
X287500D01*
X295000Y512500D02*
X358000D01*
X221000Y507000D02*
X223000Y505000D01*
X221000Y507000D02*
X221000Y507000D01*
Y517000D01*
X345000Y472500D02*
X347500D01*
X345000Y477500D02*
X347500D01*
X345000Y482500D02*
X347500D01*
X300000Y527500D02*
X347500D01*
X290000Y537500D02*
X300000Y527500D01*
X260000Y537500D02*
X290000D01*
X237000Y517000D02*
Y534500D01*
X250000Y547500D01*
X347500D01*
X245000Y517000D02*
Y532500D01*
X255000Y542500D01*
X347500D01*
X253000Y517000D02*
Y530500D01*
X260000Y537500D01*
X285000Y532500D02*
X295000Y522500D01*
X347500D01*
X269000Y517000D02*
X269500Y517500D01*
X358000D01*
X265000Y532500D02*
X285000D01*
X261000Y528500D02*
X265000Y532500D01*
X261000Y517000D02*
Y528500D01*
X101000Y517000D02*
Y555000D01*
X109000Y517000D02*
Y550000D01*
X117000Y545000D02*
X117000Y545000D01*
Y517000D02*
Y545000D01*
X125000Y517000D02*
Y540000D01*
X133000Y535000D02*
X133000Y535000D01*
Y517000D02*
Y535000D01*
X141000Y525500D02*
Y530000D01*
Y525500D02*
X141000Y525500D01*
Y517000D02*
Y525500D01*
X347500Y542500D02*
X347500Y542500D01*
X407500Y620000D02*
X412500Y615000D01*
X400000Y620000D02*
X407500D01*
X412500Y567000D02*
Y615000D01*
X402500Y612500D02*
X407500Y607500D01*
X395000Y612500D02*
X402500D01*
X407500Y567000D02*
Y607500D01*
X397500Y605000D02*
X402500Y600000D01*
X390000Y605000D02*
X397500D01*
X402500Y567000D02*
Y600000D01*
X392500Y597500D02*
X397500Y592500D01*
X385000Y597500D02*
X392500D01*
Y577000D02*
Y585000D01*
X387500Y590000D02*
X392500Y585000D01*
X380000Y590000D02*
X387500D01*
X375000Y582500D02*
X383500D01*
X387500Y578500D01*
Y567000D02*
Y578500D01*
X429950Y689050D02*
X440000Y679000D01*
Y587000D02*
X442500Y584500D01*
X440000Y587000D02*
Y679000D01*
X425500Y582000D02*
Y637000D01*
Y582000D02*
X427500Y580000D01*
X417000Y645500D02*
X425500Y637000D01*
X397500Y577000D02*
Y592500D01*
X397500Y567000D02*
Y577000D01*
X397500Y577000D02*
X397500Y577000D01*
X623500Y536500D02*
X632000Y545000D01*
X623500Y493500D02*
Y536500D01*
X632000Y545000D02*
X640500Y553500D01*
X601500Y699000D02*
Y699500D01*
X595000Y692500D02*
X601500Y699000D01*
X588000Y692500D02*
X595000D01*
X514500Y721000D02*
X527500Y708000D01*
X514500Y721000D02*
Y721000D01*
X527500Y708000D02*
X535000D01*
X529500Y715000D02*
X560000D01*
X524500Y720000D02*
X529500Y715000D01*
X524500Y720000D02*
Y736000D01*
X514500Y721000D02*
X514500Y721000D01*
X514500Y721000D02*
Y736000D01*
X640500Y620500D02*
X752500Y732500D01*
X640500Y553500D02*
Y620500D01*
X555000Y665000D02*
X558000Y668000D01*
X565000D01*
X580000Y620000D02*
Y665500D01*
X582500Y668000D01*
X592500D01*
X542500Y582500D02*
X580000Y620000D01*
X627500Y622500D02*
X715000Y710000D01*
Y739500D01*
X700500Y766000D02*
Y790000D01*
X718498Y817550D02*
X718548Y817500D01*
X708052D02*
X708102Y817550D01*
X718498D01*
X718548Y817500D02*
X726200D01*
X726150Y792450D02*
X746550D01*
X713300Y779600D02*
X726150Y792450D01*
X726200Y817500D02*
X738700Y805000D01*
X746550Y792450D02*
X751500Y787500D01*
X713300Y802800D02*
Y805000D01*
X752500Y732500D02*
Y741000D01*
X746000Y747500D02*
X752500Y741000D01*
X751500Y767000D02*
Y787500D01*
X738700Y779200D02*
Y779600D01*
X740000Y755500D02*
X751500Y767000D01*
X715000Y755500D02*
X738700Y779200D01*
X680000Y682500D02*
Y725000D01*
X632500Y620000D02*
X740000Y727500D01*
X678500Y753500D02*
Y770200D01*
X690000Y755500D02*
X700500Y766000D01*
X698000Y747500D02*
X746000D01*
X740000Y727500D02*
Y739500D01*
X693450Y792450D02*
X700500Y799500D01*
Y813000D02*
X705000Y817500D01*
X678500Y770200D02*
X687900Y779600D01*
X700500Y799500D02*
Y813000D01*
Y790000D02*
X713300Y802800D01*
X651950Y792450D02*
X693450D01*
X705000Y817500D02*
X708052D01*
X672500Y747500D02*
X678500Y753500D01*
X690000Y739500D02*
X698000Y747500D01*
X655000D02*
X672500D01*
X535000Y708000D02*
X535000Y708000D01*
X347500Y377500D02*
X347500Y377500D01*
X442500Y567000D02*
Y584500D01*
X622500Y625000D02*
X680000Y682500D01*
X552500Y577500D02*
X610000Y635000D01*
X347500Y527500D02*
X358000D01*
X347500Y527500D02*
X347500Y527500D01*
Y542500D02*
X358000D01*
X347500Y547500D02*
X358000D01*
X347500Y547500D02*
X347500Y547500D01*
X347500Y467500D02*
X358000D01*
X347500Y402500D02*
X358000D01*
X347500Y382500D02*
X347500Y382500D01*
Y387500D02*
X358000D01*
X347500Y377500D02*
X358000D01*
X347500Y382500D02*
X358000D01*
X347500Y387500D02*
X347500Y387500D01*
Y392500D02*
X358000D01*
X347500Y392500D02*
X347500Y392500D01*
X347500Y402500D02*
X347500Y402500D01*
X347500Y407500D02*
X347500Y407500D01*
X347500Y417500D02*
X358000D01*
X347500Y417500D02*
X347500Y417500D01*
Y422500D02*
X358000D01*
X347500Y407500D02*
X358000D01*
X347500Y422500D02*
X347500Y422500D01*
X347500Y442500D02*
X347500Y442500D01*
Y432500D02*
X358000D01*
X347500Y432500D02*
X347500Y432500D01*
Y437500D02*
X358000D01*
X347500Y437500D02*
X347500Y437500D01*
Y442500D02*
X358000D01*
X347500Y447500D02*
X358000D01*
X347500Y447500D02*
X347500Y447500D01*
X347500Y497500D02*
X358000D01*
X347500Y497500D02*
X347500Y497500D01*
X347500Y502500D02*
X358000D01*
X347500Y502500D02*
X347500Y502500D01*
Y507500D02*
X358000D01*
X347500Y507500D02*
X347500Y507500D01*
Y472500D02*
X358000D01*
X347500Y472500D02*
X347500Y472500D01*
Y477500D02*
X358000D01*
X347500Y477500D02*
X347500Y477500D01*
X347500Y482500D02*
X347500Y482500D01*
X358000D01*
X347500Y492500D02*
X358000D01*
X347500Y492500D02*
X347500Y492500D01*
X347500Y522500D02*
X358000D01*
X347500Y522500D02*
X347500Y522500D01*
X547000Y279000D02*
Y290000D01*
X373000Y353000D02*
X377500D01*
X423500Y510000D02*
X440000D01*
X377500Y556000D02*
X423500Y510000D01*
X531325Y555595D02*
X531340D01*
X467500Y341500D02*
Y353000D01*
X382500Y344000D02*
Y353000D01*
X653500Y764500D02*
X662500Y755500D01*
X667500Y677500D02*
Y725000D01*
X662500Y730500D02*
Y739500D01*
X657500Y725500D02*
X662500Y730500D01*
X658500Y805000D02*
X662500D01*
X610000Y635000D02*
X610000D01*
X612000Y629500D02*
X657500Y675000D01*
X617500Y627500D02*
X667500Y677500D01*
X611000Y573500D02*
X622500Y585000D01*
X632500Y570500D02*
Y620000D01*
X622500Y585000D02*
Y625000D01*
X627500Y582500D02*
Y622500D01*
X616000Y571000D02*
X627500Y582500D01*
X617500Y588000D02*
Y627500D01*
X599000Y542500D02*
X605500Y549000D01*
Y576000D02*
X617500Y588000D01*
X572000Y542500D02*
X599000D01*
X616000Y543000D02*
Y571000D01*
X611000Y546000D02*
Y573500D01*
X605500Y549000D02*
Y576000D01*
X612000Y590000D02*
Y629500D01*
X595000Y578500D02*
X600500D01*
X612000Y590000D01*
X657500Y675000D02*
Y725500D01*
X560000Y715000D02*
X577500Y697500D01*
X570500D02*
X592500Y675500D01*
X557000Y686000D02*
X565000Y678000D01*
X557000Y686000D02*
Y692500D01*
X577500Y697500D02*
X588000D01*
X592500Y668000D02*
Y675500D01*
X557000Y697500D02*
X570500D01*
X565000Y668000D02*
Y678000D01*
X555000Y602500D02*
Y665000D01*
X428650Y676350D02*
X435000Y670000D01*
X417000Y689050D02*
X429950D01*
X417000Y663650D02*
X426350D01*
X417000Y676350D02*
X428650D01*
X427500Y567000D02*
Y580000D01*
X432500Y567000D02*
Y581500D01*
X430000Y584000D02*
X432500Y581500D01*
X437500Y567000D02*
Y583000D01*
X435000Y585500D02*
X437500Y583000D01*
X430000Y584000D02*
Y660000D01*
X435000Y585500D02*
Y670000D01*
X426350Y663650D02*
X430000Y660000D01*
X417000Y645500D02*
Y650950D01*
X377500Y556000D02*
Y567000D01*
X392500D02*
Y577000D01*
X392500Y577000D02*
X392500Y577000D01*
X141500Y516750D02*
X141500Y516750D01*
X600500Y527500D02*
X616000Y543000D01*
X587790Y527500D02*
X587790Y527500D01*
X602500Y537500D02*
X611000Y546000D01*
X572000Y537500D02*
X602500D01*
X572000Y527500D02*
X587790D01*
X587790Y527500D02*
X600500D01*
X572000Y432500D02*
X612500D01*
X607500Y477500D02*
X623500Y493500D01*
X572000Y477500D02*
X607500D01*
X572000Y482500D02*
X607500D01*
X620000Y495000D01*
X537500Y585000D02*
X555000Y602500D01*
X552500Y567000D02*
Y577500D01*
X552500Y577500D02*
X552500Y577500D01*
X542500Y567000D02*
Y582500D01*
X537500Y567000D02*
Y585000D01*
D94*
X848000Y465000D02*
X848250Y464750D01*
Y452000D02*
Y464750D01*
X841750Y464750D02*
X842000Y465000D01*
X841750Y452000D02*
Y464750D01*
X848250Y592250D02*
X848500Y592500D01*
X848250Y579500D02*
Y592250D01*
X841750Y592750D02*
X842000Y593000D01*
X841750Y579500D02*
Y592750D01*
X205250Y692000D02*
Y704750D01*
X202000Y708000D02*
X205250Y704750D01*
X202000Y708000D02*
Y752500D01*
D95*
X737500Y547500D02*
Y559500D01*
X738000Y420000D02*
Y432000D01*
D96*
X906000Y660000D02*
Y675500D01*
X895000Y686500D02*
X906000Y675500D01*
X895000Y686500D02*
Y698500D01*
D97*
X132500Y301000D02*
Y313500D01*
X510000Y253500D02*
Y265000D01*
X617500Y748000D02*
Y758000D01*
D98*
X132500Y285000D02*
X145000D01*
D99*
X86000Y125500D02*
Y145000D01*
X299050Y196000D02*
X299050Y196000D01*
X299000Y182000D02*
X299025Y182025D01*
Y195975D02*
X299050Y196000D01*
X299025Y182025D02*
Y195975D01*
X273650Y196000D02*
X273825Y195825D01*
Y182175D02*
Y195825D01*
Y182175D02*
X274000Y182000D01*
X286425Y124075D02*
Y139925D01*
X286500Y140000D01*
X286350Y124000D02*
X286425Y124075D01*
X318500Y107500D02*
X318750Y107750D01*
Y123750D02*
X319000Y124000D01*
X318750Y107750D02*
Y123750D01*
X299050Y124000D02*
Y124000D01*
Y124000D02*
X319000D01*
X705500Y554556D02*
Y660000D01*
X764100Y718600D01*
Y779600D01*
X712556Y547500D02*
X727500D01*
X705500Y554556D02*
X712556Y547500D01*
X181000Y391500D02*
Y403000D01*
X177000Y387500D02*
X181000Y391500D01*
D100*
X141000Y145000D02*
Y194000D01*
D101*
X207500D02*
X217500D01*
X207500D02*
X207543Y193957D01*
X607050Y326550D02*
Y346950D01*
X607000Y347000D02*
X607050Y346950D01*
Y326550D02*
X607100Y326500D01*
X427000Y744000D02*
Y804000D01*
X428000D02*
X572000D01*
Y744000D02*
Y804000D01*
X202000Y752500D02*
Y768500D01*
X565000Y640000D02*
Y652000D01*
X592500Y640000D02*
Y652000D01*
X369000Y765000D02*
Y782000D01*
D102*
X607000Y347000D02*
Y357500D01*
D103*
X607100Y283500D02*
Y326500D01*
D104*
X155000Y726000D02*
X172500Y743500D01*
Y760000D01*
X72500Y746000D02*
X92500Y726000D01*
X72500Y746000D02*
Y760000D01*
X155000Y706000D02*
Y726000D01*
X92500Y706000D02*
Y726000D01*
X572000Y804000D02*
X590000D01*
X428000D02*
Y805000D01*
X427000Y804000D02*
X428000D01*
X573000Y775000D02*
X591000D01*
X304500Y740500D02*
Y752500D01*
X330500Y740500D02*
Y752500D01*
X573000Y775000D02*
X573000Y775000D01*
X895000Y402000D02*
X907500D01*
X893000Y382500D02*
X907500D01*
X893000Y510000D02*
X907500D01*
X895000Y529500D02*
X907500D01*
X583500Y562500D02*
X595000D01*
X535000Y627500D02*
Y652000D01*
D105*
X505850Y713150D02*
X510500Y708500D01*
X505850Y713150D02*
Y717350D01*
X509500Y721000D01*
X503150Y712031D02*
Y717350D01*
X499500Y721000D02*
X503150Y717350D01*
X509500Y721000D02*
X509500Y721000D01*
X509500Y721000D02*
Y736000D01*
X499500Y721000D02*
Y736000D01*
X507799Y589201D02*
Y707381D01*
X510500Y590319D02*
Y708500D01*
X503150Y712031D02*
X507799Y707381D01*
X484500Y721000D02*
X488150Y717350D01*
X492956Y706500D02*
X493000D01*
X490255Y707000D02*
X490299Y707044D01*
Y709732D01*
X488150Y711881D02*
X490299Y709732D01*
X493000Y706500D02*
Y710850D01*
X490850Y713000D02*
X493000Y710850D01*
X490850Y713000D02*
Y717350D01*
X494500Y721000D01*
X488150Y711881D02*
Y717350D01*
X494500Y721000D02*
X494500Y721000D01*
X494500Y721000D02*
Y736000D01*
X484500Y721000D02*
Y736000D01*
X507799Y589201D02*
X513650Y583350D01*
X510500Y590319D02*
X516350Y584469D01*
X460160Y707840D02*
Y707840D01*
X460850Y708531D01*
X455299Y706799D02*
X458150Y709650D01*
X460850Y708531D02*
Y717350D01*
X464500Y721000D01*
X458150Y709650D02*
Y717350D01*
X473150Y588350D02*
Y717350D01*
Y588350D02*
X478650Y582850D01*
X475850Y589469D02*
Y717350D01*
Y589469D02*
X481350Y583969D01*
X492956Y587363D02*
Y706500D01*
X490255Y586245D02*
Y707000D01*
X469500Y721000D02*
X473150Y717350D01*
X475850D02*
X479500Y721000D01*
X458000Y705681D02*
X460160Y707840D01*
X464500Y721000D02*
X464500Y721000D01*
X464500Y721000D02*
Y736000D01*
X454500Y721000D02*
X458150Y717350D01*
X454500Y721000D02*
Y736000D01*
X479500Y721000D02*
X479500Y721000D01*
X479500Y721000D02*
Y736000D01*
X469500Y721000D02*
Y736000D01*
X458000Y592319D02*
Y705681D01*
X455299Y591201D02*
Y706799D01*
X516350Y577650D02*
Y584469D01*
X513650Y577650D02*
Y583350D01*
X496350Y577650D02*
Y583969D01*
X493650Y577650D02*
Y582850D01*
X490255Y586245D02*
X493650Y582850D01*
X492956Y587363D02*
X496350Y583969D01*
X481350Y577650D02*
Y583969D01*
X478650Y577650D02*
Y582850D01*
X463650Y577650D02*
Y582850D01*
X466350Y577650D02*
Y583969D01*
X455299Y591201D02*
X463650Y582850D01*
X458000Y592319D02*
X466350Y583969D01*
X516350Y577650D02*
X517500Y576500D01*
Y567000D02*
Y576500D01*
X467500Y567000D02*
Y576500D01*
X466350Y577650D02*
X467500Y576500D01*
X462500D02*
X463650Y577650D01*
X462500Y567000D02*
Y576500D01*
X477500Y567000D02*
Y576500D01*
X478650Y577650D01*
X481350Y577650D02*
X482500Y576500D01*
Y567000D02*
Y576500D01*
X492500D02*
X492500Y576500D01*
X497500Y567000D02*
Y576500D01*
X492500Y567000D02*
Y576500D01*
X492500Y576500D02*
X493650Y577650D01*
X512500Y567000D02*
Y576500D01*
X513650Y577650D01*
X496350D02*
X497500Y576500D01*
D106*
X750000Y542500D02*
X762000D01*
X750500Y415000D02*
X762500D01*
D107*
X572000Y804000D02*
D03*
X427000D02*
D03*
D108*
X572000Y744000D02*
D03*
X427000D02*
D03*
D109*
X305000Y82500D02*
D03*
Y57100D02*
D03*
X662500Y805000D02*
D03*
X687900Y779600D02*
D03*
Y805000D02*
D03*
X713300Y779600D02*
D03*
Y805000D02*
D03*
X738700Y779600D02*
D03*
Y805000D02*
D03*
X764100Y779600D02*
D03*
Y805000D02*
D03*
X789500Y779600D02*
D03*
Y805000D02*
D03*
D110*
X305000Y31700D02*
D03*
D111*
X418250Y157500D02*
D03*
X460160D02*
D03*
X502070D02*
D03*
Y192500D02*
D03*
X418250D02*
D03*
X544000D02*
D03*
X460160D02*
D03*
X768660D02*
D03*
X852500D02*
D03*
X726750D02*
D03*
X810570D02*
D03*
Y157500D02*
D03*
X768660D02*
D03*
X726750D02*
D03*
D112*
X379000Y70000D02*
D03*
X584000D02*
D03*
X892500D02*
D03*
X687500D02*
D03*
D113*
X172500Y760000D02*
D03*
X147500D02*
D03*
X97500D02*
D03*
X72500D02*
D03*
D114*
X122500Y810000D02*
D03*
D115*
X662500Y779600D02*
D03*
D116*
X895000Y701000D02*
D03*
D117*
Y763000D02*
D03*
D118*
X848000Y733000D02*
D03*
D119*
X104000Y208500D02*
D03*
X454500Y814000D02*
D03*
X487000D02*
D03*
X552000D02*
D03*
X519500D02*
D03*
X419000Y612500D02*
D03*
X119000Y162500D02*
D03*
X587500Y390000D02*
D03*
X534500Y292000D02*
D03*
X174000Y160000D02*
D03*
X97000D02*
D03*
X108000D02*
D03*
X152000D02*
D03*
X141000Y194000D02*
D03*
X527500Y310000D02*
D03*
X531000Y335500D02*
D03*
X540000Y337500D02*
D03*
X462500Y338500D02*
D03*
X438500Y335000D02*
D03*
X375014Y337210D02*
D03*
X361688Y341688D02*
D03*
X141000Y530000D02*
D03*
X448000Y621500D02*
D03*
X465500D02*
D03*
X483000D02*
D03*
X500500D02*
D03*
X518000D02*
D03*
X448000Y594000D02*
D03*
Y649000D02*
D03*
Y676500D02*
D03*
Y704000D02*
D03*
X465500D02*
D03*
Y676500D02*
D03*
Y649000D02*
D03*
Y594000D02*
D03*
X483000D02*
D03*
X500500D02*
D03*
X518000D02*
D03*
X500500Y649000D02*
D03*
X518000D02*
D03*
X500500Y676500D02*
D03*
X518000D02*
D03*
X500500Y704000D02*
D03*
X518000D02*
D03*
X395000Y612500D02*
D03*
X400000Y620000D02*
D03*
X380000Y590000D02*
D03*
X375000Y582500D02*
D03*
X390000Y605000D02*
D03*
X419000Y582500D02*
D03*
X385000Y597500D02*
D03*
X459500Y755500D02*
D03*
X474500D02*
D03*
X489500D02*
D03*
X504500D02*
D03*
X601500Y699500D02*
D03*
X483000Y676500D02*
D03*
Y649000D02*
D03*
Y704000D02*
D03*
X109000Y550000D02*
D03*
X117000Y545000D02*
D03*
X125000Y540000D02*
D03*
X133000Y535000D02*
D03*
X315000Y196000D02*
D03*
X587790Y527500D02*
D03*
X163000Y160000D02*
D03*
X101000Y555000D02*
D03*
X145000Y285000D02*
D03*
X680000Y725000D02*
D03*
X667500D02*
D03*
D120*
X176000Y789000D02*
D03*
X69000D02*
D03*
X117000Y490500D02*
D03*
X555000Y750000D02*
D03*
X899500Y180500D02*
D03*
Y233500D02*
D03*
X762500Y666000D02*
D03*
X812762Y779544D02*
D03*
Y749544D02*
D03*
Y719544D02*
D03*
X761500Y233500D02*
D03*
X833000D02*
D03*
X74500Y64000D02*
D03*
Y23500D02*
D03*
X229500D02*
D03*
Y64000D02*
D03*
X57500Y44000D02*
D03*
X189000Y90500D02*
D03*
X102500Y62000D02*
D03*
X182500D02*
D03*
X970000Y777000D02*
D03*
Y747000D02*
D03*
Y717000D02*
D03*
X865000Y733000D02*
D03*
X895000D02*
D03*
X925000D02*
D03*
X829000Y805000D02*
D03*
X859000D02*
D03*
X889000D02*
D03*
X82500Y515500D02*
D03*
Y463000D02*
D03*
Y405000D02*
D03*
X155000Y685000D02*
D03*
X252500Y785000D02*
D03*
X443500D02*
D03*
Y765000D02*
D03*
X758500Y70000D02*
D03*
X829000D02*
D03*
X758500Y127000D02*
D03*
X688000D02*
D03*
X829000D02*
D03*
X899500D02*
D03*
X589500D02*
D03*
X518000D02*
D03*
X92500Y685000D02*
D03*
X148500Y789000D02*
D03*
X96500D02*
D03*
X515500Y774000D02*
D03*
X552500Y763000D02*
D03*
X595000Y754000D02*
D03*
X534000Y778000D02*
D03*
X497500Y765000D02*
D03*
Y218000D02*
D03*
X952500Y341000D02*
D03*
X922500D02*
D03*
X892500D02*
D03*
X832000Y340500D02*
D03*
X802000D02*
D03*
X772000D02*
D03*
X642000Y432500D02*
D03*
X690000Y233500D02*
D03*
X618500D02*
D03*
X690000Y334500D02*
D03*
X720000Y301000D02*
D03*
X589500Y173500D02*
D03*
X688000D02*
D03*
X591000Y418000D02*
D03*
X663000Y407000D02*
D03*
Y377000D02*
D03*
X616500Y407000D02*
D03*
Y377000D02*
D03*
X588500Y255500D02*
D03*
Y295500D02*
D03*
X589000Y334500D02*
D03*
X383500Y127000D02*
D03*
X447500D02*
D03*
X518000Y70000D02*
D03*
X447500D02*
D03*
X701500Y377000D02*
D03*
Y407000D02*
D03*
X650000Y478000D02*
D03*
X700000D02*
D03*
X675000D02*
D03*
X334000Y210500D02*
D03*
X229500Y90500D02*
D03*
X143000Y40000D02*
D03*
X74500Y89500D02*
D03*
X196500Y233000D02*
D03*
X200000Y157500D02*
D03*
X471500Y218000D02*
D03*
X440000D02*
D03*
X384000Y161000D02*
D03*
X525000Y264500D02*
D03*
X260500Y161000D02*
D03*
X356000Y237000D02*
D03*
X382000D02*
D03*
X239000Y194000D02*
D03*
X266000Y218000D02*
D03*
X286000Y238500D02*
D03*
X55500Y206500D02*
D03*
X87500Y239500D02*
D03*
X176500Y295000D02*
D03*
X250500Y245000D02*
D03*
X213500Y249500D02*
D03*
X147000Y463000D02*
D03*
X117000Y433000D02*
D03*
X82500Y360000D02*
D03*
Y560500D02*
D03*
X675000Y623500D02*
D03*
Y593500D02*
D03*
Y563500D02*
D03*
Y533500D02*
D03*
X625500Y775000D02*
D03*
Y804000D02*
D03*
X813000Y623500D02*
D03*
X61000Y622500D02*
D03*
X124500D02*
D03*
X177000D02*
D03*
X189500Y706000D02*
D03*
X278500Y785000D02*
D03*
X304500D02*
D03*
X330500D02*
D03*
X189500Y662000D02*
D03*
X783000Y623500D02*
D03*
X753000D02*
D03*
X723000D02*
D03*
Y502500D02*
D03*
X753000D02*
D03*
X783000D02*
D03*
X337500Y670500D02*
D03*
X317500Y705500D02*
D03*
Y670500D02*
D03*
Y635000D02*
D03*
X237500Y670000D02*
D03*
X413500Y765000D02*
D03*
X124500Y706000D02*
D03*
X230500Y359500D02*
D03*
X260500D02*
D03*
X290500D02*
D03*
X320500D02*
D03*
X349500Y635000D02*
D03*
X379500D02*
D03*
X409500D02*
D03*
X237500Y648000D02*
D03*
X274500Y617500D02*
D03*
X320500Y556000D02*
D03*
X290500D02*
D03*
X260500D02*
D03*
X230500D02*
D03*
X463000Y404000D02*
D03*
X502000D02*
D03*
X411000Y438000D02*
D03*
X531500Y430000D02*
D03*
X437500Y385000D02*
D03*
X521000Y404000D02*
D03*
X597000Y515000D02*
D03*
X551500Y487500D02*
D03*
X521500Y495000D02*
D03*
X497500Y532000D02*
D03*
X537000Y531000D02*
D03*
X595000Y732500D02*
D03*
X617500Y679000D02*
D03*
X540000Y518000D02*
D03*
X482000Y495000D02*
D03*
X439500D02*
D03*
X411000D02*
D03*
X429500Y526500D02*
D03*
X553000Y387500D02*
D03*
X457500Y372000D02*
D03*
X565500Y622500D02*
D03*
X576000Y678500D02*
D03*
X553000Y530500D02*
D03*
X504500Y485000D02*
D03*
X462000D02*
D03*
X575000Y585000D02*
D03*
X600000Y607500D02*
D03*
X132500Y313500D02*
D03*
X430000Y419500D02*
D03*
X377000Y378000D02*
D03*
Y468500D02*
D03*
Y446500D02*
D03*
X295000Y416500D02*
D03*
X497500Y548000D02*
D03*
X472500D02*
D03*
X452500D02*
D03*
X299000Y182000D02*
D03*
X274000D02*
D03*
X318500Y107500D02*
D03*
X141000Y387500D02*
D03*
X387500Y337000D02*
D03*
X320000Y484000D02*
D03*
Y431000D02*
D03*
X186500Y426000D02*
D03*
X333500Y431000D02*
D03*
X186500Y497500D02*
D03*
X333500Y484000D02*
D03*
X307500Y535000D02*
D03*
X337500D02*
D03*
X863500Y584000D02*
D03*
X863000Y457500D02*
D03*
X192500Y532500D02*
D03*
X177500D02*
D03*
X193000Y387500D02*
D03*
X177000D02*
D03*
X550000Y264500D02*
D03*
X510000Y265000D02*
D03*
X747500Y547500D02*
D03*
X737500Y537500D02*
D03*
X727500D02*
D03*
X747500Y538000D02*
D03*
X745000Y582500D02*
D03*
X730000D02*
D03*
X737500Y547500D02*
D03*
X727500D02*
D03*
X792000D02*
D03*
X592500Y551000D02*
D03*
Y640000D02*
D03*
X547500Y640000D02*
D03*
X535000Y627500D02*
D03*
X565000Y640000D02*
D03*
X507500Y372000D02*
D03*
X553000Y417500D02*
D03*
X490000Y419500D02*
D03*
X607000Y357500D02*
D03*
X377000Y403000D02*
D03*
X412000Y372000D02*
D03*
X792000Y420000D02*
D03*
X728000Y410000D02*
D03*
X738000D02*
D03*
X748000Y410500D02*
D03*
X728000Y420000D02*
D03*
X738000D02*
D03*
X730000Y455000D02*
D03*
X745000D02*
D03*
X748000Y420000D02*
D03*
X497500Y510000D02*
D03*
X422500Y547500D02*
D03*
X377000Y525000D02*
D03*
X440000Y510000D02*
D03*
X427500Y457500D02*
D03*
X907500Y402000D02*
D03*
Y510000D02*
D03*
Y529500D02*
D03*
X860000Y471000D02*
D03*
X850000D02*
D03*
X830000D02*
D03*
X860000Y598500D02*
D03*
X840000D02*
D03*
X850000D02*
D03*
X830000D02*
D03*
X840000Y471000D02*
D03*
X922500Y300000D02*
D03*
X907500Y382500D02*
D03*
X347500Y652500D02*
D03*
X207000Y194000D02*
D03*
X86000Y125500D02*
D03*
X583500Y562500D02*
D03*
X607500Y515000D02*
D03*
X225000Y157500D02*
D03*
X235000D02*
D03*
X286500Y140000D02*
D03*
X77500Y300000D02*
D03*
X939500Y687500D02*
D03*
Y697500D02*
D03*
X949500D02*
D03*
X959500D02*
D03*
X287500Y652500D02*
D03*
X949500Y687500D02*
D03*
X959500Y688000D02*
D03*
X207500Y772500D02*
D03*
X197500D02*
D03*
X237500Y695000D02*
D03*
X364000Y785000D02*
D03*
X374000D02*
D03*
X330500Y752500D02*
D03*
X304500D02*
D03*
X617500Y758000D02*
D03*
M02*
