M48
;Layer_Color=9474304
;FILE_FORMAT=4:4
METRIC,LZ
;TYPE=PLATED
T3F00S00C0.8000
T4F00S00C0.9000
T7F00S00C3.9000
;TYPE=NON_PLATED
%
G90
G05
T03
G00X00848Y00744
M15
G01Y00722
M16
G00X00906Y00763
M15
G01X00884
M16
G00X009085Y00701
M15
G01X008815
M16
T04
G00X00427Y007515
M15
G01Y007365
M16
G00X00572Y007515
M15
G01Y007365
M16
G00X00572Y00807
M15
G01Y00801
M16
G00X00427Y00807
M15
G01Y00801
M16
T07
G00X00584Y000685
M15
G01Y000715
M16
G00X006875Y000685
M15
G01Y000715
M16
G00X008925Y000685
M15
G01Y000715
M16
G00X00379Y000685
M15
G01Y000715
M16
M17
M30
