G04*
G04 #@! TF.GenerationSoftware,Altium Limited,Altium Designer,23.4.1 (23)*
G04*
G04 Layer_Color=32896*
%FSLAX44Y44*%
%MOMM*%
G71*
G04*
G04 #@! TF.SameCoordinates,0BEE9D39-8D09-447D-96B2-328BBDF68ADB*
G04*
G04*
G04 #@! TF.FilePolarity,Positive*
G04*
G01*
G75*
%ADD14C,0.2000*%
%ADD16C,0.1270*%
D14*
X514500Y793500D02*
X524500D01*
X514500Y811500D02*
X524500D01*
D16*
X548500Y806809D02*
X553578D01*
Y803000D01*
X551039D01*
X553578D01*
Y799191D01*
X545961D02*
X543422D01*
X544691D01*
Y806809D01*
X545961Y805539D01*
X370157Y159534D02*
Y167151D01*
X366348D01*
X365078Y165882D01*
Y163342D01*
X366348Y162073D01*
X370157D01*
X367617D02*
X365078Y159534D01*
X357461Y167151D02*
X362539D01*
Y163342D01*
X360000Y164612D01*
X358730D01*
X357461Y163342D01*
Y160803D01*
X358730Y159534D01*
X361269D01*
X362539Y160803D01*
X349843Y159534D02*
X354921D01*
X349843Y164612D01*
Y165882D01*
X351113Y167151D01*
X353652D01*
X354921Y165882D01*
X369157Y178691D02*
Y186309D01*
X365348D01*
X364078Y185039D01*
Y182500D01*
X365348Y181231D01*
X369157D01*
X366618D02*
X364078Y178691D01*
X356461Y186309D02*
X361539D01*
Y182500D01*
X359000Y183770D01*
X357730D01*
X356461Y182500D01*
Y179961D01*
X357730Y178691D01*
X360270D01*
X361539Y179961D01*
X353922Y185039D02*
X352652Y186309D01*
X350113D01*
X348843Y185039D01*
Y179961D01*
X350113Y178691D01*
X352652D01*
X353922Y179961D01*
Y185039D01*
X206191Y740843D02*
X213809D01*
Y744652D01*
X212539Y745922D01*
X210000D01*
X208730Y744652D01*
Y740843D01*
Y743382D02*
X206191Y745922D01*
X212539Y748461D02*
X213809Y749730D01*
Y752270D01*
X212539Y753539D01*
X211270D01*
X210000Y752270D01*
Y751000D01*
Y752270D01*
X208730Y753539D01*
X207461D01*
X206191Y752270D01*
Y749730D01*
X207461Y748461D01*
X213809Y756078D02*
Y761157D01*
X212539D01*
X207461Y756078D01*
X206191D01*
X31191Y757843D02*
X38809D01*
Y761652D01*
X37539Y762922D01*
X35000D01*
X33730Y761652D01*
Y757843D01*
Y760383D02*
X31191Y762922D01*
X37539Y765461D02*
X38809Y766730D01*
Y769270D01*
X37539Y770539D01*
X36270D01*
X35000Y769270D01*
Y768000D01*
Y769270D01*
X33730Y770539D01*
X32461D01*
X31191Y769270D01*
Y766730D01*
X32461Y765461D01*
X38809Y778157D02*
X37539Y775618D01*
X35000Y773078D01*
X32461D01*
X31191Y774348D01*
Y776887D01*
X32461Y778157D01*
X33730D01*
X35000Y776887D01*
Y773078D01*
X247691Y719843D02*
X255309D01*
Y723652D01*
X254039Y724922D01*
X251500D01*
X250230Y723652D01*
Y719843D01*
Y722383D02*
X247691Y724922D01*
Y732539D02*
Y727461D01*
X252770Y732539D01*
X254039D01*
X255309Y731270D01*
Y728730D01*
X254039Y727461D01*
X248961Y735078D02*
X247691Y736348D01*
Y738887D01*
X248961Y740157D01*
X254039D01*
X255309Y738887D01*
Y736348D01*
X254039Y735078D01*
X252770D01*
X251500Y736348D01*
Y740157D01*
X575157Y320191D02*
Y327809D01*
X571348D01*
X570078Y326539D01*
Y324000D01*
X571348Y322730D01*
X575157D01*
X572617D02*
X570078Y320191D01*
X562461Y327809D02*
X567539D01*
Y324000D01*
X565000Y325270D01*
X563730D01*
X562461Y324000D01*
Y321461D01*
X563730Y320191D01*
X566270D01*
X567539Y321461D01*
X556113Y320191D02*
Y327809D01*
X559922Y324000D01*
X554843D01*
X104157Y88691D02*
Y96309D01*
X100348D01*
X99078Y95039D01*
Y92500D01*
X100348Y91230D01*
X104157D01*
X101617D02*
X99078Y88691D01*
X96539Y95039D02*
X95270Y96309D01*
X92730D01*
X91461Y95039D01*
Y93770D01*
X92730Y92500D01*
X94000D01*
X92730D01*
X91461Y91230D01*
Y89961D01*
X92730Y88691D01*
X95270D01*
X96539Y89961D01*
X83843Y96309D02*
X88922D01*
Y92500D01*
X86382Y93770D01*
X85113D01*
X83843Y92500D01*
Y89961D01*
X85113Y88691D01*
X87652D01*
X88922Y89961D01*
X576157Y246941D02*
Y254559D01*
X572348D01*
X571078Y253289D01*
Y250750D01*
X572348Y249480D01*
X576157D01*
X573618D02*
X571078Y246941D01*
X563461Y254559D02*
X568539D01*
Y250750D01*
X566000Y252020D01*
X564730D01*
X563461Y250750D01*
Y248211D01*
X564730Y246941D01*
X567270D01*
X568539Y248211D01*
X560922Y253289D02*
X559652Y254559D01*
X557113D01*
X555843Y253289D01*
Y252020D01*
X557113Y250750D01*
X555843Y249480D01*
Y248211D01*
X557113Y246941D01*
X559652D01*
X560922Y248211D01*
Y249480D01*
X559652Y250750D01*
X560922Y252020D01*
Y253289D01*
X559652Y250750D02*
X557113D01*
X405157Y306441D02*
Y314059D01*
X401348D01*
X400078Y312789D01*
Y310250D01*
X401348Y308981D01*
X405157D01*
X402617D02*
X400078Y306441D01*
X392461Y314059D02*
X397539D01*
Y310250D01*
X395000Y311520D01*
X393730D01*
X392461Y310250D01*
Y307711D01*
X393730Y306441D01*
X396270D01*
X397539Y307711D01*
X384843Y314059D02*
X387382Y312789D01*
X389922Y310250D01*
Y307711D01*
X388652Y306441D01*
X386113D01*
X384843Y307711D01*
Y308981D01*
X386113Y310250D01*
X389922D01*
X368887Y139191D02*
Y146809D01*
X365078D01*
X363809Y145539D01*
Y143000D01*
X365078Y141730D01*
X368887D01*
X366348D02*
X363809Y139191D01*
X356191Y146809D02*
X361270D01*
Y143000D01*
X358730Y144270D01*
X357461D01*
X356191Y143000D01*
Y140461D01*
X357461Y139191D01*
X360000D01*
X361270Y140461D01*
X353652Y139191D02*
X351113D01*
X352382D01*
Y146809D01*
X353652Y145539D01*
X159157Y357191D02*
Y364809D01*
X155348D01*
X154078Y363539D01*
Y361000D01*
X155348Y359730D01*
X159157D01*
X156617D02*
X154078Y357191D01*
X147730D02*
Y364809D01*
X151539Y361000D01*
X146461D01*
X143922Y358461D02*
X142652Y357191D01*
X140113D01*
X138843Y358461D01*
Y363539D01*
X140113Y364809D01*
X142652D01*
X143922Y363539D01*
Y362270D01*
X142652Y361000D01*
X138843D01*
X620157Y536691D02*
Y544309D01*
X616348D01*
X615078Y543039D01*
Y540500D01*
X616348Y539230D01*
X620157D01*
X617617D02*
X615078Y536691D01*
X608730D02*
Y544309D01*
X612539Y540500D01*
X607461D01*
X599843Y536691D02*
X604922D01*
X599843Y541770D01*
Y543039D01*
X601113Y544309D01*
X603652D01*
X604922Y543039D01*
X93191Y203343D02*
X100809D01*
Y207152D01*
X99539Y208422D01*
X97000D01*
X95730Y207152D01*
Y203343D01*
Y205882D02*
X93191Y208422D01*
X99539Y210961D02*
X100809Y212230D01*
Y214770D01*
X99539Y216039D01*
X98270D01*
X97000Y214770D01*
Y213500D01*
Y214770D01*
X95730Y216039D01*
X94461D01*
X93191Y214770D01*
Y212230D01*
X94461Y210961D01*
X93191Y222387D02*
X100809D01*
X97000Y218578D01*
Y223657D01*
X186191Y203343D02*
X193809D01*
Y207152D01*
X192539Y208422D01*
X190000D01*
X188730Y207152D01*
Y203343D01*
Y205882D02*
X186191Y208422D01*
X192539Y210961D02*
X193809Y212230D01*
Y214770D01*
X192539Y216039D01*
X191270D01*
X190000Y214770D01*
Y213500D01*
Y214770D01*
X188730Y216039D01*
X187461D01*
X186191Y214770D01*
Y212230D01*
X187461Y210961D01*
X192539Y218578D02*
X193809Y219848D01*
Y222387D01*
X192539Y223657D01*
X191270D01*
X190000Y222387D01*
Y221118D01*
Y222387D01*
X188730Y223657D01*
X187461D01*
X186191Y222387D01*
Y219848D01*
X187461Y218578D01*
X116691Y203343D02*
X124309D01*
Y207152D01*
X123039Y208422D01*
X120500D01*
X119230Y207152D01*
Y203343D01*
Y205882D02*
X116691Y208422D01*
X123039Y210961D02*
X124309Y212230D01*
Y214770D01*
X123039Y216039D01*
X121770D01*
X120500Y214770D01*
Y213500D01*
Y214770D01*
X119230Y216039D01*
X117961D01*
X116691Y214770D01*
Y212230D01*
X117961Y210961D01*
X116691Y223657D02*
Y218578D01*
X121770Y223657D01*
X123039D01*
X124309Y222387D01*
Y219848D01*
X123039Y218578D01*
X151191Y204113D02*
X158809D01*
Y207922D01*
X157539Y209191D01*
X155000D01*
X153730Y207922D01*
Y204113D01*
Y206652D02*
X151191Y209191D01*
X157539Y211730D02*
X158809Y213000D01*
Y215539D01*
X157539Y216809D01*
X156270D01*
X155000Y215539D01*
Y214270D01*
Y215539D01*
X153730Y216809D01*
X152461D01*
X151191Y215539D01*
Y213000D01*
X152461Y211730D01*
X151191Y219348D02*
Y221887D01*
Y220618D01*
X158809D01*
X157539Y219348D01*
X168691Y203343D02*
X176309D01*
Y207152D01*
X175039Y208422D01*
X172500D01*
X171230Y207152D01*
Y203343D01*
Y205882D02*
X168691Y208422D01*
X175039Y210961D02*
X176309Y212230D01*
Y214770D01*
X175039Y216039D01*
X173770D01*
X172500Y214770D01*
Y213500D01*
Y214770D01*
X171230Y216039D01*
X169961D01*
X168691Y214770D01*
Y212230D01*
X169961Y210961D01*
X175039Y218578D02*
X176309Y219848D01*
Y222387D01*
X175039Y223657D01*
X169961D01*
X168691Y222387D01*
Y219848D01*
X169961Y218578D01*
X175039D01*
X296191Y722343D02*
X303809D01*
Y726152D01*
X302539Y727422D01*
X300000D01*
X298730Y726152D01*
Y722343D01*
Y724883D02*
X296191Y727422D01*
Y735039D02*
Y729961D01*
X301270Y735039D01*
X302539D01*
X303809Y733770D01*
Y731230D01*
X302539Y729961D01*
Y737578D02*
X303809Y738848D01*
Y741387D01*
X302539Y742657D01*
X301270D01*
X300000Y741387D01*
Y740118D01*
Y741387D01*
X298730Y742657D01*
X297461D01*
X296191Y741387D01*
Y738848D01*
X297461Y737578D01*
X331191Y723613D02*
X338809D01*
Y727422D01*
X337539Y728691D01*
X335000D01*
X333730Y727422D01*
Y723613D01*
Y726152D02*
X331191Y728691D01*
Y736309D02*
Y731230D01*
X336270Y736309D01*
X337539D01*
X338809Y735039D01*
Y732500D01*
X337539Y731230D01*
X331191Y738848D02*
Y741387D01*
Y740117D01*
X338809D01*
X337539Y738848D01*
X475691Y808478D02*
X483309D01*
Y812287D01*
X482039Y813556D01*
X479500D01*
X478230Y812287D01*
Y808478D01*
Y811017D02*
X475691Y813556D01*
Y816096D02*
Y818635D01*
Y817365D01*
X483309D01*
X482039Y816096D01*
Y822444D02*
X483309Y823713D01*
Y826252D01*
X482039Y827522D01*
X480770D01*
X479500Y826252D01*
Y824983D01*
Y826252D01*
X478230Y827522D01*
X476961D01*
X475691Y826252D01*
Y823713D01*
X476961Y822444D01*
X455691Y808478D02*
X463309D01*
Y812287D01*
X462039Y813556D01*
X459500D01*
X458231Y812287D01*
Y808478D01*
Y811017D02*
X455691Y813556D01*
Y816096D02*
Y818635D01*
Y817365D01*
X463309D01*
X462039Y816096D01*
X455691Y827522D02*
Y822444D01*
X460770Y827522D01*
X462039D01*
X463309Y826252D01*
Y823713D01*
X462039Y822444D01*
X593752Y772191D02*
Y779809D01*
X589944D01*
X588674Y778539D01*
Y776000D01*
X589944Y774730D01*
X593752D01*
X591213D02*
X588674Y772191D01*
X586135D02*
X583596D01*
X584865D01*
Y779809D01*
X586135Y778539D01*
X579787Y772191D02*
X577248D01*
X578517D01*
Y779809D01*
X579787Y778539D01*
X806568Y462131D02*
Y469749D01*
X802759D01*
X801490Y468479D01*
Y465940D01*
X802759Y464670D01*
X806568D01*
X804029D02*
X801490Y462131D01*
X798950Y463401D02*
X797681Y462131D01*
X795142D01*
X793872Y463401D01*
Y468479D01*
X795142Y469749D01*
X797681D01*
X798950Y468479D01*
Y467210D01*
X797681Y465940D01*
X793872D01*
X811818Y416131D02*
Y423749D01*
X808009D01*
X806740Y422479D01*
Y419940D01*
X808009Y418670D01*
X811818D01*
X809279D02*
X806740Y416131D01*
X804200Y423749D02*
X799122D01*
Y422479D01*
X804200Y417401D01*
Y416131D01*
X805968Y590669D02*
Y598286D01*
X802159D01*
X800890Y597017D01*
Y594478D01*
X802159Y593208D01*
X805968D01*
X803429D02*
X800890Y590669D01*
X793272Y598286D02*
X798350D01*
Y594478D01*
X795811Y595747D01*
X794542D01*
X793272Y594478D01*
Y591938D01*
X794542Y590669D01*
X797081D01*
X798350Y591938D01*
X811948Y540891D02*
Y548509D01*
X808139D01*
X806870Y547239D01*
Y544700D01*
X808139Y543430D01*
X811948D01*
X809409D02*
X806870Y540891D01*
X804330Y547239D02*
X803061Y548509D01*
X800522D01*
X799252Y547239D01*
Y545970D01*
X800522Y544700D01*
X801791D01*
X800522D01*
X799252Y543430D01*
Y542161D01*
X800522Y540891D01*
X803061D01*
X804330Y542161D01*
X69539Y208422D02*
X70809Y207152D01*
Y204613D01*
X69539Y203343D01*
X64461D01*
X63191Y204613D01*
Y207152D01*
X64461Y208422D01*
X63191Y214770D02*
X70809D01*
X67000Y210961D01*
Y216039D01*
X63191Y223657D02*
Y218578D01*
X68270Y223657D01*
X69539D01*
X70809Y222387D01*
Y219848D01*
X69539Y218578D01*
X359918Y436479D02*
X361188Y437749D01*
X363727D01*
X364997Y436479D01*
Y431401D01*
X363727Y430131D01*
X361188D01*
X359918Y431401D01*
X352301Y430131D02*
X357379D01*
X352301Y435210D01*
Y436479D01*
X353570Y437749D01*
X356110D01*
X357379Y436479D01*
X349762Y437749D02*
X344683D01*
Y436479D01*
X349762Y431401D01*
Y430131D01*
X550078Y565039D02*
X551348Y566309D01*
X553887D01*
X555157Y565039D01*
Y559961D01*
X553887Y558691D01*
X551348D01*
X550078Y559961D01*
X542461Y558691D02*
X547539D01*
X542461Y563770D01*
Y565039D01*
X543730Y566309D01*
X546270D01*
X547539Y565039D01*
X534843Y566309D02*
X537382Y565039D01*
X539922Y562500D01*
Y559961D01*
X538652Y558691D01*
X536113D01*
X534843Y559961D01*
Y561230D01*
X536113Y562500D01*
X539922D01*
X359918Y392479D02*
X361188Y393749D01*
X363727D01*
X364997Y392479D01*
Y387401D01*
X363727Y386131D01*
X361188D01*
X359918Y387401D01*
X352301Y386131D02*
X357379D01*
X352301Y391210D01*
Y392479D01*
X353570Y393749D01*
X356110D01*
X357379Y392479D01*
X344683Y393749D02*
X349762D01*
Y389940D01*
X347223Y391210D01*
X345953D01*
X344683Y389940D01*
Y387401D01*
X345953Y386131D01*
X348492D01*
X349762Y387401D01*
X359578Y418582D02*
X360848Y419851D01*
X363387D01*
X364657Y418582D01*
Y413503D01*
X363387Y412234D01*
X360848D01*
X359578Y413503D01*
X351961Y412234D02*
X357039D01*
X351961Y417312D01*
Y418582D01*
X353230Y419851D01*
X355770D01*
X357039Y418582D01*
X345613Y412234D02*
Y419851D01*
X349422Y416043D01*
X344343D01*
X497578Y356539D02*
X498848Y357809D01*
X501387D01*
X502657Y356539D01*
Y351461D01*
X501387Y350191D01*
X498848D01*
X497578Y351461D01*
X489961Y350191D02*
X495039D01*
X489961Y355270D01*
Y356539D01*
X491230Y357809D01*
X493770D01*
X495039Y356539D01*
X487422D02*
X486152Y357809D01*
X483613D01*
X482343Y356539D01*
Y355270D01*
X483613Y354000D01*
X484882D01*
X483613D01*
X482343Y352730D01*
Y351461D01*
X483613Y350191D01*
X486152D01*
X487422Y351461D01*
X359918Y514979D02*
X361188Y516249D01*
X363727D01*
X364997Y514979D01*
Y509901D01*
X363727Y508631D01*
X361188D01*
X359918Y509901D01*
X352301Y508631D02*
X357379D01*
X352301Y513710D01*
Y514979D01*
X353570Y516249D01*
X356110D01*
X357379Y514979D01*
X344683Y508631D02*
X349762D01*
X344683Y513710D01*
Y514979D01*
X345953Y516249D01*
X348492D01*
X349762Y514979D01*
X472809Y356539D02*
X474078Y357809D01*
X476618D01*
X477887Y356539D01*
Y351461D01*
X476618Y350191D01*
X474078D01*
X472809Y351461D01*
X465191Y350191D02*
X470270D01*
X465191Y355270D01*
Y356539D01*
X466461Y357809D01*
X469000D01*
X470270Y356539D01*
X462652Y350191D02*
X460113D01*
X461382D01*
Y357809D01*
X462652Y356539D01*
X578578Y408039D02*
X579848Y409309D01*
X582387D01*
X583657Y408039D01*
Y402961D01*
X582387Y401691D01*
X579848D01*
X578578Y402961D01*
X570961Y401691D02*
X576039D01*
X570961Y406770D01*
Y408039D01*
X572230Y409309D01*
X574770D01*
X576039Y408039D01*
X568422D02*
X567152Y409309D01*
X564613D01*
X563343Y408039D01*
Y402961D01*
X564613Y401691D01*
X567152D01*
X568422Y402961D01*
Y408039D01*
X514444Y568539D02*
X515713Y569809D01*
X518252D01*
X519522Y568539D01*
Y563461D01*
X518252Y562191D01*
X515713D01*
X514444Y563461D01*
X511904Y562191D02*
X509365D01*
X510635D01*
Y569809D01*
X511904Y568539D01*
X505556Y563461D02*
X504287Y562191D01*
X501748D01*
X500478Y563461D01*
Y568539D01*
X501748Y569809D01*
X504287D01*
X505556Y568539D01*
Y567270D01*
X504287Y566000D01*
X500478D01*
X428444Y355539D02*
X429713Y356809D01*
X432252D01*
X433522Y355539D01*
Y350461D01*
X432252Y349191D01*
X429713D01*
X428444Y350461D01*
X425904Y349191D02*
X423365D01*
X424635D01*
Y356809D01*
X425904Y355539D01*
X419556D02*
X418287Y356809D01*
X415748D01*
X414478Y355539D01*
Y354270D01*
X415748Y353000D01*
X414478Y351730D01*
Y350461D01*
X415748Y349191D01*
X418287D01*
X419556Y350461D01*
Y351730D01*
X418287Y353000D01*
X419556Y354270D01*
Y355539D01*
X418287Y353000D02*
X415748D01*
X359284Y481479D02*
X360553Y482749D01*
X363092D01*
X364362Y481479D01*
Y476401D01*
X363092Y475131D01*
X360553D01*
X359284Y476401D01*
X356744Y475131D02*
X354205D01*
X355475D01*
Y482749D01*
X356744Y481479D01*
X350396Y482749D02*
X345318D01*
Y481479D01*
X350396Y476401D01*
Y475131D01*
X189444Y561539D02*
X190713Y562809D01*
X193252D01*
X194522Y561539D01*
Y556461D01*
X193252Y555191D01*
X190713D01*
X189444Y556461D01*
X186904Y555191D02*
X184365D01*
X185635D01*
Y562809D01*
X186904Y561539D01*
X175478Y562809D02*
X178017Y561539D01*
X180556Y559000D01*
Y556461D01*
X179287Y555191D01*
X176748D01*
X175478Y556461D01*
Y557730D01*
X176748Y559000D01*
X180556D01*
X190444Y363539D02*
X191713Y364809D01*
X194252D01*
X195522Y363539D01*
Y358461D01*
X194252Y357191D01*
X191713D01*
X190444Y358461D01*
X187904Y357191D02*
X185365D01*
X186635D01*
Y364809D01*
X187904Y363539D01*
X176478Y364809D02*
X181556D01*
Y361000D01*
X179017Y362270D01*
X177748D01*
X176478Y361000D01*
Y358461D01*
X177748Y357191D01*
X180287D01*
X181556Y358461D01*
X407693Y568039D02*
X408963Y569309D01*
X411502D01*
X412772Y568039D01*
Y562961D01*
X411502Y561691D01*
X408963D01*
X407693Y562961D01*
X405154Y561691D02*
X402615D01*
X403885D01*
Y569309D01*
X405154Y568039D01*
X394998Y561691D02*
Y569309D01*
X398806Y565500D01*
X393728D01*
X550444Y359539D02*
X551713Y360809D01*
X554252D01*
X555522Y359539D01*
Y354461D01*
X554252Y353191D01*
X551713D01*
X550444Y354461D01*
X547904Y353191D02*
X545365D01*
X546635D01*
Y360809D01*
X547904Y359539D01*
X541556D02*
X540287Y360809D01*
X537748D01*
X536478Y359539D01*
Y358270D01*
X537748Y357000D01*
X539017D01*
X537748D01*
X536478Y355731D01*
Y354461D01*
X537748Y353191D01*
X540287D01*
X541556Y354461D01*
X539444Y505289D02*
X540713Y506559D01*
X543252D01*
X544522Y505289D01*
Y500211D01*
X543252Y498941D01*
X540713D01*
X539444Y500211D01*
X536904Y498941D02*
X534365D01*
X535635D01*
Y506559D01*
X536904Y505289D01*
X525478Y498941D02*
X530556D01*
X525478Y504020D01*
Y505289D01*
X526748Y506559D01*
X529287D01*
X530556Y505289D01*
X487174Y568539D02*
X488444Y569809D01*
X490983D01*
X492252Y568539D01*
Y563461D01*
X490983Y562191D01*
X488444D01*
X487174Y563461D01*
X484635Y562191D02*
X482096D01*
X483365D01*
Y569809D01*
X484635Y568539D01*
X478287Y562191D02*
X475748D01*
X477017D01*
Y569809D01*
X478287Y568539D01*
X444193Y568539D02*
X445463Y569809D01*
X448002D01*
X449272Y568539D01*
Y563461D01*
X448002Y562191D01*
X445463D01*
X444193Y563461D01*
X441654Y562191D02*
X439115D01*
X440385D01*
Y569809D01*
X441654Y568539D01*
X435306D02*
X434037Y569809D01*
X431498D01*
X430228Y568539D01*
Y563461D01*
X431498Y562191D01*
X434037D01*
X435306Y563461D01*
Y568539D01*
X471270Y461039D02*
X472539Y462309D01*
X475078D01*
X476348Y461039D01*
Y455961D01*
X475078Y454691D01*
X472539D01*
X471270Y455961D01*
X468730D02*
X467461Y454691D01*
X464922D01*
X463652Y455961D01*
Y461039D01*
X464922Y462309D01*
X467461D01*
X468730Y461039D01*
Y459770D01*
X467461Y458500D01*
X463652D01*
X459039Y426230D02*
X460309Y424961D01*
Y422422D01*
X459039Y421152D01*
X453961D01*
X452691Y422422D01*
Y424961D01*
X453961Y426230D01*
X459039Y428770D02*
X460309Y430039D01*
Y432578D01*
X459039Y433848D01*
X457770D01*
X456500Y432578D01*
X455230Y433848D01*
X453961D01*
X452691Y432578D01*
Y430039D01*
X453961Y428770D01*
X455230D01*
X456500Y430039D01*
X457770Y428770D01*
X459039D01*
X456500Y430039D02*
Y432578D01*
X443770Y485539D02*
X445039Y486809D01*
X447578D01*
X448848Y485539D01*
Y480461D01*
X447578Y479191D01*
X445039D01*
X443770Y480461D01*
X441230Y486809D02*
X436152D01*
Y485539D01*
X441230Y480461D01*
Y479191D01*
X512770Y461039D02*
X514039Y462309D01*
X516578D01*
X517848Y461039D01*
Y455961D01*
X516578Y454691D01*
X514039D01*
X512770Y455961D01*
X505152Y462309D02*
X507691Y461039D01*
X510230Y458500D01*
Y455961D01*
X508961Y454691D01*
X506422D01*
X505152Y455961D01*
Y457230D01*
X506422Y458500D01*
X510230D01*
X494770Y440039D02*
X496039Y441309D01*
X498578D01*
X499848Y440039D01*
Y434961D01*
X498578Y433691D01*
X496039D01*
X494770Y434961D01*
X487152Y441309D02*
X492230D01*
Y437500D01*
X489691Y438770D01*
X488422D01*
X487152Y437500D01*
Y434961D01*
X488422Y433691D01*
X490961D01*
X492230Y434961D01*
M02*
