G04*
G04 #@! TF.GenerationSoftware,Altium Limited,Altium Designer,23.4.1 (23)*
G04*
G04 Layer_Physical_Order=2*
G04 Layer_Color=16711680*
%FSLAX44Y44*%
%MOMM*%
G71*
G04*
G04 #@! TF.SameCoordinates,0BEE9D39-8D09-447D-96B2-328BBDF68ADB*
G04*
G04*
G04 #@! TF.FilePolarity,Positive*
G04*
G01*
G75*
%ADD10C,0.5000*%
%ADD62C,0.3000*%
%ADD63R,0.9000X1.0000*%
%ADD65R,1.0000X0.9000*%
%ADD66R,1.0000X0.9500*%
%ADD72R,1.1500X1.8000*%
%ADD76R,0.9500X1.0000*%
%ADD93C,0.1500*%
%ADD95C,1.7500*%
%ADD97C,0.9000*%
%ADD99C,0.4000*%
%ADD101C,0.7500*%
%ADD103C,1.2000*%
%ADD104C,0.8000*%
%ADD107O,1.5000X2.1000*%
%ADD108O,1.5000X3.0000*%
%ADD109C,1.7000*%
%ADD110R,1.7000X1.7000*%
%ADD111C,2.7000*%
G04:AMPARAMS|DCode=112|XSize=3.9mm|YSize=4.2mm|CornerRadius=1.95mm|HoleSize=0mm|Usage=FLASHONLY|Rotation=0.000|XOffset=0mm|YOffset=0mm|HoleType=Round|Shape=RoundedRectangle|*
%AMROUNDEDRECTD112*
21,1,3.9000,0.3000,0,0,0.0*
21,1,0.0000,4.2000,0,0,0.0*
1,1,3.9000,0.0000,-0.1500*
1,1,3.9000,0.0000,-0.1500*
1,1,3.9000,0.0000,0.1500*
1,1,3.9000,0.0000,0.1500*
%
%ADD112ROUNDEDRECTD112*%
%ADD113O,2.2000X3.0000*%
%ADD114O,3.0000X2.2000*%
%ADD115R,1.7000X1.7000*%
%ADD116O,4.3000X1.6000*%
%ADD117O,3.8000X1.6000*%
%ADD118O,1.6000X3.8000*%
%ADD119C,0.6000*%
%ADD120C,0.8000*%
G36*
X232370Y837000D02*
X232896Y835730D01*
X214333Y817167D01*
X194833Y797667D01*
X193110Y795421D01*
X192027Y792806D01*
X191657Y790000D01*
Y778077D01*
X191439Y777858D01*
X190997Y777197D01*
X190616Y776278D01*
X190461Y775497D01*
Y769503D01*
X190616Y768722D01*
X190997Y767803D01*
X191275Y767387D01*
X191007Y766569D01*
X190667Y766117D01*
X185333D01*
X185165Y767394D01*
X183855Y770556D01*
X181772Y773272D01*
X179056Y775356D01*
X175894Y776665D01*
X172500Y777112D01*
X169106Y776665D01*
X165944Y775356D01*
X163228Y773272D01*
X161145Y770556D01*
X160635Y769326D01*
X159365D01*
X158855Y770556D01*
X156772Y773272D01*
X154056Y775356D01*
X150894Y776665D01*
X147500Y777112D01*
X144106Y776665D01*
X140944Y775356D01*
X138228Y773272D01*
X136145Y770556D01*
X134835Y767394D01*
X134388Y764000D01*
Y756000D01*
X134835Y752606D01*
X136145Y749444D01*
X138228Y746728D01*
X140944Y744644D01*
X144106Y743335D01*
X147500Y742888D01*
X150894Y743335D01*
X154056Y744644D01*
X156772Y746728D01*
X158855Y749444D01*
X159365Y750674D01*
X160635D01*
X161145Y749444D01*
X163228Y746728D01*
X165944Y744644D01*
X169106Y743335D01*
X172500Y742888D01*
X175894Y743335D01*
X179056Y744644D01*
X181772Y746728D01*
X183855Y749444D01*
X185165Y752606D01*
X185333Y753883D01*
X190000D01*
Y753000D01*
X204000D01*
Y765461D01*
X210497D01*
X211278Y765616D01*
X212197Y765997D01*
X212858Y766439D01*
X212858Y766439D01*
X213561Y767142D01*
X214003Y767803D01*
X214003Y767804D01*
X214384Y768722D01*
X214539Y769503D01*
Y775497D01*
X214384Y776278D01*
X214384Y776278D01*
X214003Y777196D01*
X214003Y777197D01*
X213561Y777858D01*
X213561Y777858D01*
X213343Y778077D01*
Y785509D01*
X226423Y798589D01*
X232912Y792100D01*
Y744500D01*
X230500D01*
Y731500D01*
X244500D01*
Y744500D01*
X242088D01*
Y794000D01*
X241739Y795756D01*
X240744Y797244D01*
X232911Y805077D01*
X245991Y818157D01*
X358157D01*
Y790577D01*
X357939Y790358D01*
X357497Y789697D01*
X357116Y788778D01*
X356961Y787997D01*
Y782003D01*
X357116Y781222D01*
X357497Y780303D01*
X357939Y779642D01*
X357939Y779642D01*
X358642Y778939D01*
X359304Y778497D01*
X360222Y778116D01*
X361003Y777961D01*
X376997D01*
X377778Y778116D01*
X378697Y778497D01*
X379358Y778939D01*
X379358Y778939D01*
X380061Y779642D01*
X380503Y780303D01*
X380503Y780304D01*
X380884Y781222D01*
X381039Y782003D01*
Y787997D01*
X380884Y788778D01*
X380884Y788778D01*
X380503Y789696D01*
X380503Y789697D01*
X380061Y790358D01*
X380061Y790358D01*
X379843Y790577D01*
Y818157D01*
X499137D01*
Y813500D01*
X497250D01*
Y796898D01*
X496077Y796412D01*
X489744Y802744D01*
X488256Y803739D01*
X486500Y804088D01*
Y806000D01*
X472500D01*
Y804088D01*
X466500D01*
Y806000D01*
X452500D01*
Y793000D01*
X466500D01*
Y794912D01*
X472500D01*
Y793000D01*
X486500D01*
X486500Y793000D01*
Y793000D01*
X487357Y792154D01*
X494756Y784756D01*
X496244Y783761D01*
X498000Y783412D01*
X528137D01*
Y779525D01*
X528000Y779193D01*
Y776806D01*
X528913Y774601D01*
X530601Y772913D01*
X532807Y772000D01*
X535193D01*
X537399Y772913D01*
X539087Y774601D01*
X540000Y776806D01*
Y779193D01*
X539863Y779525D01*
Y791500D01*
X541750D01*
Y797912D01*
X546600D01*
X556756Y787756D01*
X562000Y782511D01*
Y769500D01*
X575000D01*
Y771912D01*
X597099D01*
X611500Y757511D01*
Y756806D01*
X612413Y754601D01*
X614101Y752914D01*
X616306Y752000D01*
X618694D01*
X620899Y752914D01*
X622587Y754601D01*
X623500Y756806D01*
Y759193D01*
X622587Y761399D01*
X620899Y763087D01*
X618694Y764000D01*
X617989D01*
X602244Y779744D01*
X600756Y780739D01*
X599000Y781088D01*
X575000D01*
Y783500D01*
X572889D01*
X572739Y784256D01*
X571744Y785744D01*
X563244Y794244D01*
X551744Y805744D01*
X550256Y806739D01*
X548500Y807088D01*
X541750D01*
Y813500D01*
X526250D01*
Y792588D01*
X512750D01*
Y813500D01*
X510863D01*
Y818157D01*
X805412D01*
Y802001D01*
X792956Y789544D01*
X790882Y790100D01*
X788118D01*
X785447Y789384D01*
X783053Y788002D01*
X781098Y786047D01*
X779716Y783653D01*
X779000Y780982D01*
Y778218D01*
X779716Y775547D01*
X781098Y773153D01*
X783053Y771198D01*
X785447Y769816D01*
X788118Y769100D01*
X790882D01*
X793553Y769816D01*
X795947Y771198D01*
X797902Y773153D01*
X799284Y775547D01*
X800000Y778218D01*
Y780982D01*
X799444Y783056D01*
X813244Y796856D01*
X814239Y798344D01*
X814588Y800100D01*
Y818157D01*
X895462D01*
X938657Y774962D01*
Y704539D01*
X936503D01*
X935722Y704384D01*
X934803Y704003D01*
X934142Y703561D01*
X933439Y702858D01*
X932997Y702197D01*
X932616Y701278D01*
X932461Y700497D01*
Y684503D01*
X932616Y683722D01*
X932997Y682803D01*
X933439Y682142D01*
X933439Y682142D01*
X934142Y681439D01*
X934803Y680997D01*
X935722Y680616D01*
X936503Y680461D01*
X962497D01*
X963278Y680616D01*
X964196Y680997D01*
X964858Y681439D01*
X964858Y681439D01*
X965561Y682142D01*
X966003Y682803D01*
X966003Y682803D01*
X966384Y683722D01*
X966539Y684503D01*
Y700497D01*
X966384Y701278D01*
X966003Y702197D01*
X965561Y702858D01*
X964858Y703561D01*
X964196Y704003D01*
X964196Y704003D01*
X963278Y704384D01*
X962497Y704539D01*
X960343D01*
Y779453D01*
X959973Y782260D01*
X958890Y784875D01*
X957167Y787120D01*
X908557Y835730D01*
X909083Y837000D01*
X987500D01*
X988436D01*
X990271Y836635D01*
X992000Y835919D01*
X993556Y834879D01*
X994879Y833556D01*
X995919Y832000D01*
X996635Y830271D01*
X997000Y828436D01*
Y827500D01*
X997000D01*
X997000Y12500D01*
X997000Y11564D01*
X996635Y9729D01*
X995919Y8000D01*
X994879Y6444D01*
X993556Y5121D01*
X992000Y4081D01*
X990271Y3365D01*
X988436Y3000D01*
X987500Y3000D01*
X12500D01*
X11564Y3000D01*
X9729Y3365D01*
X8000Y4081D01*
X6444Y5121D01*
X5121Y6444D01*
X4081Y8000D01*
X3365Y9729D01*
X3000Y11564D01*
X3000Y12500D01*
Y827500D01*
X3000Y828436D01*
X3365Y830271D01*
X4081Y832000D01*
X5121Y833556D01*
X6444Y834879D01*
X8000Y835919D01*
X9729Y836635D01*
X11564Y837000D01*
X12500Y837000D01*
X12500Y837000D01*
X232370D01*
D02*
G37*
G36*
X377916Y789619D02*
X378619Y788916D01*
X379000Y787997D01*
Y787500D01*
Y782500D01*
Y782003D01*
X378619Y781084D01*
X377916Y780381D01*
X376997Y780000D01*
X361003D01*
X360084Y780381D01*
X359381Y781084D01*
X359000Y782003D01*
Y782500D01*
Y784500D01*
Y787500D01*
Y787997D01*
X359381Y788916D01*
X360084Y789619D01*
X361003Y790000D01*
X376997D01*
X377916Y789619D01*
D02*
G37*
G36*
X211416Y777119D02*
X212119Y776416D01*
X212500Y775497D01*
Y775000D01*
Y770000D01*
Y769503D01*
X212119Y768584D01*
X211416Y767881D01*
X210497Y767500D01*
X194503D01*
X193584Y767881D01*
X192881Y768584D01*
X192500Y769503D01*
Y770000D01*
Y772000D01*
Y775000D01*
Y775497D01*
X192881Y776416D01*
X193584Y777119D01*
X194503Y777500D01*
X210497D01*
X211416Y777119D01*
D02*
G37*
G36*
X963416Y702119D02*
X964119Y701416D01*
X964500Y700497D01*
Y700000D01*
Y685000D01*
Y684503D01*
X964119Y683584D01*
X963416Y682881D01*
X962497Y682500D01*
X936503D01*
X935584Y682881D01*
X934881Y683584D01*
X934500Y684503D01*
Y685000D01*
Y700000D01*
Y700497D01*
X934881Y701416D01*
X935584Y702119D01*
X936503Y702500D01*
X962497D01*
X963416Y702119D01*
D02*
G37*
%LPC*%
G36*
X126500Y823112D02*
X124500D01*
Y812000D01*
X139349D01*
X139165Y813394D01*
X137856Y816556D01*
X135772Y819272D01*
X133056Y821356D01*
X129894Y822665D01*
X126500Y823112D01*
D02*
G37*
G36*
X120500D02*
X118500D01*
X115106Y822665D01*
X111944Y821356D01*
X109228Y819272D01*
X107144Y816556D01*
X105835Y813394D01*
X105651Y812000D01*
X120500D01*
Y823112D01*
D02*
G37*
G36*
X765600Y815469D02*
Y806500D01*
X774568D01*
X773884Y809053D01*
X772502Y811447D01*
X770547Y813402D01*
X768153Y814784D01*
X765600Y815469D01*
D02*
G37*
G36*
X762600D02*
X760047Y814784D01*
X757653Y813402D01*
X755698Y811447D01*
X754316Y809053D01*
X753632Y806500D01*
X762600D01*
Y815469D01*
D02*
G37*
G36*
X173817Y820000D02*
X171183D01*
X168640Y819318D01*
X166360Y818002D01*
X164498Y816140D01*
X163181Y813860D01*
X162500Y811317D01*
Y808683D01*
X163181Y806140D01*
X164498Y803860D01*
X166360Y801998D01*
X168640Y800682D01*
X171183Y800000D01*
X173817D01*
X176360Y800682D01*
X178640Y801998D01*
X180502Y803860D01*
X181819Y806140D01*
X182500Y808683D01*
Y811317D01*
X181819Y813860D01*
X180502Y816140D01*
X178640Y818002D01*
X176360Y819318D01*
X173817Y820000D01*
D02*
G37*
G36*
X73816D02*
X71184D01*
X68640Y819318D01*
X66360Y818002D01*
X64498Y816140D01*
X63182Y813860D01*
X62500Y811317D01*
Y808683D01*
X63182Y806140D01*
X64498Y803860D01*
X66360Y801998D01*
X68640Y800682D01*
X71184Y800000D01*
X73816D01*
X76360Y800682D01*
X78640Y801998D01*
X80502Y803860D01*
X81819Y806140D01*
X82500Y808683D01*
Y811317D01*
X81819Y813860D01*
X80502Y816140D01*
X78640Y818002D01*
X76360Y819318D01*
X73816Y820000D01*
D02*
G37*
G36*
X139349Y808000D02*
X124500D01*
Y796888D01*
X126500D01*
X129894Y797335D01*
X133056Y798644D01*
X135772Y800728D01*
X137856Y803444D01*
X139165Y806606D01*
X139349Y808000D01*
D02*
G37*
G36*
X120500D02*
X105651D01*
X105835Y806606D01*
X107144Y803444D01*
X109228Y800728D01*
X111944Y798644D01*
X115106Y797335D01*
X118500Y796888D01*
X120500D01*
Y808000D01*
D02*
G37*
G36*
X714682Y815500D02*
X711918D01*
X709247Y814784D01*
X706853Y813402D01*
X704898Y811447D01*
X703516Y809053D01*
X702800Y806382D01*
Y803618D01*
X703516Y800947D01*
X704898Y798553D01*
X706853Y796598D01*
X707056Y796481D01*
X706727Y795254D01*
X701611D01*
X697038Y799827D01*
X697684Y800947D01*
X698400Y803618D01*
Y806382D01*
X697684Y809053D01*
X696302Y811447D01*
X694347Y813402D01*
X691953Y814784D01*
X689282Y815500D01*
X686518D01*
X683847Y814784D01*
X681453Y813402D01*
X679498Y811447D01*
X678116Y809053D01*
X677400Y806382D01*
Y803618D01*
X678116Y800947D01*
X679498Y798553D01*
X681453Y796598D01*
X683847Y795216D01*
X686518Y794500D01*
X689282D01*
X691953Y795216D01*
X693073Y795862D01*
X698467Y790467D01*
X699377Y789860D01*
X700450Y789646D01*
X707160D01*
X707501Y788376D01*
X706853Y788002D01*
X704898Y786047D01*
X703516Y783653D01*
X702800Y780982D01*
Y778218D01*
X703516Y775547D01*
X704898Y773153D01*
X706853Y771198D01*
X709247Y769816D01*
X711918Y769100D01*
X714682D01*
X717353Y769816D01*
X719747Y771198D01*
X721702Y773153D01*
X721926Y773541D01*
X723196Y773201D01*
Y733161D01*
X710339Y720304D01*
X684171D01*
X683645Y721574D01*
X684239Y722168D01*
X685000Y724005D01*
Y725995D01*
X684239Y727832D01*
X682832Y729239D01*
X682804Y729251D01*
Y749000D01*
X682590Y750073D01*
X681983Y750983D01*
X665304Y767661D01*
Y769100D01*
X673000D01*
Y790100D01*
X652000D01*
Y769100D01*
X659696D01*
Y766500D01*
X659910Y765427D01*
X660517Y764517D01*
X677196Y747839D01*
Y729251D01*
X677168Y729239D01*
X675761Y727832D01*
X675000Y725995D01*
Y724005D01*
X675526Y722735D01*
X674449Y722016D01*
X672488Y723977D01*
X672500Y724005D01*
Y725995D01*
X671739Y727832D01*
X670332Y729239D01*
X668495Y730000D01*
X666505D01*
X664668Y729239D01*
X663261Y727832D01*
X662500Y725995D01*
Y724005D01*
X663261Y722168D01*
X664668Y720761D01*
X666505Y720000D01*
X668495D01*
X668523Y720012D01*
X673017Y715517D01*
X673927Y714910D01*
X675000Y714696D01*
X711500D01*
X712573Y714910D01*
X713483Y715517D01*
X727983Y730017D01*
X728590Y730927D01*
X728804Y732000D01*
Y773201D01*
X730074Y773541D01*
X730298Y773153D01*
X732253Y771198D01*
X734647Y769816D01*
X737318Y769100D01*
X740082D01*
X742753Y769816D01*
X745147Y771198D01*
X747102Y773153D01*
X748484Y775547D01*
X749200Y778218D01*
Y780982D01*
X748484Y783653D01*
X747102Y786047D01*
X745147Y788002D01*
X742753Y789384D01*
X740082Y790100D01*
X737318D01*
X734647Y789384D01*
X732253Y788002D01*
X730298Y786047D01*
X730074Y785659D01*
X728804Y785999D01*
Y786500D01*
X728590Y787573D01*
X727983Y788483D01*
X722033Y794433D01*
X721123Y795040D01*
X720050Y795254D01*
X719873D01*
X719544Y796481D01*
X719747Y796598D01*
X721702Y798553D01*
X723084Y800947D01*
X723800Y803618D01*
Y806382D01*
X723084Y809053D01*
X721702Y811447D01*
X719747Y813402D01*
X717353Y814784D01*
X714682Y815500D01*
D02*
G37*
G36*
X774568Y803500D02*
X765600D01*
Y794532D01*
X768153Y795216D01*
X770547Y796598D01*
X772502Y798553D01*
X773884Y800947D01*
X774568Y803500D01*
D02*
G37*
G36*
X762600D02*
X753632D01*
X754316Y800947D01*
X755698Y798553D01*
X757653Y796598D01*
X760047Y795216D01*
X762600Y794532D01*
Y803500D01*
D02*
G37*
G36*
X790882Y815500D02*
X788118D01*
X785447Y814784D01*
X783053Y813402D01*
X781098Y811447D01*
X779716Y809053D01*
X779000Y806382D01*
Y803618D01*
X779708Y800976D01*
X768124Y789392D01*
X765482Y790100D01*
X762718D01*
X760047Y789384D01*
X757653Y788002D01*
X755698Y786047D01*
X754316Y783653D01*
X753600Y780982D01*
Y778218D01*
X754316Y775547D01*
X755698Y773153D01*
X757653Y771198D01*
X760047Y769816D01*
X762718Y769100D01*
X765482D01*
X768153Y769816D01*
X770547Y771198D01*
X772502Y773153D01*
X773884Y775547D01*
X774600Y778218D01*
Y780982D01*
X773892Y783624D01*
X785476Y795208D01*
X788118Y794500D01*
X790882D01*
X793553Y795216D01*
X795947Y796598D01*
X797902Y798553D01*
X799284Y800947D01*
X800000Y803618D01*
Y806382D01*
X799284Y809053D01*
X797902Y811447D01*
X795947Y813402D01*
X793553Y814784D01*
X790882Y815500D01*
D02*
G37*
G36*
X740082D02*
X737318D01*
X734647Y814784D01*
X732253Y813402D01*
X730298Y811447D01*
X728916Y809053D01*
X728200Y806382D01*
Y803618D01*
X728916Y800947D01*
X730298Y798553D01*
X732253Y796598D01*
X734647Y795216D01*
X737318Y794500D01*
X740082D01*
X742753Y795216D01*
X745147Y796598D01*
X747102Y798553D01*
X748484Y800947D01*
X749200Y803618D01*
Y806382D01*
X748484Y809053D01*
X747102Y811447D01*
X745147Y813402D01*
X742753Y814784D01*
X740082Y815500D01*
D02*
G37*
G36*
X663882D02*
X661118D01*
X658447Y814784D01*
X656053Y813402D01*
X654098Y811447D01*
X652716Y809053D01*
X652000Y806382D01*
Y803618D01*
X652716Y800947D01*
X654098Y798553D01*
X656053Y796598D01*
X658447Y795216D01*
X661118Y794500D01*
X663882D01*
X666553Y795216D01*
X668947Y796598D01*
X670902Y798553D01*
X672284Y800947D01*
X673000Y803618D01*
Y806382D01*
X672284Y809053D01*
X670902Y811447D01*
X668947Y813402D01*
X666553Y814784D01*
X663882Y815500D01*
D02*
G37*
G36*
X971773Y828000D02*
X968227D01*
X964750Y827308D01*
X961474Y825951D01*
X958526Y823981D01*
X956019Y821474D01*
X954049Y818526D01*
X952692Y815250D01*
X952000Y811773D01*
Y808227D01*
X952692Y804750D01*
X954049Y801474D01*
X956019Y798526D01*
X958526Y796019D01*
X961474Y794049D01*
X964750Y792692D01*
X968227Y792000D01*
X971773D01*
X975250Y792692D01*
X978526Y794049D01*
X981474Y796019D01*
X983981Y798526D01*
X985951Y801474D01*
X987308Y804750D01*
X988000Y808227D01*
Y811773D01*
X987308Y815250D01*
X985951Y818526D01*
X983981Y821474D01*
X981474Y823981D01*
X978526Y825951D01*
X975250Y827308D01*
X971773Y828000D01*
D02*
G37*
G36*
X31773D02*
X28227D01*
X24750Y827308D01*
X21474Y825951D01*
X18526Y823981D01*
X16019Y821474D01*
X14049Y818526D01*
X12692Y815250D01*
X12000Y811773D01*
Y808227D01*
X12692Y804750D01*
X14049Y801474D01*
X16019Y798526D01*
X18526Y796019D01*
X21474Y794049D01*
X24750Y792692D01*
X28227Y792000D01*
X31773D01*
X35250Y792692D01*
X38526Y794049D01*
X41474Y796019D01*
X43981Y798526D01*
X45951Y801474D01*
X47308Y804750D01*
X48000Y808227D01*
Y811773D01*
X47308Y815250D01*
X45951Y818526D01*
X43981Y821474D01*
X41474Y823981D01*
X38526Y825951D01*
X35250Y827308D01*
X31773Y828000D01*
D02*
G37*
G36*
X572000Y816582D02*
X569520Y816255D01*
X567209Y815298D01*
X565224Y813775D01*
X563702Y811791D01*
X562744Y809480D01*
X562418Y807000D01*
Y801000D01*
X562744Y798520D01*
X563702Y796209D01*
X565224Y794224D01*
X567209Y792702D01*
X569520Y791745D01*
X572000Y791418D01*
X574480Y791745D01*
X576791Y792702D01*
X578775Y794224D01*
X580298Y796209D01*
X581255Y798520D01*
X581582Y801000D01*
Y807000D01*
X581255Y809480D01*
X580298Y811791D01*
X578775Y813775D01*
X576791Y815298D01*
X574480Y816255D01*
X572000Y816582D01*
D02*
G37*
G36*
X427000D02*
X424520Y816255D01*
X422209Y815298D01*
X420224Y813775D01*
X418702Y811791D01*
X417744Y809480D01*
X417418Y807000D01*
Y801000D01*
X417744Y798520D01*
X418702Y796209D01*
X420224Y794224D01*
X422209Y792702D01*
X424520Y791745D01*
X427000Y791418D01*
X429480Y791745D01*
X431791Y792702D01*
X433775Y794224D01*
X435298Y796209D01*
X436255Y798520D01*
X436582Y801000D01*
Y807000D01*
X436255Y809480D01*
X435298Y811791D01*
X433775Y813775D01*
X431791Y815298D01*
X429480Y816255D01*
X427000Y816582D01*
D02*
G37*
G36*
X55500Y782000D02*
X50000D01*
Y777000D01*
X55500D01*
Y782000D01*
D02*
G37*
G36*
X48000D02*
X42500D01*
Y777000D01*
X48000D01*
Y782000D01*
D02*
G37*
G36*
X55500Y775000D02*
X50000D01*
Y770000D01*
X55500D01*
Y775000D01*
D02*
G37*
G36*
X48000D02*
X42500D01*
Y770000D01*
X48000D01*
Y775000D01*
D02*
G37*
G36*
X97500Y777112D02*
X94106Y776665D01*
X90944Y775356D01*
X88228Y773272D01*
X86145Y770556D01*
X85635Y769326D01*
X84365D01*
X83855Y770556D01*
X81772Y773272D01*
X79056Y775356D01*
X75894Y776665D01*
X72500Y777112D01*
X69106Y776665D01*
X65944Y775356D01*
X63228Y773272D01*
X61144Y770556D01*
X59835Y767394D01*
X59667Y766117D01*
X56000D01*
Y766500D01*
X42000D01*
Y753500D01*
X56000D01*
Y753883D01*
X59667D01*
X59835Y752606D01*
X61144Y749444D01*
X63228Y746728D01*
X65944Y744644D01*
X69106Y743335D01*
X72500Y742888D01*
X75894Y743335D01*
X79056Y744644D01*
X81772Y746728D01*
X83855Y749444D01*
X84365Y750674D01*
X85635D01*
X86145Y749444D01*
X88228Y746728D01*
X90944Y744644D01*
X94106Y743335D01*
X97500Y742888D01*
X100894Y743335D01*
X104056Y744644D01*
X106772Y746728D01*
X108855Y749444D01*
X110165Y752606D01*
X110612Y756000D01*
Y764000D01*
X110165Y767394D01*
X108855Y770556D01*
X106772Y773272D01*
X104056Y775356D01*
X100894Y776665D01*
X97500Y777112D01*
D02*
G37*
G36*
X689282Y790100D02*
X686518D01*
X683847Y789384D01*
X681453Y788002D01*
X679498Y786047D01*
X678116Y783653D01*
X677400Y780982D01*
Y778218D01*
X678116Y775547D01*
X679498Y773153D01*
X681453Y771198D01*
X683847Y769816D01*
X686518Y769100D01*
X689282D01*
X691953Y769816D01*
X694347Y771198D01*
X696302Y773153D01*
X697684Y775547D01*
X698400Y778218D01*
Y780982D01*
X697684Y783653D01*
X696302Y786047D01*
X694347Y788002D01*
X691953Y789384D01*
X689282Y790100D01*
D02*
G37*
G36*
X486500Y790000D02*
X472500D01*
Y777000D01*
X486500D01*
Y778875D01*
X487673Y779361D01*
X495017Y772017D01*
X495181Y771908D01*
X495039Y770475D01*
X494101Y770087D01*
X492583Y768569D01*
X468978D01*
X463069Y774478D01*
Y777000D01*
X466500D01*
Y790000D01*
X452500D01*
Y777000D01*
X455931D01*
Y773000D01*
X456203Y771634D01*
X456977Y770477D01*
X464977Y762477D01*
X466134Y761703D01*
X467500Y761431D01*
X492583D01*
X494101Y759913D01*
X496306Y759000D01*
X498694D01*
X500899Y759913D01*
X502587Y761601D01*
X503500Y763807D01*
Y766193D01*
X502587Y768399D01*
X501059Y769926D01*
X501194Y770683D01*
X501449Y771196D01*
X510167D01*
X510414Y770601D01*
X512101Y768913D01*
X514306Y768000D01*
X516693D01*
X517288Y768246D01*
X541517Y744017D01*
X554696Y730839D01*
Y727500D01*
X554910Y726427D01*
X555517Y725517D01*
X563017Y718017D01*
X563927Y717410D01*
X565000Y717196D01*
X587839D01*
X598696Y706339D01*
Y703751D01*
X598668Y703739D01*
X597261Y702332D01*
X596500Y700495D01*
Y698505D01*
X597261Y696668D01*
X598668Y695261D01*
X600505Y694500D01*
X602495D01*
X604332Y695261D01*
X605739Y696668D01*
X606500Y698505D01*
Y700495D01*
X605739Y702332D01*
X604332Y703739D01*
X604304Y703751D01*
Y707500D01*
X604090Y708573D01*
X603483Y709483D01*
X590983Y721983D01*
X590073Y722590D01*
X589000Y722804D01*
X566161D01*
X560304Y728661D01*
Y732000D01*
X560090Y733073D01*
X559483Y733983D01*
X545483Y747983D01*
X521254Y772212D01*
X521500Y772806D01*
Y775193D01*
X520587Y777399D01*
X518899Y779087D01*
X516693Y780000D01*
X514306D01*
X512101Y779087D01*
X510414Y777399D01*
X510167Y776804D01*
X498161D01*
X489483Y785483D01*
X488573Y786090D01*
X487500Y786304D01*
X486500D01*
Y790000D01*
D02*
G37*
G36*
X906000Y773086D02*
X899000D01*
Y767000D01*
X915167D01*
X914735Y768043D01*
X913132Y770132D01*
X911043Y771735D01*
X908611Y772743D01*
X906000Y773086D01*
D02*
G37*
G36*
X891000D02*
X884000D01*
X881389Y772743D01*
X878957Y771735D01*
X876868Y770132D01*
X875265Y768043D01*
X874833Y767000D01*
X891000D01*
Y773086D01*
D02*
G37*
G36*
X559000Y783500D02*
X546000D01*
Y769500D01*
X548931D01*
Y767917D01*
X547413Y766399D01*
X546500Y764193D01*
Y761806D01*
X547413Y759601D01*
X549101Y757913D01*
X551306Y757000D01*
X553694D01*
X555899Y757913D01*
X557587Y759601D01*
X558500Y761806D01*
Y764193D01*
X557587Y766399D01*
X556069Y767917D01*
Y769500D01*
X559000D01*
Y783500D01*
D02*
G37*
G36*
X915167Y759000D02*
X899000D01*
Y752914D01*
X906000D01*
X908611Y753257D01*
X911043Y754265D01*
X913132Y755868D01*
X914735Y757957D01*
X915167Y759000D01*
D02*
G37*
G36*
X891000D02*
X874833D01*
X875265Y757957D01*
X876868Y755868D01*
X878957Y754265D01*
X881389Y753257D01*
X884000Y752914D01*
X891000D01*
Y759000D01*
D02*
G37*
G36*
X123816Y770000D02*
X121184D01*
X118640Y769318D01*
X116360Y768002D01*
X114498Y766140D01*
X113181Y763860D01*
X112500Y761317D01*
Y758683D01*
X113181Y756140D01*
X114498Y753860D01*
X116360Y751998D01*
X118640Y750682D01*
X121184Y750000D01*
X123816D01*
X126360Y750682D01*
X128640Y751998D01*
X130502Y753860D01*
X131819Y756140D01*
X132500Y758683D01*
Y761317D01*
X131819Y763860D01*
X130502Y766140D01*
X128640Y768002D01*
X126360Y769318D01*
X123816Y770000D01*
D02*
G37*
G36*
X203500Y749500D02*
X198000D01*
Y744500D01*
X203500D01*
Y749500D01*
D02*
G37*
G36*
X196000D02*
X190500D01*
Y744500D01*
X196000D01*
Y749500D01*
D02*
G37*
G36*
X354000Y746500D02*
X348500D01*
Y741500D01*
X354000D01*
Y746500D01*
D02*
G37*
G36*
X294000D02*
X288500D01*
Y741500D01*
X294000D01*
Y746500D01*
D02*
G37*
G36*
X346500D02*
X341000D01*
Y741500D01*
X346500D01*
Y746500D01*
D02*
G37*
G36*
X286500D02*
X281000D01*
Y741500D01*
X286500D01*
Y746500D01*
D02*
G37*
G36*
X203500Y742500D02*
X198000D01*
Y737500D01*
X203500D01*
Y742500D01*
D02*
G37*
G36*
X196000D02*
X190500D01*
Y737500D01*
X196000D01*
Y742500D01*
D02*
G37*
G36*
X852000Y753167D02*
Y737000D01*
X858086D01*
Y744000D01*
X857743Y746610D01*
X856735Y749043D01*
X855132Y751132D01*
X853043Y752735D01*
X852000Y753167D01*
D02*
G37*
G36*
X844000Y753167D02*
X842957Y752735D01*
X840868Y751132D01*
X839265Y749043D01*
X838257Y746610D01*
X837914Y744000D01*
Y737000D01*
X844000D01*
Y753167D01*
D02*
G37*
G36*
X354000Y739500D02*
X348500D01*
Y734500D01*
X354000D01*
Y739500D01*
D02*
G37*
G36*
X346500D02*
X341000D01*
Y734500D01*
X346500D01*
Y739500D01*
D02*
G37*
G36*
X294000D02*
X288500D01*
Y734500D01*
X294000D01*
Y739500D01*
D02*
G37*
G36*
X286500D02*
X281000D01*
Y734500D01*
X286500D01*
Y739500D01*
D02*
G37*
G36*
X572000Y761082D02*
X569520Y760755D01*
X567209Y759798D01*
X565224Y758275D01*
X563702Y756291D01*
X562744Y753980D01*
X562418Y751500D01*
Y736500D01*
X562744Y734020D01*
X563702Y731709D01*
X565224Y729725D01*
X567209Y728202D01*
X569520Y727244D01*
X572000Y726918D01*
X574480Y727244D01*
X576791Y728202D01*
X578775Y729725D01*
X580298Y731709D01*
X581255Y734020D01*
X581582Y736500D01*
Y751500D01*
X581255Y753980D01*
X580298Y756291D01*
X578775Y758275D01*
X576791Y759798D01*
X574480Y760755D01*
X572000Y761082D01*
D02*
G37*
G36*
X427000D02*
X424520Y760755D01*
X422209Y759798D01*
X420224Y758275D01*
X418702Y756291D01*
X417744Y753980D01*
X417418Y751500D01*
Y736500D01*
X417744Y734020D01*
X418702Y731709D01*
X420224Y729725D01*
X422209Y728202D01*
X424520Y727244D01*
X427000Y726918D01*
X429480Y727244D01*
X431791Y728202D01*
X433775Y729725D01*
X435298Y731709D01*
X436255Y734020D01*
X436582Y736500D01*
Y751500D01*
X436255Y753980D01*
X435298Y756291D01*
X433775Y758275D01*
X431791Y759798D01*
X429480Y760755D01*
X427000Y761082D01*
D02*
G37*
G36*
X858086Y729000D02*
X852000D01*
Y712833D01*
X853043Y713265D01*
X855132Y714868D01*
X856735Y716957D01*
X857743Y719389D01*
X858086Y722000D01*
Y729000D01*
D02*
G37*
G36*
X844000D02*
X837914D01*
Y722000D01*
X838257Y719389D01*
X839265Y716957D01*
X840868Y714868D01*
X842957Y713265D01*
X844000Y712833D01*
Y729000D01*
D02*
G37*
G36*
X908500Y711086D02*
X881500D01*
X878889Y710743D01*
X876457Y709735D01*
X874368Y708132D01*
X872765Y706043D01*
X871757Y703611D01*
X871414Y701000D01*
X871757Y698390D01*
X872765Y695957D01*
X874368Y693868D01*
X876457Y692265D01*
X878889Y691257D01*
X881500Y690914D01*
X908500D01*
X911111Y691257D01*
X913543Y692265D01*
X915632Y693868D01*
X917235Y695957D01*
X918243Y698390D01*
X918586Y701000D01*
X918243Y703611D01*
X917235Y706043D01*
X915632Y708132D01*
X913543Y709735D01*
X911111Y710743D01*
X908500Y711086D01*
D02*
G37*
G36*
X244500Y728500D02*
X230500D01*
Y715500D01*
X233931D01*
Y699917D01*
X232414Y698399D01*
X231500Y696193D01*
Y693807D01*
X232414Y691601D01*
X234101Y689913D01*
X236306Y689000D01*
X238694D01*
X240899Y689913D01*
X242587Y691601D01*
X243500Y693807D01*
Y696193D01*
X242587Y698399D01*
X241069Y699917D01*
Y715500D01*
X244500D01*
Y728500D01*
D02*
G37*
G36*
X354500Y731000D02*
X340500D01*
Y718000D01*
X343931D01*
Y657417D01*
X342413Y655899D01*
X341500Y653693D01*
Y651307D01*
X342413Y649101D01*
X344101Y647413D01*
X346306Y646500D01*
X348694D01*
X350899Y647413D01*
X352587Y649101D01*
X353500Y651307D01*
Y653693D01*
X352587Y655899D01*
X351069Y657417D01*
Y718000D01*
X354500D01*
Y731000D01*
D02*
G37*
G36*
X294500D02*
X280500D01*
Y718000D01*
X283931D01*
Y657417D01*
X282414Y655899D01*
X281500Y653693D01*
Y651307D01*
X282414Y649101D01*
X284101Y647413D01*
X286306Y646500D01*
X288694D01*
X290899Y647413D01*
X292587Y649101D01*
X293500Y651307D01*
Y653693D01*
X292587Y655899D01*
X291069Y657417D01*
Y718000D01*
X294500D01*
Y731000D01*
D02*
G37*
G36*
X565000Y648069D02*
X547500D01*
X545412Y647794D01*
X543465Y646988D01*
X541794Y645706D01*
X529294Y633206D01*
X528012Y631535D01*
X527206Y629588D01*
X526931Y627500D01*
Y578343D01*
X440000D01*
X410500Y578343D01*
X379573D01*
X379087Y579516D01*
X379239Y579668D01*
X380000Y581505D01*
Y583495D01*
X379814Y583944D01*
X380519Y585000D01*
X380995D01*
X382832Y585761D01*
X384239Y587168D01*
X385000Y589005D01*
Y590995D01*
X384814Y591444D01*
X385519Y592500D01*
X385995D01*
X387832Y593261D01*
X389239Y594668D01*
X390000Y596505D01*
Y598495D01*
X389814Y598944D01*
X390519Y600000D01*
X390995D01*
X392832Y600761D01*
X394239Y602168D01*
X395000Y604005D01*
Y605995D01*
X394814Y606444D01*
X395519Y607500D01*
X395995D01*
X397832Y608261D01*
X399239Y609668D01*
X400000Y611505D01*
Y613495D01*
X399814Y613944D01*
X400519Y615000D01*
X400994D01*
X402832Y615761D01*
X404239Y617168D01*
X405000Y619005D01*
Y620995D01*
X404239Y622832D01*
X402832Y624239D01*
X400994Y625000D01*
X399005D01*
X397168Y624239D01*
X395761Y622832D01*
X395749Y622804D01*
X347500D01*
X346427Y622590D01*
X345517Y621983D01*
X328839Y605304D01*
X127500D01*
X126427Y605090D01*
X125517Y604483D01*
X99017Y577983D01*
X98410Y577073D01*
X98196Y576000D01*
Y559251D01*
X98168Y559239D01*
X96761Y557832D01*
X96000Y555995D01*
Y554005D01*
X96761Y552168D01*
X98168Y550761D01*
X100005Y550000D01*
X101995D01*
X102730Y550305D01*
X104000Y549456D01*
Y549005D01*
X104761Y547168D01*
X106168Y545761D01*
X108005Y545000D01*
X109995D01*
X110730Y545305D01*
X112000Y544456D01*
Y544005D01*
X112761Y542168D01*
X114168Y540761D01*
X116005Y540000D01*
X117995D01*
X118730Y540305D01*
X120000Y539456D01*
Y539005D01*
X120761Y537168D01*
X122168Y535761D01*
X124005Y535000D01*
X125995D01*
X126730Y535305D01*
X128000Y534456D01*
Y534005D01*
X128761Y532168D01*
X130168Y530761D01*
X132005Y530000D01*
X133995D01*
X134730Y530305D01*
X136000Y529456D01*
Y529005D01*
X136761Y527168D01*
X138168Y525761D01*
X140005Y525000D01*
X141995D01*
X143832Y525761D01*
X145239Y527168D01*
X146000Y529005D01*
Y530995D01*
X145239Y532832D01*
X143832Y534239D01*
X143804Y534251D01*
Y552339D01*
X153661Y562196D01*
X343000D01*
X344073Y562410D01*
X344983Y563017D01*
X361661Y579696D01*
X369909D01*
X370190Y579320D01*
X369699Y577988D01*
X369629Y577947D01*
X367079Y576890D01*
X364833Y575167D01*
X349833Y560167D01*
X348110Y557921D01*
X347027Y555306D01*
X346657Y552500D01*
Y549078D01*
X199750D01*
Y552000D01*
X186250D01*
Y538000D01*
X188008D01*
X188245Y536730D01*
X187413Y535899D01*
X186500Y533694D01*
Y531306D01*
X187413Y529101D01*
X189101Y527413D01*
X191306Y526500D01*
X193694D01*
X195899Y527413D01*
X197586Y529101D01*
X198500Y531306D01*
Y533694D01*
X197588Y535895D01*
Y538000D01*
X199750D01*
Y540922D01*
X346657D01*
Y512500D01*
Y390000D01*
Y367500D01*
X347027Y364694D01*
X348110Y362079D01*
X349833Y359833D01*
X354449Y355217D01*
X350811Y351578D01*
X197189D01*
X189384Y359384D01*
X189384Y359384D01*
X182038Y366730D01*
X182564Y368000D01*
X183750D01*
Y382000D01*
X181506D01*
X181255Y383270D01*
X182087Y384101D01*
X183000Y386306D01*
Y388694D01*
X182087Y390899D01*
X180399Y392587D01*
X178193Y393500D01*
X175807D01*
X173601Y392587D01*
X171913Y390899D01*
X171000Y388694D01*
Y386306D01*
X171913Y384101D01*
X172745Y383270D01*
X172495Y382000D01*
X170250D01*
Y379078D01*
X163500D01*
Y382000D01*
X150500D01*
Y368000D01*
X163500D01*
Y370922D01*
X170250D01*
Y368000D01*
X172922D01*
Y366000D01*
X172922Y366000D01*
X173232Y364439D01*
X174116Y363116D01*
X180732Y356500D01*
X141811Y317578D01*
X136907D01*
X135899Y318587D01*
X133694Y319500D01*
X131306D01*
X129101Y318587D01*
X127413Y316899D01*
X126500Y314694D01*
Y312306D01*
X127413Y310101D01*
X129101Y308414D01*
X131306Y307500D01*
X133694D01*
X135899Y308414D01*
X136907Y309422D01*
X143500D01*
X143500Y309422D01*
X145061Y309732D01*
X146384Y310616D01*
X186500Y350732D01*
X192616Y344616D01*
X192616Y344616D01*
X193939Y343732D01*
X195500Y343422D01*
X197797D01*
X198283Y342248D01*
X146023Y289988D01*
X145995Y290000D01*
X144005D01*
X142168Y289239D01*
X140761Y287832D01*
X140000Y285995D01*
Y284006D01*
X140761Y282168D01*
X142168Y280761D01*
X144005Y280000D01*
X145995D01*
X147832Y280761D01*
X149239Y282168D01*
X150000Y284006D01*
Y285995D01*
X149988Y286023D01*
X202850Y338885D01*
X357438D01*
X357449Y338856D01*
X358856Y337449D01*
X360694Y336688D01*
X362683D01*
X364521Y337449D01*
X365927Y338856D01*
X366688Y340694D01*
Y341897D01*
X367680Y342665D01*
X367927Y342758D01*
X369694Y342027D01*
X370816Y341879D01*
X371271Y340538D01*
X370775Y340042D01*
X370014Y338205D01*
Y336215D01*
X370025Y336187D01*
X368017Y334179D01*
X367410Y333269D01*
X367196Y332196D01*
Y227161D01*
X338839Y198804D01*
X319251D01*
X319239Y198832D01*
X317832Y200239D01*
X315995Y201000D01*
X314005D01*
X312168Y200239D01*
X310761Y198832D01*
X310000Y196995D01*
Y195005D01*
X310761Y193168D01*
X312168Y191761D01*
X314005Y191000D01*
X315995D01*
X317832Y191761D01*
X319239Y193168D01*
X319251Y193196D01*
X340000D01*
X341073Y193410D01*
X341983Y194017D01*
X371983Y224017D01*
X372590Y224927D01*
X372804Y226000D01*
Y331035D01*
X373991Y332222D01*
X374019Y332210D01*
X376008D01*
X377846Y332971D01*
X379252Y334378D01*
X380014Y336215D01*
Y338205D01*
X379252Y340042D01*
X378907Y340387D01*
X379434Y341657D01*
X382013D01*
X382499Y340484D01*
X382413Y340399D01*
X381500Y338194D01*
Y335807D01*
X382413Y333601D01*
X382745Y333270D01*
X382219Y332000D01*
X381000D01*
Y318000D01*
X394000D01*
Y332000D01*
X392781D01*
X392255Y333270D01*
X392587Y333601D01*
X393500Y335807D01*
Y338194D01*
X392587Y340399D01*
X392501Y340484D01*
X392987Y341657D01*
X399931D01*
Y332000D01*
X397000D01*
Y318000D01*
X410000D01*
Y332000D01*
X407069D01*
Y341657D01*
X411931D01*
Y253342D01*
X351794Y193206D01*
X350512Y191535D01*
X349706Y189588D01*
X349636Y189056D01*
X347000D01*
Y189500D01*
X334000D01*
Y182926D01*
X333944Y182500D01*
X334000Y182074D01*
Y175500D01*
X347000D01*
Y175944D01*
X349431D01*
Y168363D01*
X347000D01*
Y169500D01*
X334000D01*
Y155500D01*
X347000D01*
Y156637D01*
X349431D01*
Y148363D01*
X347000D01*
Y149500D01*
X334000D01*
Y135500D01*
X347000D01*
Y136637D01*
X349431D01*
Y115569D01*
X238069D01*
Y150475D01*
X238778Y150616D01*
X239697Y150997D01*
X240358Y151439D01*
X240358Y151439D01*
X241061Y152142D01*
X241503Y152803D01*
X241884Y153722D01*
X241884Y153722D01*
X242039Y154503D01*
Y160497D01*
X241884Y161278D01*
X241503Y162197D01*
X241061Y162858D01*
X240358Y163561D01*
X239697Y164003D01*
X239696Y164003D01*
X238778Y164384D01*
X237997Y164539D01*
X222003D01*
X221222Y164384D01*
X220303Y164003D01*
X219642Y163561D01*
X218939Y162858D01*
X218497Y162197D01*
X218116Y161278D01*
X217961Y160497D01*
Y154503D01*
X218116Y153722D01*
X218497Y152803D01*
X218939Y152142D01*
X218939Y152142D01*
X219642Y151439D01*
X220303Y150997D01*
X221222Y150616D01*
X221931Y150475D01*
Y113618D01*
X108500D01*
Y114500D01*
X95500D01*
Y100500D01*
X108500D01*
Y101383D01*
X224831D01*
X225965Y100512D01*
X227912Y99706D01*
X230000Y99431D01*
X357500D01*
X359588Y99706D01*
X361535Y100512D01*
X362669Y101383D01*
X760570D01*
X762911Y101848D01*
X764896Y103174D01*
X804824Y143103D01*
X806049Y142596D01*
X809043Y142000D01*
X812097D01*
X815091Y142596D01*
X817912Y143764D01*
X820451Y145460D01*
X822610Y147619D01*
X824306Y150158D01*
X825474Y152979D01*
X826070Y155973D01*
Y159027D01*
X825474Y162021D01*
X824306Y164842D01*
X822610Y167381D01*
X820451Y169540D01*
X817912Y171236D01*
X815091Y172404D01*
X812097Y173000D01*
X809043D01*
X806049Y172404D01*
X803228Y171236D01*
X800689Y169540D01*
X798530Y167381D01*
X796834Y164842D01*
X795666Y162021D01*
X795070Y159027D01*
Y155973D01*
X795666Y152979D01*
X796173Y151754D01*
X758036Y113618D01*
X508188D01*
Y143257D01*
X509412Y143764D01*
X511951Y145460D01*
X514110Y147619D01*
X515806Y150158D01*
X516974Y152979D01*
X517570Y155973D01*
Y159027D01*
X516974Y162021D01*
X515806Y164842D01*
X514110Y167381D01*
X511951Y169540D01*
X509412Y171236D01*
X506591Y172404D01*
X503597Y173000D01*
X500543D01*
X497549Y172404D01*
X494728Y171236D01*
X492189Y169540D01*
X490030Y167381D01*
X488334Y164842D01*
X487166Y162021D01*
X486570Y159027D01*
Y155973D01*
X487166Y152979D01*
X488334Y150158D01*
X490030Y147619D01*
X492189Y145460D01*
X494728Y143764D01*
X495952Y143257D01*
Y113618D01*
X365569D01*
Y143000D01*
Y162500D01*
Y184158D01*
X425706Y244294D01*
X426988Y245965D01*
X427794Y247912D01*
X428069Y250000D01*
Y341657D01*
X505412D01*
Y324000D01*
Y268897D01*
X504913Y268399D01*
X504000Y266194D01*
Y263806D01*
X504913Y261601D01*
X506601Y259914D01*
X508806Y259000D01*
X511194D01*
X513399Y259914D01*
X515087Y261601D01*
X516000Y263806D01*
Y266194D01*
X515087Y268399D01*
X514588Y268897D01*
Y319922D01*
X523000D01*
Y317000D01*
X536000D01*
Y331000D01*
X523000D01*
Y328078D01*
X514588D01*
Y341657D01*
X516879D01*
X517194Y341527D01*
X520000Y341157D01*
X534927D01*
X535577Y339887D01*
X535000Y338495D01*
Y336505D01*
X535761Y334668D01*
X537168Y333261D01*
X539005Y332500D01*
X539041D01*
X539194Y332270D01*
X539000Y331000D01*
X539000D01*
Y317000D01*
X551431D01*
Y283000D01*
X551703Y281634D01*
X552477Y280477D01*
X555477Y277477D01*
X556634Y276703D01*
X558000Y276431D01*
Y274000D01*
X572000D01*
Y287000D01*
X558569D01*
Y341298D01*
X560306Y341527D01*
X562921Y342610D01*
X565167Y344333D01*
X580167Y359333D01*
X581890Y361579D01*
X582973Y364194D01*
X583343Y367000D01*
Y400922D01*
X598811D01*
X602922Y396811D01*
Y361907D01*
X601913Y360899D01*
X601000Y358694D01*
Y356306D01*
X601913Y354101D01*
X603601Y352413D01*
X605807Y351500D01*
X608194D01*
X610399Y352413D01*
X612087Y354101D01*
X613000Y356306D01*
Y358694D01*
X612087Y360899D01*
X611078Y361907D01*
Y398500D01*
X610768Y400061D01*
X609884Y401384D01*
X609884Y401384D01*
X603384Y407884D01*
X602061Y408768D01*
X600500Y409078D01*
X600500Y409078D01*
X582239D01*
X581890Y409921D01*
X580167Y412167D01*
X577921Y413890D01*
X575306Y414973D01*
X572500Y415343D01*
X569694Y414973D01*
X567079Y413890D01*
X564833Y412167D01*
X563110Y409921D01*
X562972Y409588D01*
X559750D01*
Y412000D01*
X559118D01*
Y417500D01*
X559000Y418091D01*
Y418694D01*
X558769Y419250D01*
X558652Y419841D01*
X558317Y420342D01*
X558087Y420899D01*
X557660Y421325D01*
X557326Y421826D01*
X556825Y422160D01*
X556399Y422587D01*
X555842Y422817D01*
X555341Y423152D01*
X554750Y423270D01*
X554193Y423500D01*
X553591D01*
X553000Y423618D01*
X552409Y423500D01*
X551806D01*
X551250Y423270D01*
X550659Y423152D01*
X550158Y422817D01*
X549601Y422587D01*
X549175Y422160D01*
X548674Y421826D01*
X548340Y421325D01*
X547914Y420899D01*
X547683Y420342D01*
X547348Y419841D01*
X547231Y419250D01*
X547000Y418694D01*
Y418091D01*
X546883Y417500D01*
Y412000D01*
X546250D01*
Y398000D01*
X559750D01*
Y400412D01*
X561657D01*
Y379588D01*
X559750D01*
Y382000D01*
X559118D01*
Y387500D01*
X559000Y388091D01*
Y388694D01*
X558769Y389250D01*
X558652Y389841D01*
X558317Y390342D01*
X558087Y390899D01*
X557660Y391325D01*
X557326Y391826D01*
X556825Y392160D01*
X556399Y392587D01*
X555842Y392817D01*
X555341Y393152D01*
X554750Y393270D01*
X554193Y393500D01*
X553591D01*
X553000Y393618D01*
X552409Y393500D01*
X551806D01*
X551250Y393270D01*
X550659Y393152D01*
X550158Y392817D01*
X549601Y392587D01*
X549175Y392160D01*
X548674Y391826D01*
X548340Y391325D01*
X547914Y390899D01*
X547683Y390342D01*
X547348Y389841D01*
X547231Y389250D01*
X547000Y388694D01*
Y388091D01*
X546883Y387500D01*
Y382000D01*
X546250D01*
Y368000D01*
X556507D01*
X556993Y366827D01*
X553009Y362843D01*
X523121D01*
X522806Y362973D01*
X520000Y363343D01*
X497088D01*
Y365250D01*
X499500D01*
Y365882D01*
X507500D01*
X508091Y366000D01*
X508694D01*
X509250Y366231D01*
X509841Y366348D01*
X510342Y366683D01*
X510899Y366913D01*
X511325Y367340D01*
X511826Y367674D01*
X512160Y368175D01*
X512587Y368601D01*
X512817Y369158D01*
X513152Y369659D01*
X513269Y370250D01*
X513500Y370807D01*
Y371409D01*
X513618Y372000D01*
X513500Y372591D01*
Y373194D01*
X513269Y373750D01*
X513152Y374341D01*
X512817Y374842D01*
X512587Y375399D01*
X512160Y375825D01*
X511826Y376326D01*
X511325Y376660D01*
X510899Y377087D01*
X510342Y377317D01*
X509841Y377652D01*
X509250Y377770D01*
X508694Y378000D01*
X508091D01*
X507500Y378118D01*
X499500D01*
Y378750D01*
X485500D01*
Y365250D01*
X487912D01*
Y363343D01*
X474588D01*
Y365250D01*
X477000D01*
Y378750D01*
X463000D01*
Y378117D01*
X457500D01*
X457500Y378118D01*
X456909Y378000D01*
X456306D01*
X455750Y377770D01*
X455159Y377652D01*
X454658Y377317D01*
X454101Y377087D01*
X453675Y376660D01*
X453174Y376326D01*
X452840Y375825D01*
X452413Y375399D01*
X452183Y374842D01*
X451848Y374341D01*
X451731Y373750D01*
X451500Y373194D01*
Y372591D01*
X451382Y372000D01*
X451500Y371409D01*
Y370807D01*
X451731Y370250D01*
X451848Y369659D01*
X452183Y369158D01*
X452413Y368601D01*
X452840Y368175D01*
X453174Y367674D01*
Y367674D01*
X453675Y367340D01*
X454101Y366913D01*
X454658Y366683D01*
X455159Y366348D01*
X455750Y366231D01*
X456306Y366000D01*
X456909D01*
X457500Y365882D01*
X463000D01*
Y365250D01*
X465412D01*
Y363343D01*
X429588D01*
Y365250D01*
X432000D01*
Y378750D01*
X418000D01*
Y378118D01*
X412000D01*
X412000Y378118D01*
X411409Y378000D01*
X410807D01*
X410250Y377770D01*
X409659Y377652D01*
X409158Y377317D01*
X408601Y377087D01*
X408175Y376660D01*
X407674Y376326D01*
X407340Y375825D01*
X406913Y375399D01*
X406683Y374842D01*
X406348Y374341D01*
X406231Y373750D01*
X406000Y373194D01*
Y372591D01*
X405882Y372000D01*
X406000Y371409D01*
Y370807D01*
X406231Y370250D01*
X406348Y369659D01*
X406683Y369158D01*
X406913Y368601D01*
X407340Y368175D01*
X407674Y367674D01*
Y367674D01*
X408175Y367340D01*
X408601Y366913D01*
X409158Y366683D01*
X409659Y366348D01*
X410250Y366231D01*
X410807Y366000D01*
X411409D01*
X412000Y365882D01*
X418000D01*
Y365250D01*
X420412D01*
Y363343D01*
X376991D01*
X368343Y371991D01*
Y385412D01*
X370250D01*
Y383000D01*
X370882D01*
Y378000D01*
X371000Y377409D01*
Y376806D01*
X371231Y376250D01*
X371348Y375659D01*
X371683Y375158D01*
X371913Y374601D01*
X372340Y374175D01*
X372674Y373674D01*
X373175Y373340D01*
X373601Y372914D01*
X374158Y372683D01*
X374659Y372348D01*
X375250Y372231D01*
X375807Y372000D01*
X376409D01*
X377000Y371883D01*
X377591Y372000D01*
X378194D01*
X378750Y372231D01*
X379341Y372348D01*
X379842Y372683D01*
X380399Y372914D01*
X380825Y373340D01*
X381326Y373674D01*
X381660Y374175D01*
X382087Y374601D01*
X382317Y375158D01*
X382652Y375659D01*
X382769Y376250D01*
X383000Y376806D01*
Y377409D01*
X383117Y378000D01*
Y383000D01*
X383750D01*
Y397000D01*
X381259D01*
X380755Y398270D01*
X380825Y398340D01*
X381326Y398674D01*
X381660Y399175D01*
X382087Y399601D01*
X382317Y400158D01*
X382652Y400659D01*
X382769Y401250D01*
X383000Y401807D01*
Y402409D01*
X383117Y403000D01*
Y408500D01*
X383750D01*
Y422500D01*
X370250D01*
Y420088D01*
X368343D01*
Y429412D01*
X370250D01*
Y427000D01*
X383750D01*
Y441000D01*
X383117D01*
Y446500D01*
X383000Y447091D01*
Y447693D01*
X382769Y448250D01*
X382652Y448841D01*
X382317Y449342D01*
X382087Y449899D01*
X381660Y450325D01*
X381326Y450826D01*
X380825Y451161D01*
X380399Y451586D01*
X379842Y451817D01*
X379341Y452152D01*
X378750Y452269D01*
X378194Y452500D01*
X377591D01*
X377000Y452617D01*
X376409Y452500D01*
X375807D01*
X375250Y452269D01*
X374659Y452152D01*
X374158Y451817D01*
X373601Y451586D01*
X373175Y451161D01*
X372674Y450826D01*
Y450826D01*
X372340Y450325D01*
X371913Y449899D01*
X371683Y449342D01*
X371348Y448841D01*
X371231Y448250D01*
X371000Y447693D01*
Y447091D01*
X370882Y446500D01*
Y441000D01*
X370250D01*
Y438588D01*
X368343D01*
Y475412D01*
X370250D01*
Y473000D01*
X370882D01*
Y468500D01*
X371000Y467909D01*
Y467307D01*
X371231Y466750D01*
X371348Y466159D01*
X371683Y465658D01*
X371913Y465101D01*
X372340Y464675D01*
X372674Y464174D01*
X373175Y463839D01*
X373601Y463413D01*
X374158Y463183D01*
X374659Y462848D01*
X375250Y462731D01*
X375807Y462500D01*
X376409D01*
X377000Y462383D01*
X377591Y462500D01*
X378194D01*
X378750Y462731D01*
X379341Y462848D01*
X379842Y463183D01*
X380399Y463413D01*
X380825Y463839D01*
X381326Y464174D01*
X381660Y464675D01*
X382087Y465101D01*
X382317Y465658D01*
X382652Y466159D01*
X382769Y466750D01*
X383000Y467307D01*
Y467909D01*
X383117Y468500D01*
Y473000D01*
X383750D01*
Y487000D01*
X370250D01*
Y484588D01*
X368343D01*
Y507912D01*
X370250D01*
Y505500D01*
X383750D01*
Y519500D01*
X383117D01*
Y525000D01*
X383000Y525591D01*
Y526194D01*
X382769Y526750D01*
X382652Y527341D01*
X382317Y527842D01*
X382087Y528399D01*
X381660Y528825D01*
X381326Y529326D01*
X380825Y529660D01*
X380399Y530087D01*
X379842Y530317D01*
X379341Y530652D01*
X378750Y530770D01*
X378194Y531000D01*
X377591D01*
X377000Y531118D01*
X376409Y531000D01*
X375807D01*
X375250Y530770D01*
X374659Y530652D01*
X374158Y530317D01*
X373601Y530087D01*
X373175Y529660D01*
X372674Y529326D01*
X372340Y528825D01*
X371913Y528399D01*
X371683Y527842D01*
X371348Y527341D01*
X371231Y526750D01*
X371000Y526194D01*
Y525591D01*
X370882Y525000D01*
Y519500D01*
X370250D01*
Y517088D01*
X368343D01*
Y548009D01*
X376991Y556657D01*
X405912D01*
Y554500D01*
X403750D01*
Y540500D01*
X417250D01*
Y541382D01*
X422500D01*
X423091Y541500D01*
X423694D01*
X424250Y541731D01*
X424841Y541848D01*
X425342Y542183D01*
X425899Y542413D01*
X426325Y542840D01*
X426826Y543174D01*
X427160Y543675D01*
X427587Y544101D01*
X427817Y544658D01*
X428152Y545159D01*
X428270Y545750D01*
X428500Y546307D01*
Y546909D01*
X428618Y547500D01*
X428500Y548091D01*
Y548694D01*
X428270Y549250D01*
X428152Y549841D01*
X427817Y550342D01*
X427587Y550899D01*
X427160Y551325D01*
X426826Y551826D01*
X426325Y552160D01*
X425899Y552587D01*
X425342Y552817D01*
X424841Y553152D01*
X424250Y553270D01*
X423694Y553500D01*
X423091D01*
X422500Y553618D01*
X417250D01*
Y554500D01*
X415088D01*
Y556657D01*
X435412Y556657D01*
Y554750D01*
X433000D01*
Y541250D01*
X447000D01*
Y541883D01*
X452500D01*
X453091Y542000D01*
X453694D01*
X454250Y542231D01*
X454841Y542348D01*
X455342Y542683D01*
X455899Y542913D01*
X456325Y543340D01*
X456826Y543674D01*
X457160Y544175D01*
X457587Y544601D01*
X457817Y545158D01*
X458152Y545659D01*
X458269Y546250D01*
X458500Y546806D01*
Y547409D01*
X458618Y548000D01*
X458500Y548591D01*
Y549193D01*
X458269Y549750D01*
X458152Y550341D01*
X457817Y550842D01*
X457587Y551399D01*
X457160Y551825D01*
X456826Y552326D01*
X456826D01*
X456325Y552660D01*
X455899Y553087D01*
X455342Y553317D01*
X454841Y553652D01*
X454250Y553769D01*
X453694Y554000D01*
X453091D01*
X452500Y554118D01*
X447000D01*
Y554750D01*
X444588D01*
Y556657D01*
X480412D01*
Y554750D01*
X478000D01*
Y554118D01*
X472500D01*
X471909Y554000D01*
X471306D01*
X470750Y553769D01*
X470159Y553652D01*
X469658Y553317D01*
X469101Y553087D01*
X468675Y552660D01*
X468174Y552326D01*
X468174Y552326D01*
X467840Y551825D01*
X467413Y551399D01*
X467183Y550842D01*
X466848Y550341D01*
X466731Y549750D01*
X466500Y549193D01*
Y548591D01*
X466382Y548000D01*
X466500Y547409D01*
Y546806D01*
X466731Y546250D01*
X466848Y545659D01*
X467183Y545158D01*
X467413Y544601D01*
X467840Y544175D01*
X468174Y543674D01*
X468675Y543340D01*
X469101Y542913D01*
X469658Y542683D01*
X470159Y542348D01*
X470750Y542231D01*
X471306Y542000D01*
X471909D01*
X472500Y541883D01*
X472500Y541883D01*
X478000D01*
Y541250D01*
X492000D01*
Y543146D01*
X492786Y543500D01*
X493270Y543610D01*
X493675Y543340D01*
X494101Y542913D01*
X494658Y542683D01*
X495159Y542348D01*
X495750Y542231D01*
X496306Y542000D01*
X496909D01*
X497500Y541883D01*
X497500Y541883D01*
X503000D01*
Y541250D01*
X517000D01*
Y554750D01*
X514588D01*
Y556657D01*
X553009D01*
X556993Y552673D01*
X556507Y551500D01*
X546250D01*
Y537500D01*
X546883D01*
Y530500D01*
X547000Y529909D01*
Y529306D01*
X547231Y528750D01*
X547348Y528159D01*
X547683Y527658D01*
X547914Y527101D01*
X548340Y526675D01*
X548674Y526174D01*
X548905Y526020D01*
X548719Y525137D01*
X548469Y524750D01*
X545500D01*
Y524118D01*
X540000D01*
X539409Y524000D01*
X538806D01*
X538250Y523769D01*
X537659Y523652D01*
X537158Y523317D01*
X536601Y523087D01*
X536175Y522660D01*
X535674Y522326D01*
Y522326D01*
X535340Y521825D01*
X534913Y521399D01*
X534683Y520842D01*
X534348Y520341D01*
X534231Y519750D01*
X534000Y519193D01*
Y518591D01*
X533882Y518000D01*
X534000Y517409D01*
Y516806D01*
X534231Y516250D01*
X534348Y515659D01*
X534683Y515158D01*
X534913Y514601D01*
X535340Y514175D01*
X535674Y513674D01*
X536175Y513340D01*
X536601Y512914D01*
X537158Y512683D01*
X537659Y512348D01*
X538250Y512231D01*
X538806Y512000D01*
X539409D01*
X540000Y511883D01*
X540000Y511883D01*
X545500D01*
Y511250D01*
X559500D01*
Y513412D01*
X561866D01*
X562027Y512194D01*
X563110Y509579D01*
X564833Y507333D01*
X580833Y491333D01*
X583079Y489610D01*
X585694Y488527D01*
X588500Y488157D01*
X689000D01*
X691806Y488527D01*
X694421Y489610D01*
X696667Y491333D01*
X735167Y529833D01*
X735649Y530461D01*
X750497D01*
X751278Y530616D01*
X752197Y530997D01*
X752858Y531439D01*
X752858Y531439D01*
X753561Y532142D01*
X754003Y532803D01*
X754003Y532804D01*
X754384Y533722D01*
X754539Y534503D01*
Y550497D01*
X754384Y551278D01*
X754003Y552197D01*
X753561Y552858D01*
X752858Y553561D01*
X752197Y554003D01*
X752196Y554003D01*
X751278Y554384D01*
X750497Y554539D01*
X724503D01*
X723722Y554384D01*
X722803Y554003D01*
X722142Y553561D01*
X721439Y552858D01*
X720997Y552197D01*
X720616Y551278D01*
X720461Y550497D01*
Y545649D01*
X719833Y545167D01*
X684509Y509843D01*
X622078D01*
Y520500D01*
X624500D01*
Y534500D01*
X611500D01*
Y520500D01*
X613922D01*
Y509843D01*
X592991D01*
X583343Y519491D01*
Y523080D01*
X584613Y523606D01*
X584958Y523261D01*
X586795Y522500D01*
X588785D01*
X590622Y523261D01*
X592029Y524668D01*
X592041Y524696D01*
X595500D01*
Y520500D01*
X608500D01*
Y534500D01*
X595500D01*
Y530304D01*
X592041D01*
X592029Y530332D01*
X590622Y531739D01*
X588785Y532500D01*
X586795D01*
X584958Y531739D01*
X584613Y531394D01*
X583343Y531920D01*
Y552500D01*
X583204Y553553D01*
X587826Y558174D01*
X588161Y558675D01*
X588587Y559101D01*
X588817Y559658D01*
X589152Y560159D01*
X589269Y560750D01*
X589500Y561306D01*
Y561909D01*
X589618Y562500D01*
X589500Y563091D01*
Y563694D01*
X589269Y564250D01*
X589152Y564841D01*
X588817Y565342D01*
X588587Y565899D01*
X588161Y566325D01*
X587826Y566826D01*
X587325Y567160D01*
X586899Y567587D01*
X586342Y567817D01*
X585841Y568152D01*
X585250Y568269D01*
X584693Y568500D01*
X584091D01*
X583500Y568618D01*
X582909Y568500D01*
X582307D01*
X581750Y568270D01*
X581159Y568152D01*
X580658Y567817D01*
X580101Y567587D01*
X579675Y567160D01*
X579174Y566826D01*
X576341Y563993D01*
X565167Y575167D01*
X562921Y576890D01*
X560306Y577973D01*
X557500Y578343D01*
X543069D01*
Y624158D01*
X550842Y631931D01*
X565000D01*
X565000Y631931D01*
X592500D01*
X594588Y632206D01*
X596535Y633012D01*
X598206Y634294D01*
X599488Y635965D01*
X600294Y637912D01*
X600569Y640000D01*
X600294Y642088D01*
X599488Y644035D01*
X598206Y645706D01*
X596535Y646988D01*
X594588Y647794D01*
X592500Y648069D01*
X565000D01*
X565000Y648069D01*
D02*
G37*
G36*
X864694Y590000D02*
X862307D01*
X860101Y589087D01*
X858583Y587569D01*
X834000D01*
X832634Y587297D01*
X831477Y586523D01*
X828022Y583069D01*
X814500D01*
Y586500D01*
X801500D01*
Y572500D01*
X804431D01*
Y566500D01*
X801500D01*
Y552500D01*
X814500D01*
Y566500D01*
X811569D01*
Y572500D01*
X814500D01*
Y575931D01*
X829500D01*
X830866Y576203D01*
X832023Y576977D01*
X835478Y580431D01*
X858583D01*
X860101Y578913D01*
X862307Y578000D01*
X864694D01*
X866899Y578913D01*
X868587Y580601D01*
X869500Y582807D01*
Y585193D01*
X868587Y587399D01*
X866899Y589087D01*
X864694Y590000D01*
D02*
G37*
G36*
X798000Y586000D02*
X793000D01*
Y580500D01*
X798000D01*
Y586000D01*
D02*
G37*
G36*
X791000D02*
X786000D01*
Y580500D01*
X791000D01*
Y586000D01*
D02*
G37*
G36*
X798000Y578500D02*
X793000D01*
Y573000D01*
X798000D01*
Y578500D01*
D02*
G37*
G36*
X791000D02*
X786000D01*
Y573000D01*
X791000D01*
Y578500D01*
D02*
G37*
G36*
X400750Y554000D02*
X395500D01*
Y548500D01*
X400750D01*
Y554000D01*
D02*
G37*
G36*
X393500D02*
X388250D01*
Y548500D01*
X393500D01*
Y554000D01*
D02*
G37*
G36*
X183250Y551500D02*
X178000D01*
Y546000D01*
X183250D01*
Y551500D01*
D02*
G37*
G36*
X176000D02*
X170750D01*
Y546000D01*
X176000D01*
Y551500D01*
D02*
G37*
G36*
X543250Y551000D02*
X538000D01*
Y545500D01*
X543250D01*
Y551000D01*
D02*
G37*
G36*
X536000D02*
X530750D01*
Y545500D01*
X536000D01*
Y551000D01*
D02*
G37*
G36*
X798500Y566500D02*
X785500D01*
Y552500D01*
X786719D01*
X787245Y551230D01*
X786913Y550899D01*
X786000Y548694D01*
Y546307D01*
X786913Y544101D01*
X788601Y542413D01*
X790807Y541500D01*
X793194D01*
X795399Y542413D01*
X797086Y544101D01*
X798000Y546307D01*
Y548694D01*
X797086Y550899D01*
X796755Y551230D01*
X797281Y552500D01*
X798500D01*
Y566500D01*
D02*
G37*
G36*
X400750Y546500D02*
X395500D01*
Y541000D01*
X400750D01*
Y546500D01*
D02*
G37*
G36*
X393500D02*
X388250D01*
Y541000D01*
X393500D01*
Y546500D01*
D02*
G37*
G36*
X183250Y544000D02*
X178000D01*
Y538500D01*
X183250D01*
Y544000D01*
D02*
G37*
G36*
X176000D02*
X170750D01*
Y538500D01*
X176000D01*
Y544000D01*
D02*
G37*
G36*
X543250Y543500D02*
X538000D01*
Y538000D01*
X543250D01*
Y543500D01*
D02*
G37*
G36*
X536000D02*
X530750D01*
Y538000D01*
X536000D01*
Y543500D01*
D02*
G37*
G36*
X446500Y538250D02*
X441000D01*
Y533000D01*
X446500D01*
Y538250D01*
D02*
G37*
G36*
X439000D02*
X433500D01*
Y533000D01*
X439000D01*
Y538250D01*
D02*
G37*
G36*
X516500Y538250D02*
X511000D01*
Y533000D01*
X516500D01*
Y538250D01*
D02*
G37*
G36*
X491500D02*
X486000D01*
Y533000D01*
X491500D01*
Y538250D01*
D02*
G37*
G36*
X509000D02*
X503500D01*
Y533000D01*
X509000D01*
Y538250D01*
D02*
G37*
G36*
X484000D02*
X478500D01*
Y533000D01*
X484000D01*
Y538250D01*
D02*
G37*
G36*
X516500Y531000D02*
X511000D01*
Y525750D01*
X516500D01*
Y531000D01*
D02*
G37*
G36*
X509000D02*
X503500D01*
Y525750D01*
X509000D01*
Y531000D01*
D02*
G37*
G36*
X491500D02*
X486000D01*
Y525750D01*
X491500D01*
Y531000D01*
D02*
G37*
G36*
X484000D02*
X478500D01*
Y525750D01*
X484000D01*
Y531000D01*
D02*
G37*
G36*
X446500Y531000D02*
X441000D01*
Y525750D01*
X446500D01*
Y531000D01*
D02*
G37*
G36*
X439000D02*
X433500D01*
Y525750D01*
X439000D01*
Y531000D01*
D02*
G37*
G36*
X399250Y519000D02*
X394000D01*
Y513500D01*
X399250D01*
Y519000D01*
D02*
G37*
G36*
X392000D02*
X386750D01*
Y513500D01*
X392000D01*
Y519000D01*
D02*
G37*
G36*
X498694Y516000D02*
X496307D01*
X494101Y515087D01*
X492413Y513399D01*
X492167Y512804D01*
X445333D01*
X445087Y513399D01*
X443399Y515087D01*
X441194Y516000D01*
X438806D01*
X436601Y515087D01*
X434913Y513399D01*
X434000Y511194D01*
Y508807D01*
X434913Y506601D01*
X436601Y504913D01*
X438806Y504000D01*
X441194D01*
X443399Y504913D01*
X445087Y506601D01*
X445333Y507196D01*
X492167D01*
X492413Y506601D01*
X494101Y504913D01*
X496307Y504000D01*
X498694D01*
X500899Y504913D01*
X502587Y506601D01*
X503500Y508807D01*
Y511194D01*
X502587Y513399D01*
X500899Y515087D01*
X498694Y516000D01*
D02*
G37*
G36*
X399250Y511500D02*
X394000D01*
Y506000D01*
X399250D01*
Y511500D01*
D02*
G37*
G36*
X392000D02*
X386750D01*
Y506000D01*
X392000D01*
Y511500D01*
D02*
G37*
G36*
X559000Y508250D02*
X553500D01*
Y503000D01*
X559000D01*
Y508250D01*
D02*
G37*
G36*
X551500D02*
X546000D01*
Y503000D01*
X551500D01*
Y508250D01*
D02*
G37*
G36*
X559000Y501000D02*
X553500D01*
Y495750D01*
X559000D01*
Y501000D01*
D02*
G37*
G36*
X551500D02*
X546000D01*
Y495750D01*
X551500D01*
Y501000D01*
D02*
G37*
G36*
X399250Y486500D02*
X394000D01*
Y481000D01*
X399250D01*
Y486500D01*
D02*
G37*
G36*
X392000D02*
X386750D01*
Y481000D01*
X392000D01*
Y486500D01*
D02*
G37*
G36*
X399250Y479000D02*
X394000D01*
Y473500D01*
X399250D01*
Y479000D01*
D02*
G37*
G36*
X392000D02*
X386750D01*
Y473500D01*
X392000D01*
Y479000D01*
D02*
G37*
G36*
X526750Y479000D02*
X521500D01*
Y473500D01*
X526750D01*
Y479000D01*
D02*
G37*
G36*
X484250D02*
X479000D01*
Y473500D01*
X484250D01*
Y479000D01*
D02*
G37*
G36*
X519500D02*
X514250D01*
Y473500D01*
X519500D01*
Y479000D01*
D02*
G37*
G36*
X477000D02*
X471750D01*
Y473500D01*
X477000D01*
Y479000D01*
D02*
G37*
G36*
X449000Y475250D02*
X443500D01*
Y470000D01*
X449000D01*
Y475250D01*
D02*
G37*
G36*
X441500D02*
X436000D01*
Y470000D01*
X441500D01*
Y475250D01*
D02*
G37*
G36*
X504500Y491118D02*
X503909Y491000D01*
X503307D01*
X502750Y490769D01*
X502159Y490652D01*
X501658Y490317D01*
X501101Y490087D01*
X500675Y489660D01*
X500174Y489326D01*
X499840Y488825D01*
X499413Y488399D01*
X499183Y487842D01*
X498848Y487341D01*
X498731Y486750D01*
X498500Y486194D01*
Y485591D01*
X498382Y485000D01*
Y479500D01*
X497750D01*
Y465843D01*
X485455D01*
X484250Y466000D01*
X484250Y467113D01*
Y471500D01*
X478000D01*
X471750D01*
X471750Y466000D01*
X470545Y465843D01*
X470000D01*
X469705Y465804D01*
X468750Y466641D01*
Y479500D01*
X468117D01*
Y485000D01*
X468000Y485591D01*
Y486194D01*
X467769Y486750D01*
X467652Y487341D01*
X467317Y487842D01*
X467086Y488399D01*
X466660Y488825D01*
X466326Y489326D01*
X465825Y489660D01*
X465399Y490087D01*
X464842Y490317D01*
X464341Y490652D01*
X463750Y490769D01*
X463194Y491000D01*
X462591D01*
X462000Y491118D01*
X461409Y491000D01*
X460807D01*
X460250Y490769D01*
X459659Y490652D01*
X459158Y490317D01*
X458601Y490087D01*
X458175Y489660D01*
X457674Y489326D01*
X457340Y488825D01*
X456913Y488399D01*
X456683Y487842D01*
X456348Y487341D01*
X456231Y486750D01*
X456000Y486194D01*
Y485591D01*
X455882Y485000D01*
Y479500D01*
X455250D01*
Y465500D01*
X456912D01*
Y463500D01*
X457261Y461744D01*
X458256Y460256D01*
X459089Y459423D01*
X455577Y455911D01*
X455244Y456244D01*
X453756Y457239D01*
X452000Y457588D01*
X449500D01*
Y459750D01*
X435500D01*
Y459750D01*
X434230Y459422D01*
X431826Y461826D01*
X431325Y462160D01*
X430899Y462587D01*
X430342Y462817D01*
X429841Y463152D01*
X429250Y463270D01*
X428694Y463500D01*
X428091D01*
X427500Y463618D01*
X426909Y463500D01*
X426306D01*
X425750Y463270D01*
X425159Y463152D01*
X424658Y462817D01*
X424101Y462587D01*
X423675Y462160D01*
X423174Y461826D01*
X422840Y461325D01*
X422413Y460899D01*
X422183Y460342D01*
X421848Y459841D01*
X421731Y459250D01*
X421500Y458694D01*
Y458091D01*
X421382Y457500D01*
X421500Y456909D01*
Y456307D01*
X421731Y455750D01*
X421848Y455159D01*
X422183Y454658D01*
X422413Y454101D01*
X422840Y453675D01*
X423174Y453174D01*
X427674Y448674D01*
X429659Y447348D01*
X432000Y446883D01*
X435500D01*
Y446250D01*
X448359D01*
X449196Y445295D01*
X449157Y445000D01*
Y442955D01*
X449000Y441750D01*
X447887Y441750D01*
X443500D01*
Y435500D01*
Y429250D01*
X449000Y429250D01*
X449157Y428045D01*
Y426250D01*
X435500D01*
Y425617D01*
X430000D01*
X429409Y425500D01*
X428806D01*
X428250Y425269D01*
X427659Y425152D01*
X427158Y424817D01*
X426601Y424587D01*
X426175Y424160D01*
X425674Y423826D01*
X425340Y423325D01*
X424913Y422899D01*
X424683Y422342D01*
X424348Y421841D01*
X424231Y421250D01*
X424000Y420694D01*
Y420091D01*
X423882Y419500D01*
X424000Y418909D01*
Y418307D01*
X424231Y417750D01*
X424348Y417159D01*
X424683Y416658D01*
X424913Y416101D01*
X425340Y415675D01*
X425674Y415174D01*
X426175Y414840D01*
X426601Y414413D01*
X427158Y414183D01*
X427659Y413848D01*
X428250Y413731D01*
X428806Y413500D01*
X429409D01*
X430000Y413382D01*
X435500D01*
Y412750D01*
X449500D01*
Y414912D01*
X451889D01*
X452333Y414333D01*
X454579Y412610D01*
X457194Y411527D01*
X460000Y411157D01*
X462806Y411527D01*
X465421Y412610D01*
X467667Y414333D01*
X468111Y414912D01*
X470500D01*
Y412750D01*
X484500D01*
Y413382D01*
X490000D01*
X490591Y413500D01*
X491194D01*
X491750Y413731D01*
X492341Y413848D01*
X492842Y414183D01*
X493399Y414413D01*
X493825Y414840D01*
X494326Y415174D01*
X494660Y415675D01*
X495087Y416101D01*
X495317Y416658D01*
X495652Y417159D01*
X495769Y417750D01*
X496000Y418307D01*
Y418909D01*
X496118Y419500D01*
X496000Y420091D01*
Y420694D01*
X495769Y421250D01*
X495652Y421841D01*
X495317Y422342D01*
X495087Y422899D01*
X494660Y423325D01*
X494326Y423826D01*
X493825Y424160D01*
X493399Y424587D01*
X492842Y424817D01*
X492341Y425152D01*
X491750Y425269D01*
X491194Y425500D01*
X490591D01*
X490000Y425617D01*
X484500D01*
Y426250D01*
X470843D01*
Y428045D01*
X471000Y429250D01*
X476500D01*
Y435500D01*
Y441750D01*
X473743D01*
X473257Y442923D01*
X474491Y444157D01*
X685509D01*
X720961Y408705D01*
Y407003D01*
X721116Y406222D01*
X721497Y405303D01*
X721939Y404642D01*
X721939Y404642D01*
X722642Y403939D01*
X723304Y403497D01*
X724222Y403116D01*
X725003Y402961D01*
X750997D01*
X751778Y403116D01*
X752697Y403497D01*
X753358Y403939D01*
X753358Y403939D01*
X754061Y404642D01*
X754503Y405303D01*
X754503Y405303D01*
X754884Y406222D01*
X755039Y407003D01*
Y422997D01*
X754884Y423778D01*
X754503Y424697D01*
X754061Y425358D01*
X753358Y426061D01*
X752697Y426503D01*
X752696Y426503D01*
X751778Y426884D01*
X750997Y427039D01*
X733295D01*
X697667Y462667D01*
X695421Y464390D01*
X692806Y465473D01*
X690000Y465843D01*
X527955D01*
X526750Y466000D01*
X526750Y467113D01*
Y471500D01*
X520500D01*
X514250D01*
X514250Y466000D01*
X513045Y465843D01*
X511250D01*
Y479500D01*
X510617D01*
Y485000D01*
X510500Y485591D01*
Y486194D01*
X510269Y486750D01*
X510152Y487341D01*
X509817Y487842D01*
X509587Y488399D01*
X509160Y488825D01*
X508826Y489326D01*
X508325Y489660D01*
X507899Y490087D01*
X507342Y490317D01*
X506841Y490652D01*
X506250Y490769D01*
X505694Y491000D01*
X505091D01*
X504500Y491118D01*
D02*
G37*
G36*
X449000Y468000D02*
X443500D01*
Y462750D01*
X449000D01*
Y468000D01*
D02*
G37*
G36*
X441500D02*
X436000D01*
Y462750D01*
X441500D01*
Y468000D01*
D02*
G37*
G36*
X864193Y463500D02*
X861806D01*
X859601Y462587D01*
X858083Y461069D01*
X834000D01*
X832634Y460797D01*
X831477Y460023D01*
X827022Y455569D01*
X814500D01*
Y459043D01*
X801500D01*
Y445042D01*
X804431D01*
Y441000D01*
X801500D01*
Y427000D01*
X814500D01*
Y441000D01*
X811569D01*
Y445042D01*
X814500D01*
Y448431D01*
X828500D01*
X829866Y448703D01*
X831023Y449477D01*
X835478Y453931D01*
X858083D01*
X859601Y452413D01*
X861806Y451500D01*
X864193D01*
X866399Y452413D01*
X868087Y454101D01*
X869000Y456306D01*
Y458694D01*
X868087Y460899D01*
X866399Y462587D01*
X864193Y463500D01*
D02*
G37*
G36*
X798000Y458543D02*
X793000D01*
Y453042D01*
X798000D01*
Y458543D01*
D02*
G37*
G36*
X791000D02*
X786000D01*
Y453042D01*
X791000D01*
Y458543D01*
D02*
G37*
G36*
X798000Y451043D02*
X793000D01*
Y445542D01*
X798000D01*
Y451043D01*
D02*
G37*
G36*
X791000D02*
X786000D01*
Y445542D01*
X791000D01*
Y451043D01*
D02*
G37*
G36*
X441500Y441750D02*
X436000D01*
Y436500D01*
X441500D01*
Y441750D01*
D02*
G37*
G36*
X484000D02*
X478500D01*
Y436500D01*
X484000D01*
Y441750D01*
D02*
G37*
G36*
X399250Y440500D02*
X394000D01*
Y435000D01*
X399250D01*
Y440500D01*
D02*
G37*
G36*
X392000D02*
X386750D01*
Y435000D01*
X392000D01*
Y440500D01*
D02*
G37*
G36*
X484000Y434500D02*
X478500D01*
Y429250D01*
X484000D01*
Y434500D01*
D02*
G37*
G36*
X441500Y434500D02*
X436000D01*
Y429250D01*
X441500D01*
Y434500D01*
D02*
G37*
G36*
X399250Y433000D02*
X394000D01*
Y427500D01*
X399250D01*
Y433000D01*
D02*
G37*
G36*
X392000D02*
X386750D01*
Y427500D01*
X392000D01*
Y433000D01*
D02*
G37*
G36*
X399250Y422000D02*
X394000D01*
Y416500D01*
X399250D01*
Y422000D01*
D02*
G37*
G36*
X392000D02*
X386750D01*
Y416500D01*
X392000D01*
Y422000D01*
D02*
G37*
G36*
X798500Y441000D02*
X785500D01*
Y427000D01*
X788431D01*
Y424917D01*
X786913Y423399D01*
X786000Y421194D01*
Y418806D01*
X786913Y416601D01*
X788601Y414913D01*
X790807Y414000D01*
X793194D01*
X795399Y414913D01*
X797086Y416601D01*
X798000Y418806D01*
Y421194D01*
X797086Y423399D01*
X795569Y424917D01*
Y427000D01*
X798500D01*
Y441000D01*
D02*
G37*
G36*
X399250Y414500D02*
X394000D01*
Y409000D01*
X399250D01*
Y414500D01*
D02*
G37*
G36*
X392000D02*
X386750D01*
Y409000D01*
X392000D01*
Y414500D01*
D02*
G37*
G36*
X543250Y411500D02*
X538000D01*
Y406000D01*
X543250D01*
Y411500D01*
D02*
G37*
G36*
X536000D02*
X530750D01*
Y406000D01*
X536000D01*
Y411500D01*
D02*
G37*
G36*
X543250Y404000D02*
X538000D01*
Y398500D01*
X543250D01*
Y404000D01*
D02*
G37*
G36*
X536000D02*
X530750D01*
Y398500D01*
X536000D01*
Y404000D01*
D02*
G37*
G36*
X399250Y396500D02*
X394000D01*
Y391000D01*
X399250D01*
Y396500D01*
D02*
G37*
G36*
X392000D02*
X386750D01*
Y391000D01*
X392000D01*
Y396500D01*
D02*
G37*
G36*
X499000Y394250D02*
X493500D01*
Y389000D01*
X499000D01*
Y394250D01*
D02*
G37*
G36*
X431500D02*
X426000D01*
Y389000D01*
X431500D01*
Y394250D01*
D02*
G37*
G36*
X491500D02*
X486000D01*
Y389000D01*
X491500D01*
Y394250D01*
D02*
G37*
G36*
X424000D02*
X418500D01*
Y389000D01*
X424000D01*
Y394250D01*
D02*
G37*
G36*
X476500Y394250D02*
X471000D01*
Y389000D01*
X476500D01*
Y394250D01*
D02*
G37*
G36*
X469000D02*
X463500D01*
Y389000D01*
X469000D01*
Y394250D01*
D02*
G37*
G36*
X399250Y389000D02*
X394000D01*
Y383500D01*
X399250D01*
Y389000D01*
D02*
G37*
G36*
X392000D02*
X386750D01*
Y383500D01*
X392000D01*
Y389000D01*
D02*
G37*
G36*
X499000Y387000D02*
X493500D01*
Y381750D01*
X499000D01*
Y387000D01*
D02*
G37*
G36*
X491500D02*
X486000D01*
Y381750D01*
X491500D01*
Y387000D01*
D02*
G37*
G36*
X431500D02*
X426000D01*
Y381750D01*
X431500D01*
Y387000D01*
D02*
G37*
G36*
X424000D02*
X418500D01*
Y381750D01*
X424000D01*
Y387000D01*
D02*
G37*
G36*
X476500Y387000D02*
X471000D01*
Y381750D01*
X476500D01*
Y387000D01*
D02*
G37*
G36*
X469000D02*
X463500D01*
Y381750D01*
X469000D01*
Y387000D01*
D02*
G37*
G36*
X543250Y381500D02*
X538000D01*
Y376000D01*
X543250D01*
Y381500D01*
D02*
G37*
G36*
X536000D02*
X530750D01*
Y376000D01*
X536000D01*
Y381500D01*
D02*
G37*
G36*
X199250Y381500D02*
X194000D01*
Y376000D01*
X199250D01*
Y381500D01*
D02*
G37*
G36*
X192000D02*
X186750D01*
Y376000D01*
X192000D01*
Y381500D01*
D02*
G37*
G36*
X543250Y374000D02*
X538000D01*
Y368500D01*
X543250D01*
Y374000D01*
D02*
G37*
G36*
X536000D02*
X530750D01*
Y368500D01*
X536000D01*
Y374000D01*
D02*
G37*
G36*
X199250Y374000D02*
X194000D01*
Y368500D01*
X199250D01*
Y374000D01*
D02*
G37*
G36*
X192000D02*
X186750D01*
Y368500D01*
X192000D01*
Y374000D01*
D02*
G37*
G36*
X142193Y393500D02*
X139806D01*
X137601Y392587D01*
X135913Y390899D01*
X135000Y388694D01*
Y386306D01*
X135913Y384101D01*
X136745Y383270D01*
X136495Y382000D01*
X134500D01*
Y368000D01*
X147500D01*
Y382000D01*
X145506D01*
X145255Y383270D01*
X146087Y384101D01*
X147000Y386306D01*
Y388694D01*
X146087Y390899D01*
X144399Y392587D01*
X142193Y393500D01*
D02*
G37*
G36*
X572000Y271000D02*
X558000D01*
Y268069D01*
X554917D01*
X553399Y269587D01*
X551194Y270500D01*
X548806D01*
X546601Y269587D01*
X544913Y267899D01*
X544000Y265693D01*
Y263307D01*
X544913Y261101D01*
X546601Y259414D01*
X548806Y258500D01*
X551194D01*
X553399Y259414D01*
X554917Y260931D01*
X558000D01*
Y258000D01*
X572000D01*
Y271000D01*
D02*
G37*
G36*
X854500Y207906D02*
Y194500D01*
X867906D01*
X867404Y197021D01*
X866236Y199842D01*
X864540Y202381D01*
X862381Y204540D01*
X859842Y206236D01*
X857021Y207404D01*
X854500Y207906D01*
D02*
G37*
G36*
X850500D02*
X847979Y207404D01*
X845158Y206236D01*
X842619Y204540D01*
X840460Y202381D01*
X838764Y199842D01*
X837596Y197021D01*
X837094Y194500D01*
X850500D01*
Y207906D01*
D02*
G37*
G36*
X546000D02*
Y194500D01*
X559406D01*
X558904Y197021D01*
X557736Y199842D01*
X556040Y202381D01*
X553881Y204540D01*
X551342Y206236D01*
X548521Y207404D01*
X546000Y207906D01*
D02*
G37*
G36*
X542000D02*
X539479Y207404D01*
X536658Y206236D01*
X534119Y204540D01*
X531960Y202381D01*
X530264Y199842D01*
X529096Y197021D01*
X528594Y194500D01*
X542000D01*
Y207906D01*
D02*
G37*
G36*
X74000Y200750D02*
X60000D01*
Y187250D01*
X74000D01*
Y188137D01*
X90000D01*
Y187500D01*
X104000D01*
Y188137D01*
X113500D01*
Y187500D01*
X127500D01*
Y188137D01*
X141000D01*
X141000Y188137D01*
X148000D01*
Y187000D01*
X162000D01*
Y187887D01*
X165500D01*
Y187500D01*
X179500D01*
Y188137D01*
X183000D01*
Y187500D01*
X197000D01*
Y188137D01*
X205475D01*
X205807Y188000D01*
X208193D01*
X210399Y188913D01*
X212087Y190601D01*
X213000Y192806D01*
Y195194D01*
X212087Y197399D01*
X210399Y199086D01*
X208193Y200000D01*
X205807D01*
X205475Y199863D01*
X197000D01*
Y200500D01*
X183000D01*
Y199863D01*
X179500D01*
Y200500D01*
X165500D01*
Y199613D01*
X162000D01*
Y200000D01*
X148000D01*
Y199863D01*
X141000D01*
X141000Y199863D01*
X127500D01*
Y200500D01*
X113500D01*
Y199863D01*
X104000D01*
Y200500D01*
X90000D01*
Y199863D01*
X74000D01*
Y200750D01*
D02*
G37*
G36*
X331000Y189500D02*
X318000D01*
Y186328D01*
X303157D01*
X302399Y187087D01*
X300194Y188000D01*
X297806D01*
X295601Y187087D01*
X293913Y185399D01*
X293000Y183193D01*
Y180807D01*
X293913Y178601D01*
X295601Y176913D01*
X297806Y176000D01*
X300194D01*
X302399Y176913D01*
X303657Y178172D01*
X318000D01*
Y175500D01*
X331000D01*
Y189500D01*
D02*
G37*
G36*
X73500Y184250D02*
X68000D01*
Y179000D01*
X73500D01*
Y184250D01*
D02*
G37*
G36*
X66000D02*
X60500D01*
Y179000D01*
X66000D01*
Y184250D01*
D02*
G37*
G36*
X867906Y190500D02*
X854500D01*
Y177094D01*
X857021Y177596D01*
X859842Y178764D01*
X862381Y180460D01*
X864540Y182619D01*
X866236Y185158D01*
X867404Y187979D01*
X867906Y190500D01*
D02*
G37*
G36*
X850500D02*
X837094D01*
X837596Y187979D01*
X838764Y185158D01*
X840460Y182619D01*
X842619Y180460D01*
X845158Y178764D01*
X847979Y177596D01*
X850500Y177094D01*
Y190500D01*
D02*
G37*
G36*
X559406D02*
X546000D01*
Y177094D01*
X548521Y177596D01*
X551342Y178764D01*
X553881Y180460D01*
X556040Y182619D01*
X557736Y185158D01*
X558904Y187979D01*
X559406Y190500D01*
D02*
G37*
G36*
X542000D02*
X528594D01*
X529096Y187979D01*
X530264Y185158D01*
X531960Y182619D01*
X534119Y180460D01*
X536658Y178764D01*
X539479Y177596D01*
X542000Y177094D01*
Y190500D01*
D02*
G37*
G36*
X812097Y208000D02*
X809043D01*
X806049Y207404D01*
X803228Y206236D01*
X800689Y204540D01*
X798530Y202381D01*
X796834Y199842D01*
X795666Y197021D01*
X795070Y194027D01*
Y190973D01*
X795666Y187979D01*
X796834Y185158D01*
X798530Y182619D01*
X800689Y180460D01*
X803228Y178764D01*
X806049Y177596D01*
X809043Y177000D01*
X812097D01*
X815091Y177596D01*
X817912Y178764D01*
X820451Y180460D01*
X822610Y182619D01*
X824306Y185158D01*
X825474Y187979D01*
X826070Y190973D01*
Y194027D01*
X825474Y197021D01*
X824306Y199842D01*
X822610Y202381D01*
X820451Y204540D01*
X817912Y206236D01*
X815091Y207404D01*
X812097Y208000D01*
D02*
G37*
G36*
X770187D02*
X767133D01*
X764139Y207404D01*
X761318Y206236D01*
X758779Y204540D01*
X756620Y202381D01*
X754924Y199842D01*
X753756Y197021D01*
X753160Y194027D01*
Y190973D01*
X753756Y187979D01*
X754924Y185158D01*
X756620Y182619D01*
X758779Y180460D01*
X761318Y178764D01*
X764139Y177596D01*
X767133Y177000D01*
X770187D01*
X773181Y177596D01*
X776002Y178764D01*
X778541Y180460D01*
X780700Y182619D01*
X782396Y185158D01*
X783564Y187979D01*
X784160Y190973D01*
Y194027D01*
X783564Y197021D01*
X782396Y199842D01*
X780700Y202381D01*
X778541Y204540D01*
X776002Y206236D01*
X773181Y207404D01*
X770187Y208000D01*
D02*
G37*
G36*
X728277D02*
X725223D01*
X722229Y207404D01*
X719408Y206236D01*
X716869Y204540D01*
X714710Y202381D01*
X713014Y199842D01*
X711846Y197021D01*
X711250Y194027D01*
Y190973D01*
X711846Y187979D01*
X713014Y185158D01*
X714710Y182619D01*
X716869Y180460D01*
X719408Y178764D01*
X722229Y177596D01*
X725223Y177000D01*
X728277D01*
X731271Y177596D01*
X734092Y178764D01*
X736631Y180460D01*
X738790Y182619D01*
X740486Y185158D01*
X741654Y187979D01*
X742250Y190973D01*
Y194027D01*
X741654Y197021D01*
X740486Y199842D01*
X738790Y202381D01*
X736631Y204540D01*
X734092Y206236D01*
X731271Y207404D01*
X728277Y208000D01*
D02*
G37*
G36*
X503597D02*
X500543D01*
X497549Y207404D01*
X494728Y206236D01*
X492189Y204540D01*
X490030Y202381D01*
X488334Y199842D01*
X487166Y197021D01*
X486570Y194027D01*
Y190973D01*
X487166Y187979D01*
X488334Y185158D01*
X490030Y182619D01*
X492189Y180460D01*
X494728Y178764D01*
X497549Y177596D01*
X500543Y177000D01*
X503597D01*
X506591Y177596D01*
X509412Y178764D01*
X511951Y180460D01*
X514110Y182619D01*
X515806Y185158D01*
X516974Y187979D01*
X517570Y190973D01*
Y194027D01*
X516974Y197021D01*
X515806Y199842D01*
X514110Y202381D01*
X511951Y204540D01*
X509412Y206236D01*
X506591Y207404D01*
X503597Y208000D01*
D02*
G37*
G36*
X461687D02*
X458633D01*
X455639Y207404D01*
X452818Y206236D01*
X450279Y204540D01*
X448120Y202381D01*
X446424Y199842D01*
X445256Y197021D01*
X444660Y194027D01*
Y190973D01*
X445256Y187979D01*
X446424Y185158D01*
X448120Y182619D01*
X450279Y180460D01*
X452818Y178764D01*
X455639Y177596D01*
X458633Y177000D01*
X461687D01*
X464681Y177596D01*
X467502Y178764D01*
X470041Y180460D01*
X472200Y182619D01*
X473896Y185158D01*
X475064Y187979D01*
X475660Y190973D01*
Y194027D01*
X475064Y197021D01*
X473896Y199842D01*
X472200Y202381D01*
X470041Y204540D01*
X467502Y206236D01*
X464681Y207404D01*
X461687Y208000D01*
D02*
G37*
G36*
X419777D02*
X416723D01*
X413729Y207404D01*
X410908Y206236D01*
X408369Y204540D01*
X406210Y202381D01*
X404514Y199842D01*
X403346Y197021D01*
X402750Y194027D01*
Y190973D01*
X403346Y187979D01*
X404514Y185158D01*
X406210Y182619D01*
X408369Y180460D01*
X410908Y178764D01*
X413729Y177596D01*
X416723Y177000D01*
X419777D01*
X422771Y177596D01*
X425592Y178764D01*
X428131Y180460D01*
X430290Y182619D01*
X431986Y185158D01*
X433154Y187979D01*
X433750Y190973D01*
Y194027D01*
X433154Y197021D01*
X431986Y199842D01*
X430290Y202381D01*
X428131Y204540D01*
X425592Y206236D01*
X422771Y207404D01*
X419777Y208000D01*
D02*
G37*
G36*
X127500Y184500D02*
X113500D01*
Y181326D01*
X112757D01*
X111392Y181054D01*
X110234Y180281D01*
X105477Y175523D01*
X105270Y175214D01*
X104000Y175599D01*
Y184500D01*
X90000D01*
Y171500D01*
X93431D01*
Y163503D01*
X92761Y162832D01*
X92000Y160995D01*
Y159005D01*
X92761Y157168D01*
X94168Y155761D01*
X96005Y155000D01*
X97995D01*
X99832Y155761D01*
X101239Y157168D01*
X101827Y158587D01*
X103173D01*
X103761Y157168D01*
X105168Y155761D01*
X107006Y155000D01*
X108995D01*
X110832Y155761D01*
X112239Y157168D01*
X113000Y159005D01*
Y160995D01*
X112239Y162832D01*
X111569Y163503D01*
Y171379D01*
X112303Y171969D01*
X113500Y171500D01*
Y171500D01*
X127500D01*
Y184500D01*
D02*
G37*
G36*
X73500Y177000D02*
X68000D01*
Y171750D01*
X73500D01*
Y177000D01*
D02*
G37*
G36*
X66000D02*
X60500D01*
Y171750D01*
X66000D01*
Y177000D01*
D02*
G37*
G36*
X197000Y184500D02*
X183000D01*
Y171500D01*
X186431D01*
Y166478D01*
X183522Y163569D01*
X177502D01*
X176832Y164239D01*
X174995Y165000D01*
X174706D01*
X174220Y166173D01*
X175023Y166977D01*
X175797Y168134D01*
X176069Y169500D01*
Y171500D01*
X179500D01*
Y184500D01*
X165500D01*
Y171500D01*
X167657D01*
X168183Y170230D01*
X162953Y165000D01*
X162005D01*
X160168Y164239D01*
X159839Y163910D01*
X158569Y164436D01*
Y171000D01*
X162000D01*
Y184000D01*
X148000D01*
Y171000D01*
X151431D01*
Y165290D01*
X151142Y165000D01*
X151005D01*
X149168Y164239D01*
X147761Y162832D01*
X147000Y160995D01*
Y159005D01*
X147761Y157168D01*
X149168Y155761D01*
X151005Y155000D01*
X152995D01*
X154832Y155761D01*
X156239Y157168D01*
X156827Y158587D01*
X158173D01*
X158761Y157168D01*
X160168Y155761D01*
X162005Y155000D01*
X163995D01*
X165832Y155761D01*
X167239Y157168D01*
X167827Y158587D01*
X169173D01*
X169761Y157168D01*
X171168Y155761D01*
X173005Y155000D01*
X174995D01*
X176832Y155761D01*
X177502Y156431D01*
X185000D01*
X186366Y156703D01*
X187523Y157477D01*
X192523Y162477D01*
X193297Y163634D01*
X193569Y165000D01*
Y171500D01*
X197000D01*
Y184500D01*
D02*
G37*
G36*
X275194Y188000D02*
X272806D01*
X270601Y187087D01*
X268913Y185399D01*
X268000Y183193D01*
Y180807D01*
X268913Y178601D01*
X270601Y176913D01*
X272806Y176000D01*
X274232D01*
X290616Y159616D01*
X290616Y159616D01*
X291939Y158732D01*
X293500Y158422D01*
X318000D01*
Y155500D01*
X331000D01*
Y169500D01*
X318000D01*
Y166578D01*
X295189D01*
X280000Y181768D01*
Y183193D01*
X279087Y185399D01*
X277399Y187087D01*
X275194Y188000D01*
D02*
G37*
G36*
X331000Y149500D02*
X318000D01*
Y146578D01*
X290082D01*
X290082Y146578D01*
X288522Y146268D01*
X287957Y145891D01*
X287694Y146000D01*
X285306D01*
X283101Y145087D01*
X281413Y143399D01*
X280500Y141194D01*
Y138806D01*
X281413Y136601D01*
X283101Y134913D01*
X285306Y134000D01*
X287694D01*
X289899Y134913D01*
X291586Y136601D01*
X292341Y138422D01*
X318000D01*
Y135500D01*
X331000D01*
Y149500D01*
D02*
G37*
G36*
X770187Y173000D02*
X767133D01*
X764139Y172404D01*
X761318Y171236D01*
X758779Y169540D01*
X756620Y167381D01*
X754924Y164842D01*
X753756Y162021D01*
X753160Y159027D01*
Y155973D01*
X753756Y152979D01*
X754924Y150158D01*
X756620Y147619D01*
X758779Y145460D01*
X761318Y143764D01*
X764139Y142596D01*
X767133Y142000D01*
X770187D01*
X773181Y142596D01*
X776002Y143764D01*
X778541Y145460D01*
X780700Y147619D01*
X782396Y150158D01*
X783564Y152979D01*
X784160Y155973D01*
Y159027D01*
X783564Y162021D01*
X782396Y164842D01*
X780700Y167381D01*
X778541Y169540D01*
X776002Y171236D01*
X773181Y172404D01*
X770187Y173000D01*
D02*
G37*
G36*
X728277D02*
X725223D01*
X722229Y172404D01*
X719408Y171236D01*
X716869Y169540D01*
X714710Y167381D01*
X713014Y164842D01*
X711846Y162021D01*
X711250Y159027D01*
Y155973D01*
X711846Y152979D01*
X713014Y150158D01*
X714710Y147619D01*
X716869Y145460D01*
X719408Y143764D01*
X722229Y142596D01*
X725223Y142000D01*
X728277D01*
X731271Y142596D01*
X734092Y143764D01*
X736631Y145460D01*
X738790Y147619D01*
X740486Y150158D01*
X741654Y152979D01*
X742250Y155973D01*
Y159027D01*
X741654Y162021D01*
X740486Y164842D01*
X738790Y167381D01*
X736631Y169540D01*
X734092Y171236D01*
X731271Y172404D01*
X728277Y173000D01*
D02*
G37*
G36*
X461687D02*
X458633D01*
X455639Y172404D01*
X452818Y171236D01*
X450279Y169540D01*
X448120Y167381D01*
X446424Y164842D01*
X445256Y162021D01*
X444660Y159027D01*
Y155973D01*
X445256Y152979D01*
X446424Y150158D01*
X448120Y147619D01*
X450279Y145460D01*
X452818Y143764D01*
X455639Y142596D01*
X458633Y142000D01*
X461687D01*
X464681Y142596D01*
X467502Y143764D01*
X470041Y145460D01*
X472200Y147619D01*
X473896Y150158D01*
X475064Y152979D01*
X475660Y155973D01*
Y159027D01*
X475064Y162021D01*
X473896Y164842D01*
X472200Y167381D01*
X470041Y169540D01*
X467502Y171236D01*
X464681Y172404D01*
X461687Y173000D01*
D02*
G37*
G36*
X419777D02*
X416723D01*
X413729Y172404D01*
X410908Y171236D01*
X408369Y169540D01*
X406210Y167381D01*
X404514Y164842D01*
X403346Y162021D01*
X402750Y159027D01*
Y155973D01*
X403346Y152979D01*
X404514Y150158D01*
X406210Y147619D01*
X408369Y145460D01*
X410908Y143764D01*
X413729Y142596D01*
X416723Y142000D01*
X419777D01*
X422771Y142596D01*
X425592Y143764D01*
X428131Y145460D01*
X430290Y147619D01*
X431986Y150158D01*
X433154Y152979D01*
X433750Y155973D01*
Y159027D01*
X433154Y162021D01*
X431986Y164842D01*
X430290Y167381D01*
X428131Y169540D01*
X425592Y171236D01*
X422771Y172404D01*
X419777Y173000D01*
D02*
G37*
G36*
X87193Y131500D02*
X84806D01*
X82601Y130587D01*
X80913Y128899D01*
X80000Y126693D01*
Y124306D01*
X80913Y122101D01*
X81922Y121093D01*
Y114500D01*
X79500D01*
Y100500D01*
X92500D01*
Y114500D01*
X90078D01*
Y121093D01*
X91087Y122101D01*
X92000Y124306D01*
Y126693D01*
X91087Y128899D01*
X89399Y130587D01*
X87193Y131500D01*
D02*
G37*
G36*
X307000Y92835D02*
Y84500D01*
X315334D01*
X314784Y86553D01*
X313402Y88947D01*
X311447Y90902D01*
X309053Y92284D01*
X307000Y92835D01*
D02*
G37*
G36*
X303000D02*
X300947Y92284D01*
X298553Y90902D01*
X296598Y88947D01*
X295216Y86553D01*
X294666Y84500D01*
X303000D01*
Y92835D01*
D02*
G37*
G36*
Y80500D02*
X294666D01*
X295216Y78447D01*
X296598Y76053D01*
X298553Y74098D01*
X300947Y72716D01*
X303000Y72165D01*
Y80500D01*
D02*
G37*
G36*
X315334D02*
X307000D01*
Y72165D01*
X309053Y72716D01*
X311447Y74098D01*
X313402Y76053D01*
X314784Y78447D01*
X315334Y80500D01*
D02*
G37*
G36*
X892500Y93104D02*
X888285Y92689D01*
X884232Y91460D01*
X880498Y89463D01*
X877224Y86776D01*
X874537Y83503D01*
X872541Y79767D01*
X871311Y75715D01*
X870896Y71500D01*
Y68500D01*
X871311Y64285D01*
X872541Y60233D01*
X874537Y56498D01*
X877224Y53224D01*
X880498Y50537D01*
X884232Y48541D01*
X888285Y47311D01*
X892500Y46896D01*
X896715Y47311D01*
X900768Y48541D01*
X904502Y50537D01*
X907776Y53224D01*
X910463Y56498D01*
X912459Y60233D01*
X913689Y64285D01*
X914104Y68500D01*
Y71500D01*
X913689Y75715D01*
X912459Y79767D01*
X910463Y83503D01*
X907776Y86776D01*
X904502Y89463D01*
X900768Y91460D01*
X896715Y92689D01*
X892500Y93104D01*
D02*
G37*
G36*
X687500D02*
X683285Y92689D01*
X679232Y91460D01*
X675498Y89463D01*
X672224Y86776D01*
X669537Y83503D01*
X667541Y79767D01*
X666311Y75715D01*
X665896Y71500D01*
Y68500D01*
X666311Y64285D01*
X667541Y60233D01*
X669537Y56498D01*
X672224Y53224D01*
X675498Y50537D01*
X679232Y48541D01*
X683285Y47311D01*
X687500Y46896D01*
X691715Y47311D01*
X695768Y48541D01*
X699502Y50537D01*
X702776Y53224D01*
X705463Y56498D01*
X707459Y60233D01*
X708689Y64285D01*
X709104Y68500D01*
Y71500D01*
X708689Y75715D01*
X707459Y79767D01*
X705463Y83503D01*
X702776Y86776D01*
X699502Y89463D01*
X695768Y91460D01*
X691715Y92689D01*
X687500Y93104D01*
D02*
G37*
G36*
X584000D02*
X579785Y92689D01*
X575732Y91460D01*
X571997Y89463D01*
X568724Y86776D01*
X566037Y83503D01*
X564040Y79767D01*
X562811Y75715D01*
X562396Y71500D01*
Y68500D01*
X562811Y64285D01*
X564040Y60233D01*
X566037Y56498D01*
X568724Y53224D01*
X571997Y50537D01*
X575732Y48541D01*
X579785Y47311D01*
X584000Y46896D01*
X588215Y47311D01*
X592267Y48541D01*
X596003Y50537D01*
X599276Y53224D01*
X601963Y56498D01*
X603960Y60233D01*
X605189Y64285D01*
X605604Y68500D01*
Y71500D01*
X605189Y75715D01*
X603960Y79767D01*
X601963Y83503D01*
X599276Y86776D01*
X596003Y89463D01*
X592267Y91460D01*
X588215Y92689D01*
X584000Y93104D01*
D02*
G37*
G36*
X379000D02*
X374785Y92689D01*
X370732Y91460D01*
X366997Y89463D01*
X363724Y86776D01*
X361037Y83503D01*
X359040Y79767D01*
X357811Y75715D01*
X357396Y71500D01*
Y68500D01*
X357811Y64285D01*
X359040Y60233D01*
X361037Y56498D01*
X363724Y53224D01*
X366997Y50537D01*
X370732Y48541D01*
X374785Y47311D01*
X379000Y46896D01*
X383215Y47311D01*
X387267Y48541D01*
X391003Y50537D01*
X394276Y53224D01*
X396963Y56498D01*
X398960Y60233D01*
X400189Y64285D01*
X400604Y68500D01*
Y71500D01*
X400189Y75715D01*
X398960Y79767D01*
X396963Y83503D01*
X394276Y86776D01*
X391003Y89463D01*
X387267Y91460D01*
X383215Y92689D01*
X379000Y93104D01*
D02*
G37*
G36*
X306382Y67600D02*
X303618D01*
X300947Y66884D01*
X298553Y65502D01*
X296598Y63547D01*
X295216Y61153D01*
X294500Y58482D01*
Y55718D01*
X295216Y53047D01*
X296598Y50653D01*
X298553Y48698D01*
X300947Y47316D01*
X303618Y46600D01*
X306382D01*
X309053Y47316D01*
X311447Y48698D01*
X313402Y50653D01*
X314784Y53047D01*
X315500Y55718D01*
Y58482D01*
X314784Y61153D01*
X313402Y63547D01*
X311447Y65502D01*
X309053Y66884D01*
X306382Y67600D01*
D02*
G37*
G36*
X183422Y47000D02*
X181578D01*
X179798Y46523D01*
X178202Y45601D01*
X176899Y44298D01*
X175977Y42702D01*
X175500Y40922D01*
Y39078D01*
X175977Y37298D01*
X176899Y35702D01*
X178202Y34399D01*
X179798Y33477D01*
X181578Y33000D01*
X183422D01*
X185202Y33477D01*
X186798Y34399D01*
X188101Y35702D01*
X189023Y37298D01*
X189500Y39078D01*
Y40922D01*
X189023Y42702D01*
X188101Y44298D01*
X186798Y45601D01*
X185202Y46523D01*
X183422Y47000D01*
D02*
G37*
G36*
X103622D02*
X101778D01*
X99998Y46523D01*
X98402Y45601D01*
X97099Y44298D01*
X96177Y42702D01*
X95700Y40922D01*
Y39078D01*
X96177Y37298D01*
X97099Y35702D01*
X98402Y34399D01*
X99998Y33477D01*
X101778Y33000D01*
X103622D01*
X105402Y33477D01*
X106998Y34399D01*
X108301Y35702D01*
X109223Y37298D01*
X109700Y39078D01*
Y40922D01*
X109223Y42702D01*
X108301Y44298D01*
X106998Y45601D01*
X105402Y46523D01*
X103622Y47000D01*
D02*
G37*
G36*
X315500Y42200D02*
X294500D01*
Y21200D01*
X315500D01*
Y42200D01*
D02*
G37*
G36*
X971773Y48000D02*
X968227D01*
X964750Y47308D01*
X961474Y45951D01*
X958526Y43981D01*
X956019Y41474D01*
X954049Y38526D01*
X952692Y35250D01*
X952000Y31773D01*
Y28227D01*
X952692Y24750D01*
X954049Y21474D01*
X956019Y18526D01*
X958526Y16019D01*
X961474Y14049D01*
X964750Y12692D01*
X968227Y12000D01*
X971773D01*
X975250Y12692D01*
X978526Y14049D01*
X981474Y16019D01*
X983981Y18526D01*
X985951Y21474D01*
X987308Y24750D01*
X988000Y28227D01*
Y31773D01*
X987308Y35250D01*
X985951Y38526D01*
X983981Y41474D01*
X981474Y43981D01*
X978526Y45951D01*
X975250Y47308D01*
X971773Y48000D01*
D02*
G37*
G36*
X31773D02*
X28227D01*
X24750Y47308D01*
X21474Y45951D01*
X18526Y43981D01*
X16019Y41474D01*
X14049Y38526D01*
X12692Y35250D01*
X12000Y31773D01*
Y28227D01*
X12692Y24750D01*
X14049Y21474D01*
X16019Y18526D01*
X18526Y16019D01*
X21474Y14049D01*
X24750Y12692D01*
X28227Y12000D01*
X31773D01*
X35250Y12692D01*
X38526Y14049D01*
X41474Y16019D01*
X43981Y18526D01*
X45951Y21474D01*
X47308Y24750D01*
X48000Y28227D01*
Y31773D01*
X47308Y35250D01*
X45951Y38526D01*
X43981Y41474D01*
X41474Y43981D01*
X38526Y45951D01*
X35250Y47308D01*
X31773Y48000D01*
D02*
G37*
%LPD*%
G36*
X751416Y552119D02*
X752119Y551416D01*
X752500Y550497D01*
Y550000D01*
Y535000D01*
Y534503D01*
X752119Y533584D01*
X751416Y532881D01*
X750497Y532500D01*
X724503D01*
X723584Y532881D01*
X722881Y533584D01*
X722500Y534503D01*
Y535000D01*
Y550000D01*
Y550497D01*
X722881Y551416D01*
X723584Y552119D01*
X724503Y552500D01*
X750497D01*
X751416Y552119D01*
D02*
G37*
G36*
X238916Y162119D02*
X239619Y161416D01*
X240000Y160497D01*
Y160000D01*
Y155000D01*
Y154503D01*
X239619Y153584D01*
X238916Y152881D01*
X237997Y152500D01*
X222003D01*
X221084Y152881D01*
X220381Y153584D01*
X220000Y154503D01*
Y155000D01*
Y160000D01*
Y160497D01*
X220381Y161416D01*
X221084Y162119D01*
X222003Y162500D01*
X237997D01*
X238916Y162119D01*
D02*
G37*
G36*
X751916Y424619D02*
X752619Y423916D01*
X753000Y422997D01*
Y422500D01*
Y407500D01*
Y407003D01*
X752619Y406084D01*
X751916Y405381D01*
X750997Y405000D01*
X725003D01*
X724084Y405381D01*
X723381Y406084D01*
X723000Y407003D01*
Y407500D01*
Y422500D01*
Y422997D01*
X723381Y423916D01*
X724084Y424619D01*
X725003Y425000D01*
X750997D01*
X751916Y424619D01*
D02*
G37*
D10*
X534000Y802500D02*
X548500D01*
X560000Y791000D01*
X568500Y776500D02*
Y782500D01*
X560000Y791000D02*
X568500Y782500D01*
X599000Y776500D02*
X617500Y758000D01*
X568500Y776500D02*
X599000D01*
X498000Y788000D02*
X534000D01*
X486500Y799500D02*
X498000Y788000D01*
X479500Y799500D02*
X486500D01*
X502500Y829000D02*
X505000Y826500D01*
X459500Y799500D02*
X479500D01*
X442500Y419500D02*
X477500D01*
X810000Y800100D02*
Y829000D01*
X789500Y779600D02*
X810000Y800100D01*
X504500Y455000D02*
Y472500D01*
X572000Y405000D02*
X572500Y404500D01*
X553000Y405000D02*
X572000D01*
X452000Y453000D02*
X460000Y445000D01*
X442500Y453000D02*
X452000D01*
X461500Y463500D02*
X470000Y455000D01*
X461500Y463500D02*
Y472000D01*
X462000Y472500D01*
X425000Y353000D02*
Y372000D01*
X470000Y351500D02*
Y352500D01*
Y372000D01*
X492500Y352500D02*
Y372000D01*
X553000Y375000D02*
X564500D01*
X572500Y367000D01*
X357500Y390000D02*
X377000D01*
X358000Y415500D02*
X377000D01*
X377000Y415500D01*
X358000Y434000D02*
X377000D01*
X358500Y480000D02*
X377000D01*
X357500Y512500D02*
X377000D01*
X410500Y547500D02*
Y567500D01*
X440000Y548000D02*
Y567500D01*
X485000Y548000D02*
Y567500D01*
X510000Y548000D02*
Y567500D01*
Y548000D02*
X510000Y548000D01*
X553000Y544500D02*
X572000D01*
X572500Y518000D02*
X573500D01*
X552500D02*
X572500D01*
X510000Y324000D02*
Y352500D01*
Y265000D02*
Y324000D01*
X538500Y827000D02*
X540500Y829000D01*
X193000Y375000D02*
X193000Y375000D01*
X193000Y375000D02*
Y387500D01*
X237500Y738000D02*
Y794000D01*
X222000Y809500D02*
X237500Y794000D01*
X177000Y533000D02*
X177500Y532500D01*
X177000Y533000D02*
Y545000D01*
X192500Y532500D02*
X193000Y533000D01*
Y545000D01*
D62*
X552500Y763000D02*
Y778000D01*
X467500Y765000D02*
X497500D01*
X459500Y773000D02*
X467500Y765000D01*
X459500Y773000D02*
Y783500D01*
X120257Y177757D02*
X120500Y178000D01*
X108000Y173000D02*
X112757Y177757D01*
X108000Y160000D02*
Y173000D01*
X112757Y177757D02*
X120257D01*
X555000Y283000D02*
Y351500D01*
Y283000D02*
X558000Y280000D01*
X564500D01*
X565000Y280500D01*
X550000Y264500D02*
X565000D01*
X97000Y160000D02*
Y178000D01*
X174000Y160000D02*
X185000D01*
X190000Y165000D02*
Y178000D01*
X185000Y160000D02*
X190000Y165000D01*
X163000Y160000D02*
X172500Y169500D01*
Y178000D01*
X152000Y160812D02*
X155000Y163812D01*
X152000Y160000D02*
Y160812D01*
X155000Y163812D02*
Y177500D01*
X545500Y324000D02*
Y332000D01*
X540000Y337500D02*
X545500Y332000D01*
X403500Y325000D02*
Y352500D01*
X387500Y325000D02*
X387500Y325000D01*
Y337000D01*
X829500Y579500D02*
X834000Y584000D01*
X808000Y579500D02*
X829500D01*
X834000Y584000D02*
X863500D01*
X808043Y452000D02*
X828500D01*
X834000Y457500D02*
X863000D01*
X828500Y452000D02*
X834000Y457500D01*
X808000Y452043D02*
X808043Y452000D01*
X808000Y559500D02*
Y579500D01*
X792000Y547500D02*
Y559500D01*
Y420000D02*
Y434000D01*
X808000D02*
Y452043D01*
X287500Y652500D02*
Y724500D01*
X237500Y695000D02*
Y722000D01*
X347500Y652500D02*
Y724500D01*
D63*
X340500Y162500D02*
D03*
X324500D02*
D03*
X340500Y182500D02*
D03*
X324500D02*
D03*
X545500Y324000D02*
D03*
X529500D02*
D03*
X86000Y107500D02*
D03*
X102000D02*
D03*
X403500Y325000D02*
D03*
X387500D02*
D03*
X340500Y142500D02*
D03*
X324500D02*
D03*
X141000Y375000D02*
D03*
X157000D02*
D03*
X618000Y527500D02*
D03*
X602000D02*
D03*
X552500Y776500D02*
D03*
X568500D02*
D03*
X792000Y452043D02*
D03*
X808000D02*
D03*
Y434000D02*
D03*
X792000D02*
D03*
Y579500D02*
D03*
X808000D02*
D03*
Y559500D02*
D03*
X792000D02*
D03*
D65*
X197000Y743500D02*
D03*
Y759500D02*
D03*
X49000Y776000D02*
D03*
Y760000D02*
D03*
X237500Y738000D02*
D03*
Y722000D02*
D03*
X565000Y280500D02*
D03*
Y264500D02*
D03*
X97000Y178000D02*
D03*
Y194000D02*
D03*
X190000Y178000D02*
D03*
Y194000D02*
D03*
X120500Y178000D02*
D03*
Y194000D02*
D03*
X155000Y177500D02*
D03*
Y193500D02*
D03*
X172500Y178000D02*
D03*
Y194000D02*
D03*
X287500Y724500D02*
D03*
Y740500D02*
D03*
X347500Y724500D02*
D03*
Y740500D02*
D03*
X479500Y799500D02*
D03*
Y783500D02*
D03*
X459500D02*
D03*
Y799500D02*
D03*
D66*
X67000Y194000D02*
D03*
Y178000D02*
D03*
X492500Y388000D02*
D03*
Y372000D02*
D03*
X470000Y388000D02*
D03*
Y372000D02*
D03*
X510000Y532000D02*
D03*
Y548000D02*
D03*
X425000Y388000D02*
D03*
Y372000D02*
D03*
X552500Y502000D02*
D03*
Y518000D02*
D03*
X485000Y532000D02*
D03*
Y548000D02*
D03*
X440000Y532000D02*
D03*
Y548000D02*
D03*
X442500Y435500D02*
D03*
Y419500D02*
D03*
Y469000D02*
D03*
Y453000D02*
D03*
X477500Y435500D02*
D03*
Y419500D02*
D03*
D72*
X505000Y802500D02*
D03*
X534000D02*
D03*
D76*
X393000Y434000D02*
D03*
X377000D02*
D03*
X537000Y544500D02*
D03*
X553000D02*
D03*
X393000Y390000D02*
D03*
X377000D02*
D03*
X393000Y415500D02*
D03*
X377000D02*
D03*
X393000Y512500D02*
D03*
X377000D02*
D03*
X537000Y405000D02*
D03*
X553000D02*
D03*
X393000Y480000D02*
D03*
X377000D02*
D03*
X193000Y545000D02*
D03*
X177000D02*
D03*
Y375000D02*
D03*
X193000D02*
D03*
X410500Y547500D02*
D03*
X394500D02*
D03*
X537000Y375000D02*
D03*
X553000D02*
D03*
X478000Y472500D02*
D03*
X462000D02*
D03*
X520500D02*
D03*
X504500D02*
D03*
D93*
X557500Y727500D02*
Y732000D01*
X543500Y746000D02*
X557500Y732000D01*
X515500Y774000D02*
X543500Y746000D01*
X515500Y774000D02*
Y774000D01*
X487500Y783500D02*
X497000Y774000D01*
X515500D01*
X479500Y783500D02*
X487500D01*
X479500Y783500D02*
X479500Y783500D01*
X145000Y285000D02*
X201688Y341688D01*
X361688D01*
X315000Y196000D02*
X340000D01*
X370000Y226000D01*
Y332196D01*
X375014Y337210D01*
X330000Y602500D02*
X347500Y620000D01*
X127500Y602500D02*
X330000D01*
X347500Y620000D02*
X400000D01*
X332500Y595000D02*
X350000Y612500D01*
X132500Y595000D02*
X332500D01*
X350000Y612500D02*
X395000D01*
X142500Y580000D02*
X337500D01*
X355000Y597500D02*
X385000D01*
X337500Y580000D02*
X355000Y597500D01*
X152500Y565000D02*
X343000D01*
X360500Y582500D02*
X375000D01*
X343000Y565000D02*
X360500Y582500D01*
X137500Y587500D02*
X335000D01*
X352500Y605000D02*
X390000D01*
X335000Y587500D02*
X352500Y605000D01*
X147500Y572500D02*
X340000Y572500D01*
X357500Y590000D02*
X380000D01*
X340000Y572500D02*
X357500Y590000D01*
X141000Y553500D02*
X152500Y565000D01*
X141000Y530000D02*
Y553500D01*
X109000Y571500D02*
X132500Y595000D01*
X109000Y550000D02*
Y571500D01*
X117000Y567000D02*
X137500Y587500D01*
X117000Y545000D02*
Y567000D01*
X125000Y562500D02*
X142500Y580000D01*
X125000Y540000D02*
Y562500D01*
X133000Y558000D02*
X147500Y572500D01*
X133000Y535000D02*
Y558000D01*
X101000Y555000D02*
Y576000D01*
X127500Y602500D01*
X589000Y720000D02*
X601500Y707500D01*
Y699500D02*
Y707500D01*
X720050Y792450D02*
X726000Y786500D01*
X700450Y792450D02*
X720050D01*
X675000Y717500D02*
X711500D01*
X726000Y732000D01*
X667500Y725000D02*
X675000Y717500D01*
X680000Y725000D02*
Y749000D01*
X726000Y732000D02*
Y786500D01*
X662500Y766500D02*
X680000Y749000D01*
X662500Y766500D02*
Y779600D01*
X557500Y727500D02*
X565000Y720000D01*
X589000D01*
X687900Y805000D02*
X700450Y792450D01*
X587790Y527500D02*
X602000D01*
X440000Y510000D02*
X497500D01*
D95*
X690000Y455000D02*
X729500Y415500D01*
X460000Y422000D02*
Y445000D01*
X810000Y829000D02*
X899953D01*
X540500D02*
X810000D01*
X572500Y367000D02*
Y404500D01*
X504500Y455000D02*
X690000D01*
X470000D02*
X504500D01*
X403500Y352500D02*
X470000D01*
X492500D01*
X510000D01*
X357500Y390000D02*
Y512500D01*
Y367500D02*
Y390000D01*
Y512500D02*
Y552500D01*
X410500Y567500D02*
X440000Y567500D01*
X372500Y567500D02*
X410500D01*
X485000Y567500D02*
X510000D01*
X440000D02*
X485000D01*
X510000D02*
X535000D01*
X572500Y518000D02*
Y552500D01*
Y515000D02*
Y518000D01*
X510000Y352500D02*
X520000D01*
Y352000D02*
X557500D01*
X572500Y367000D01*
X372500Y352500D02*
X403500D01*
X949500Y697500D02*
Y779453D01*
X369000Y790000D02*
Y829000D01*
X502500D02*
X540500D01*
X369000D02*
X502500D01*
X899953D02*
X949500Y779453D01*
X372500Y567500D02*
X372500Y567500D01*
X357500Y552500D02*
X372500Y567500D01*
X535000D02*
X557500D01*
X572500Y552500D01*
X357500Y367500D02*
X365000Y360000D01*
X372500Y352500D01*
X241500Y829000D02*
X369000D01*
X222000Y809500D02*
X241500Y829000D01*
X202500Y790000D02*
X222000Y809500D01*
X202500Y777500D02*
Y790000D01*
X572500Y515000D02*
X588500Y499000D01*
X689000D02*
X727500Y537500D01*
X588500Y499000D02*
X617500D01*
X689000D01*
X460000Y445000D02*
X470000Y455000D01*
D97*
X340500Y182500D02*
X356500D01*
D99*
X177000Y366000D02*
X186500Y356500D01*
X132500Y313500D02*
X143500D01*
X186500Y356500D02*
X195500Y347500D01*
X143500Y313500D02*
X186500Y356500D01*
X195500Y347500D02*
X352500D01*
X177000Y366000D02*
Y375000D01*
X572000Y405000D02*
X600500D01*
X607000Y357500D02*
Y398500D01*
X600500Y405000D02*
X607000Y398500D01*
X86000Y107500D02*
Y125500D01*
X86000Y107500D02*
X86000Y107500D01*
X299000Y182000D02*
X299250Y182250D01*
X324250D02*
X324500Y182500D01*
X299250Y182250D02*
X324250D01*
X274000Y182000D02*
X293500Y162500D01*
X324500D01*
X290082Y142500D02*
X324500D01*
X287582Y140000D02*
X290082Y142500D01*
X286500Y140000D02*
X287582D01*
X510000Y324000D02*
X529500D01*
X352500Y347500D02*
X365000Y360000D01*
X141000Y375500D02*
Y387500D01*
Y375500D02*
X141500Y375000D01*
X350000Y545000D02*
X357500Y552500D01*
X764100Y779600D02*
X789500Y805000D01*
X158000Y375000D02*
X177000D01*
Y387500D01*
X193000Y545000D02*
X350000D01*
X618000Y499500D02*
Y527500D01*
X617500Y499000D02*
X618000Y499500D01*
D101*
X534000Y778000D02*
Y788000D01*
Y802500D01*
X505000D02*
Y826500D01*
X120500Y194000D02*
X141000D01*
X97500D02*
X120500D01*
X141000Y194000D02*
X152000D01*
X152250Y193750D02*
X170250D01*
X152000Y194000D02*
X152250Y193750D01*
X141000Y194000D02*
X141000Y194000D01*
X170250Y193750D02*
X170500Y194000D01*
X207000D02*
X207000Y194000D01*
X190000Y194000D02*
X207000D01*
X170500D02*
X190500D01*
X68500D02*
X97500D01*
X340500Y162500D02*
X357500D01*
X340500Y142500D02*
X357000D01*
D103*
X357500Y162500D02*
Y187500D01*
X420000Y250000D01*
X357500Y143000D02*
Y162500D01*
Y107500D02*
Y143000D01*
X420000Y250000D02*
Y351500D01*
X318500Y107500D02*
X357500D01*
X230000D02*
X318500D01*
X535000Y567500D02*
Y627500D01*
X547500Y640000D01*
X565000D01*
X565000Y640000D02*
X592500D01*
X230000Y107500D02*
Y153500D01*
D104*
X540000Y518000D02*
X552500D01*
X540000Y518000D02*
X540000Y518000D01*
X553000Y375000D02*
Y387500D01*
X457500Y372000D02*
X457500Y372000D01*
X470000D01*
X553000Y530500D02*
Y544500D01*
X504500Y472500D02*
Y485000D01*
X462000Y472500D02*
Y485000D01*
Y472500D02*
X462000Y472500D01*
X477500Y419500D02*
X490000D01*
X430000D02*
X442500D01*
X432000Y453000D02*
X442500D01*
X427500Y457500D02*
X432000Y453000D01*
X553000Y405000D02*
Y417500D01*
X492500Y372000D02*
X507500D01*
X412000D02*
X425000D01*
X412000Y372000D02*
X412000Y372000D01*
X377000Y378000D02*
Y390000D01*
Y403000D02*
Y415500D01*
X377000Y434000D02*
Y446500D01*
X377000Y446500D01*
Y468500D02*
Y480000D01*
X377000Y480000D02*
X377000Y480000D01*
Y512500D02*
Y525000D01*
X497500Y548000D02*
X497500Y548000D01*
X510000D01*
X472500Y548000D02*
X472500Y548000D01*
X485000D01*
X440000Y548000D02*
X452500D01*
X452500Y548000D01*
X410500Y547500D02*
X422500D01*
X357000Y142500D02*
X357500Y143000D01*
Y107500D02*
X760570D01*
X502070Y108070D02*
Y157500D01*
X760570Y107500D02*
X810570Y157500D01*
X49000Y760000D02*
X49000Y760000D01*
X72500D01*
X196500D02*
X197000Y759500D01*
X172500Y760000D02*
X196500D01*
X573500Y552500D02*
X583500Y562500D01*
X565000Y640000D02*
X565000Y640000D01*
X572500Y552500D02*
X573500D01*
X103000Y107500D02*
X230000D01*
D107*
X572000Y804000D02*
D03*
X427000D02*
D03*
D108*
X572000Y744000D02*
D03*
X427000D02*
D03*
D109*
X305000Y82500D02*
D03*
Y57100D02*
D03*
X662500Y805000D02*
D03*
X687900Y779600D02*
D03*
Y805000D02*
D03*
X713300Y779600D02*
D03*
Y805000D02*
D03*
X738700Y779600D02*
D03*
Y805000D02*
D03*
X764100Y779600D02*
D03*
Y805000D02*
D03*
X789500Y779600D02*
D03*
Y805000D02*
D03*
D110*
X305000Y31700D02*
D03*
D111*
X418250Y157500D02*
D03*
X460160D02*
D03*
X502070D02*
D03*
Y192500D02*
D03*
X418250D02*
D03*
X544000D02*
D03*
X460160D02*
D03*
X768660D02*
D03*
X852500D02*
D03*
X726750D02*
D03*
X810570D02*
D03*
Y157500D02*
D03*
X768660D02*
D03*
X726750D02*
D03*
D112*
X379000Y70000D02*
D03*
X584000D02*
D03*
X892500D02*
D03*
X687500D02*
D03*
D113*
X172500Y760000D02*
D03*
X147500D02*
D03*
X97500D02*
D03*
X72500D02*
D03*
D114*
X122500Y810000D02*
D03*
D115*
X662500Y779600D02*
D03*
D116*
X895000Y701000D02*
D03*
D117*
Y763000D02*
D03*
D118*
X848000Y733000D02*
D03*
D119*
X104000Y208500D02*
D03*
X454500Y814000D02*
D03*
X487000D02*
D03*
X552000D02*
D03*
X519500D02*
D03*
X419000Y612500D02*
D03*
X119000Y162500D02*
D03*
X587500Y390000D02*
D03*
X534500Y292000D02*
D03*
X174000Y160000D02*
D03*
X97000D02*
D03*
X108000D02*
D03*
X152000D02*
D03*
X141000Y194000D02*
D03*
X527500Y310000D02*
D03*
X531000Y335500D02*
D03*
X540000Y337500D02*
D03*
X462500Y338500D02*
D03*
X438500Y335000D02*
D03*
X375014Y337210D02*
D03*
X361688Y341688D02*
D03*
X141000Y530000D02*
D03*
X448000Y621500D02*
D03*
X465500D02*
D03*
X483000D02*
D03*
X500500D02*
D03*
X518000D02*
D03*
X448000Y594000D02*
D03*
Y649000D02*
D03*
Y676500D02*
D03*
Y704000D02*
D03*
X465500D02*
D03*
Y676500D02*
D03*
Y649000D02*
D03*
Y594000D02*
D03*
X483000D02*
D03*
X500500D02*
D03*
X518000D02*
D03*
X500500Y649000D02*
D03*
X518000D02*
D03*
X500500Y676500D02*
D03*
X518000D02*
D03*
X500500Y704000D02*
D03*
X518000D02*
D03*
X395000Y612500D02*
D03*
X400000Y620000D02*
D03*
X380000Y590000D02*
D03*
X375000Y582500D02*
D03*
X390000Y605000D02*
D03*
X419000Y582500D02*
D03*
X385000Y597500D02*
D03*
X459500Y755500D02*
D03*
X474500D02*
D03*
X489500D02*
D03*
X504500D02*
D03*
X601500Y699500D02*
D03*
X483000Y676500D02*
D03*
Y649000D02*
D03*
Y704000D02*
D03*
X109000Y550000D02*
D03*
X117000Y545000D02*
D03*
X125000Y540000D02*
D03*
X133000Y535000D02*
D03*
X315000Y196000D02*
D03*
X587790Y527500D02*
D03*
X163000Y160000D02*
D03*
X101000Y555000D02*
D03*
X145000Y285000D02*
D03*
X680000Y725000D02*
D03*
X667500D02*
D03*
D120*
X176000Y789000D02*
D03*
X69000D02*
D03*
X117000Y490500D02*
D03*
X555000Y750000D02*
D03*
X899500Y180500D02*
D03*
Y233500D02*
D03*
X762500Y666000D02*
D03*
X812762Y779544D02*
D03*
Y749544D02*
D03*
Y719544D02*
D03*
X761500Y233500D02*
D03*
X833000D02*
D03*
X74500Y64000D02*
D03*
Y23500D02*
D03*
X229500D02*
D03*
Y64000D02*
D03*
X57500Y44000D02*
D03*
X189000Y90500D02*
D03*
X102500Y62000D02*
D03*
X182500D02*
D03*
X970000Y777000D02*
D03*
Y747000D02*
D03*
Y717000D02*
D03*
X865000Y733000D02*
D03*
X895000D02*
D03*
X925000D02*
D03*
X829000Y805000D02*
D03*
X859000D02*
D03*
X889000D02*
D03*
X82500Y515500D02*
D03*
Y463000D02*
D03*
Y405000D02*
D03*
X155000Y685000D02*
D03*
X252500Y785000D02*
D03*
X443500D02*
D03*
Y765000D02*
D03*
X758500Y70000D02*
D03*
X829000D02*
D03*
X758500Y127000D02*
D03*
X688000D02*
D03*
X829000D02*
D03*
X899500D02*
D03*
X589500D02*
D03*
X518000D02*
D03*
X92500Y685000D02*
D03*
X148500Y789000D02*
D03*
X96500D02*
D03*
X515500Y774000D02*
D03*
X552500Y763000D02*
D03*
X595000Y754000D02*
D03*
X534000Y778000D02*
D03*
X497500Y765000D02*
D03*
Y218000D02*
D03*
X952500Y341000D02*
D03*
X922500D02*
D03*
X892500D02*
D03*
X832000Y340500D02*
D03*
X802000D02*
D03*
X772000D02*
D03*
X642000Y432500D02*
D03*
X690000Y233500D02*
D03*
X618500D02*
D03*
X690000Y334500D02*
D03*
X720000Y301000D02*
D03*
X589500Y173500D02*
D03*
X688000D02*
D03*
X591000Y418000D02*
D03*
X663000Y407000D02*
D03*
Y377000D02*
D03*
X616500Y407000D02*
D03*
Y377000D02*
D03*
X588500Y255500D02*
D03*
Y295500D02*
D03*
X589000Y334500D02*
D03*
X383500Y127000D02*
D03*
X447500D02*
D03*
X518000Y70000D02*
D03*
X447500D02*
D03*
X701500Y377000D02*
D03*
Y407000D02*
D03*
X650000Y478000D02*
D03*
X700000D02*
D03*
X675000D02*
D03*
X334000Y210500D02*
D03*
X229500Y90500D02*
D03*
X143000Y40000D02*
D03*
X74500Y89500D02*
D03*
X196500Y233000D02*
D03*
X200000Y157500D02*
D03*
X471500Y218000D02*
D03*
X440000D02*
D03*
X384000Y161000D02*
D03*
X525000Y264500D02*
D03*
X260500Y161000D02*
D03*
X356000Y237000D02*
D03*
X382000D02*
D03*
X239000Y194000D02*
D03*
X266000Y218000D02*
D03*
X286000Y238500D02*
D03*
X55500Y206500D02*
D03*
X87500Y239500D02*
D03*
X176500Y295000D02*
D03*
X250500Y245000D02*
D03*
X213500Y249500D02*
D03*
X147000Y463000D02*
D03*
X117000Y433000D02*
D03*
X82500Y360000D02*
D03*
Y560500D02*
D03*
X675000Y623500D02*
D03*
Y593500D02*
D03*
Y563500D02*
D03*
Y533500D02*
D03*
X625500Y775000D02*
D03*
Y804000D02*
D03*
X813000Y623500D02*
D03*
X61000Y622500D02*
D03*
X124500D02*
D03*
X177000D02*
D03*
X189500Y706000D02*
D03*
X278500Y785000D02*
D03*
X304500D02*
D03*
X330500D02*
D03*
X189500Y662000D02*
D03*
X783000Y623500D02*
D03*
X753000D02*
D03*
X723000D02*
D03*
Y502500D02*
D03*
X753000D02*
D03*
X783000D02*
D03*
X337500Y670500D02*
D03*
X317500Y705500D02*
D03*
Y670500D02*
D03*
Y635000D02*
D03*
X237500Y670000D02*
D03*
X413500Y765000D02*
D03*
X124500Y706000D02*
D03*
X230500Y359500D02*
D03*
X260500D02*
D03*
X290500D02*
D03*
X320500D02*
D03*
X349500Y635000D02*
D03*
X379500D02*
D03*
X409500D02*
D03*
X237500Y648000D02*
D03*
X274500Y617500D02*
D03*
X320500Y556000D02*
D03*
X290500D02*
D03*
X260500D02*
D03*
X230500D02*
D03*
X463000Y404000D02*
D03*
X502000D02*
D03*
X411000Y438000D02*
D03*
X531500Y430000D02*
D03*
X437500Y385000D02*
D03*
X521000Y404000D02*
D03*
X597000Y515000D02*
D03*
X551500Y487500D02*
D03*
X521500Y495000D02*
D03*
X497500Y532000D02*
D03*
X537000Y531000D02*
D03*
X595000Y732500D02*
D03*
X617500Y679000D02*
D03*
X540000Y518000D02*
D03*
X482000Y495000D02*
D03*
X439500D02*
D03*
X411000D02*
D03*
X429500Y526500D02*
D03*
X553000Y387500D02*
D03*
X457500Y372000D02*
D03*
X565500Y622500D02*
D03*
X576000Y678500D02*
D03*
X553000Y530500D02*
D03*
X504500Y485000D02*
D03*
X462000D02*
D03*
X575000Y585000D02*
D03*
X600000Y607500D02*
D03*
X132500Y313500D02*
D03*
X430000Y419500D02*
D03*
X377000Y378000D02*
D03*
Y468500D02*
D03*
Y446500D02*
D03*
X295000Y416500D02*
D03*
X497500Y548000D02*
D03*
X472500D02*
D03*
X452500D02*
D03*
X299000Y182000D02*
D03*
X274000D02*
D03*
X318500Y107500D02*
D03*
X141000Y387500D02*
D03*
X387500Y337000D02*
D03*
X320000Y484000D02*
D03*
Y431000D02*
D03*
X186500Y426000D02*
D03*
X333500Y431000D02*
D03*
X186500Y497500D02*
D03*
X333500Y484000D02*
D03*
X307500Y535000D02*
D03*
X337500D02*
D03*
X863500Y584000D02*
D03*
X863000Y457500D02*
D03*
X192500Y532500D02*
D03*
X177500D02*
D03*
X193000Y387500D02*
D03*
X177000D02*
D03*
X550000Y264500D02*
D03*
X510000Y265000D02*
D03*
X747500Y547500D02*
D03*
X737500Y537500D02*
D03*
X727500D02*
D03*
X747500Y538000D02*
D03*
X745000Y582500D02*
D03*
X730000D02*
D03*
X737500Y547500D02*
D03*
X727500D02*
D03*
X792000D02*
D03*
X592500Y551000D02*
D03*
Y640000D02*
D03*
X547500Y640000D02*
D03*
X535000Y627500D02*
D03*
X565000Y640000D02*
D03*
X507500Y372000D02*
D03*
X553000Y417500D02*
D03*
X490000Y419500D02*
D03*
X607000Y357500D02*
D03*
X377000Y403000D02*
D03*
X412000Y372000D02*
D03*
X792000Y420000D02*
D03*
X728000Y410000D02*
D03*
X738000D02*
D03*
X748000Y410500D02*
D03*
X728000Y420000D02*
D03*
X738000D02*
D03*
X730000Y455000D02*
D03*
X745000D02*
D03*
X748000Y420000D02*
D03*
X497500Y510000D02*
D03*
X422500Y547500D02*
D03*
X377000Y525000D02*
D03*
X440000Y510000D02*
D03*
X427500Y457500D02*
D03*
X907500Y402000D02*
D03*
Y510000D02*
D03*
Y529500D02*
D03*
X860000Y471000D02*
D03*
X850000D02*
D03*
X830000D02*
D03*
X860000Y598500D02*
D03*
X840000D02*
D03*
X850000D02*
D03*
X830000D02*
D03*
X840000Y471000D02*
D03*
X922500Y300000D02*
D03*
X907500Y382500D02*
D03*
X347500Y652500D02*
D03*
X207000Y194000D02*
D03*
X86000Y125500D02*
D03*
X583500Y562500D02*
D03*
X607500Y515000D02*
D03*
X225000Y157500D02*
D03*
X235000D02*
D03*
X286500Y140000D02*
D03*
X77500Y300000D02*
D03*
X939500Y687500D02*
D03*
Y697500D02*
D03*
X949500D02*
D03*
X959500D02*
D03*
X287500Y652500D02*
D03*
X949500Y687500D02*
D03*
X959500Y688000D02*
D03*
X207500Y772500D02*
D03*
X197500D02*
D03*
X237500Y695000D02*
D03*
X364000Y785000D02*
D03*
X374000D02*
D03*
X330500Y752500D02*
D03*
X304500D02*
D03*
X617500Y758000D02*
D03*
M02*
